<?xml version="1.0" encoding="UTF-8" standalone="no"?>
<!DOCTYPE svg PUBLIC "-//W3C//DTD SVG 1.1//EN" "http://www.w3.org/Graphics/SVG/1.1/DTD/svg11.dtd">
<svg xmlns="http://www.w3.org/2000/svg" version="1.1" viewBox="0.00 0.00 1773.00 1773.00">
<path fill="#f6d399" d="
  M 1773.00 0.00
  L 1773.00 1396.97
  C 1764.59 1388.62 1755.32 1380.37 1747.72 1372.09
  Q 1733.44 1356.53 1719.66 1342.82
  C 1706.08 1329.33 1688.76 1315.75 1670.36 1304.27
  Q 1650.67 1291.98 1648.99 1291.00
  Q 1625.90 1277.58 1615.05 1271.13
  C 1608.36 1267.16 1600.22 1263.46 1593.88 1259.86
  Q 1570.24 1246.42 1560.45 1240.78
  Q 1546.53 1232.76 1534.94 1223.62
  Q 1518.02 1210.26 1513.30 1206.78
  Q 1507.23 1202.30 1503.23 1200.27
  Q 1486.26 1191.66 1466.02 1186.41
  A 4.58 4.54 73.6 0 1 1464.02 1185.31
  C 1461.96 1183.38 1458.57 1180.56 1456.82 1179.36
  Q 1440.26 1168.00 1431.85 1163.40
  Q 1424.14 1159.17 1404.31 1148.71
  C 1397.19 1144.96 1387.57 1136.48 1379.29 1132.54
  Q 1369.03 1127.66 1358.00 1125.02
  Q 1345.96 1122.14 1341.36 1121.40
  Q 1301.74 1114.97 1265.10 1110.04
  A 0.76 0.76 0.0 0 1 1264.45 1109.19
  Q 1269.86 1068.54 1283.74 1031.27
  A 0.45 0.44 15.8 0 1 1284.25 1030.99
  Q 1305.94 1035.40 1325.52 1027.05
  C 1330.37 1024.98 1336.42 1020.72 1339.84 1018.83
  C 1346.45 1015.19 1352.00 1010.92 1360.51 1005.26
  Q 1375.58 995.23 1391.90 980.16
  C 1405.85 967.28 1415.96 951.44 1424.18 933.91
  C 1430.90 919.58 1436.53 904.92 1441.31 890.76
  Q 1446.74 874.69 1450.38 856.22
  Q 1454.61 834.78 1453.81 818.57
  Q 1452.98 801.63 1448.42 779.79
  Q 1445.95 767.96 1442.17 760.56
  Q 1437.24 750.91 1430.59 743.81
  A 1.66 1.66 0.0 0 1 1430.41 741.77
  Q 1436.44 732.50 1437.12 731.49
  C 1442.05 724.18 1444.47 716.30 1443.97 708.51
  Q 1443.44 700.07 1443.41 699.26
  C 1443.08 688.92 1452.05 682.06 1455.20 675.16
  Q 1461.81 660.69 1455.83 646.35
  Q 1454.96 644.28 1451.49 636.77
  Q 1446.16 625.27 1453.21 613.66
  Q 1456.89 607.58 1464.03 598.32
  C 1475.23 583.80 1473.55 566.79 1467.66 550.53
  A 6.59 6.36 -58.7 0 1 1467.31 548.98
  C 1466.49 541.31 1465.98 537.55 1460.36 532.40
  C 1458.61 530.80 1454.75 528.29 1453.31 525.47
  C 1450.48 519.95 1452.44 512.85 1455.22 507.74
  Q 1459.98 499.01 1469.06 485.34
  Q 1474.45 477.25 1475.37 467.87
  Q 1477.42 446.90 1461.79 431.99
  C 1456.78 427.21 1456.17 417.85 1457.87 411.79
  Q 1457.96 411.47 1458.60 408.27
  Q 1462.81 387.19 1449.79 370.23
  C 1448.22 368.18 1442.65 364.89 1441.44 361.53
  Q 1438.07 352.20 1433.76 343.75
  C 1432.37 341.03 1431.83 338.28 1431.82 335.75
  C 1431.72 318.10 1430.24 303.55 1414.41 293.14
  C 1406.93 288.22 1399.28 287.86 1390.81 287.76
  Q 1386.33 287.71 1383.44 285.32
  Q 1373.51 277.09 1364.87 273.00
  C 1361.04 271.19 1355.95 267.85 1356.18 262.99
  Q 1356.63 253.70 1356.05 247.84
  Q 1355.44 241.59 1354.33 239.44
  Q 1351.90 234.75 1351.78 231.75
  Q 1351.49 224.81 1351.27 221.02
  Q 1350.05 200.79 1333.99 188.73
  Q 1331.79 187.08 1327.35 185.38
  Q 1315.45 180.83 1303.34 183.38
  C 1298.15 184.47 1291.49 182.46 1287.23 182.36
  Q 1281.53 182.22 1275.99 183.52
  A 2.90 2.86 56.0 0 1 1273.65 183.05
  Q 1267.29 178.50 1259.94 175.16
  C 1255.98 173.36 1253.70 171.66 1253.08 167.69
  Q 1250.06 148.29 1238.69 133.09
  C 1234.22 127.12 1227.17 121.73 1219.84 119.15
  Q 1214.08 117.12 1213.80 117.01
  A 7.97 7.90 -31.7 0 0 1211.69 116.52
  C 1200.11 115.41 1189.17 116.18 1178.23 119.20
  C 1173.15 120.60 1167.42 120.74 1162.02 118.43
  C 1154.64 115.27 1144.86 115.69 1136.74 118.18
  C 1134.44 118.88 1131.65 118.57 1129.99 117.26
  C 1120.12 109.51 1113.17 98.83 1104.20 90.05
  C 1092.50 78.58 1075.61 75.47 1061.38 84.20
  A 1.47 1.45 44.7 0 1 1059.85 84.20
  Q 1054.80 81.11 1049.19 78.55
  C 1036.34 72.68 1019.29 72.83 1006.39 77.66
  Q 995.29 81.81 987.63 86.40
  Q 980.44 90.71 974.16 93.17
  C 968.34 95.44 964.18 93.21 958.38 90.88
  Q 951.97 88.31 945.01 88.23
  A 6.06 6.05 65.3 0 1 941.21 86.82
  C 933.78 80.61 925.04 73.82 917.01 70.76
  Q 908.98 67.70 899.24 69.27
  Q 893.80 70.14 893.75 70.15
  A 1.43 1.42 52.7 0 1 892.96 70.04
  Q 889.28 68.39 884.26 65.27
  C 881.14 63.33 877.37 61.79 874.00 61.30
  C 865.47 60.06 855.86 60.20 848.49 64.60
  C 843.93 67.32 840.04 69.83 836.82 73.22
  Q 834.21 75.98 829.04 78.04
  Q 820.75 81.33 813.15 90.20
  C 810.20 93.64 808.21 99.33 805.58 103.06
  A 2.27 2.26 -77.6 0 1 804.15 103.98
  Q 801.16 104.56 796.69 105.10
  C 789.43 105.98 783.50 108.79 778.36 113.89
  A 2.30 2.29 -61.1 0 1 776.25 114.50
  Q 765.08 112.10 753.51 113.75
  A 2.39 2.35 31.4 0 0 753.08 113.85
  L 750.75 114.62
  A 1.23 1.23 0.0 0 1 749.41 114.24
  Q 742.05 105.38 732.94 103.07
  Q 718.94 99.52 707.59 106.69
  C 702.69 109.78 697.44 115.67 695.36 120.88
  C 693.89 124.58 691.53 131.87 688.11 133.90
  Q 679.44 139.03 674.57 147.81
  C 671.44 153.44 671.41 161.84 671.63 168.56
  Q 671.79 173.56 666.98 174.12
  Q 656.89 175.30 647.45 179.07
  A 2.72 2.70 -37.9 0 1 644.87 178.76
  Q 633.12 170.42 619.20 173.49
  Q 610.03 175.51 603.33 181.35
  C 594.45 189.10 586.29 199.04 586.28 211.59
  Q 586.27 218.99 587.20 222.79
  C 590.69 237.09 597.38 254.35 584.81 266.52
  A 4.98 4.75 6.6 0 1 583.83 267.26
  Q 574.10 272.86 566.43 279.45
  A 4.98 4.93 21.0 0 1 563.79 280.61
  C 537.33 283.79 525.72 310.39 536.99 333.57
  Q 539.60 338.94 542.94 344.92
  A 4.12 4.09 -44.8 0 1 542.91 348.98
  Q 537.52 358.36 537.95 370.22
  A 4.80 4.75 -24.8 0 1 536.68 373.63
  C 526.04 385.10 521.00 396.79 526.94 412.37
  Q 528.07 415.35 530.01 420.02
  A 1.21 1.19 46.0 0 1 530.00 420.97
  Q 528.86 423.54 527.66 426.14
  Q 522.72 436.95 524.86 448.44
  C 525.44 451.51 524.95 452.95 523.91 455.69
  C 520.86 463.73 517.15 470.02 510.74 477.35
  C 499.67 490.00 493.21 503.75 500.55 520.23
  Q 508.19 537.40 508.38 537.89
  Q 510.52 543.48 510.08 546.26
  Q 508.24 557.91 508.17 559.78
  Q 507.85 568.38 510.01 577.25
  Q 514.45 595.36 523.38 611.79
  A 3.99 3.97 34.9 0 1 523.82 614.23
  C 521.68 629.46 515.51 644.22 513.64 660.48
  C 512.55 669.99 511.70 677.85 513.02 686.75
  C 514.98 699.92 517.69 714.24 519.80 725.09
  C 523.80 745.60 525.30 764.01 524.32 783.80
  A 0.56 0.55 -87.4 0 1 523.75 784.33
  L 520.84 784.23
  Q 515.31 782.86 509.70 784.33
  Q 502.09 785.79 496.23 791.73
  Q 487.91 800.14 481.94 808.69
  C 477.90 814.47 473.18 822.89 468.51 828.97
  C 461.58 838.00 454.54 844.89 447.07 852.82
  C 437.71 862.76 430.83 875.88 422.68 890.57
  Q 419.81 895.74 413.26 906.44
  Q 396.28 934.17 370.45 976.72
  Q 361.75 991.07 364.39 1008.29
  C 366.82 1024.05 371.60 1036.18 378.29 1053.25
  Q 384.86 1069.97 388.66 1078.96
  C 393.78 1091.05 397.59 1102.54 402.02 1113.63
  Q 406.38 1124.55 408.64 1131.98
  C 417.78 1162.00 418.27 1186.51 432.05 1210.23
  Q 437.84 1220.20 441.90 1227.82
  A 0.65 0.64 -27.5 0 1 441.62 1228.70
  C 433.89 1232.58 426.95 1236.75 419.00 1240.59
  Q 409.99 1244.94 400.79 1250.29
  Q 366.86 1270.02 347.08 1280.58
  C 335.20 1286.91 325.41 1293.21 317.56 1301.05
  Q 308.33 1310.28 298.40 1324.95
  C 295.85 1328.72 293.95 1332.57 291.20 1337.40
  Q 288.95 1341.37 286.30 1346.99
  Q 268.80 1384.13 268.41 1384.94
  Q 256.02 1410.70 252.74 1416.77
  Q 234.47 1450.55 222.47 1480.11
  Q 217.83 1491.54 213.82 1503.82
  Q 207.57 1523.01 205.76 1527.75
  Q 198.82 1545.93 195.77 1551.78
  Q 189.43 1563.92 183.48 1578.46
  C 175.96 1596.82 173.25 1614.55 173.26 1634.48
  Q 173.26 1640.10 174.72 1657.50
  Q 176.28 1676.09 175.06 1694.49
  Q 174.21 1707.20 168.16 1717.15
  Q 151.38 1744.75 138.10 1773.00
  L 0.00 1773.00
  L 0.00 0.00
  L 1773.00 0.00
  Z"
/>
<path fill="#3f2317" d="
  M 540.86 413.44
  Q 538.85 408.83 537.58 403.25
  C 535.23 392.86 542.18 386.02 548.00 378.71
  A 7.31 7.30 -24.4 0 0 549.57 374.55
  Q 549.82 369.77 550.39 364.41
  C 550.90 359.68 554.49 354.09 555.60 350.20
  Q 557.38 343.96 553.92 338.14
  Q 553.86 338.04 548.79 328.71
  C 541.73 315.73 545.45 297.01 561.78 293.78
  C 565.49 293.05 570.27 292.62 573.80 289.80
  Q 577.14 287.13 581.95 283.51
  A 6.06 5.50 -74.3 0 1 582.81 282.97
  Q 588.73 280.01 590.78 278.03
  Q 592.94 275.94 596.91 270.93
  C 604.06 261.91 605.93 248.66 604.12 237.77
  C 602.52 228.13 597.15 219.99 598.75 209.77
  C 600.22 200.38 608.99 191.26 617.08 187.38
  C 627.01 182.61 634.11 185.82 642.16 192.08
  C 644.82 194.15 647.75 193.12 650.82 191.46
  Q 657.14 188.07 659.92 187.62
  Q 666.91 186.49 669.63 185.85
  C 676.30 184.28 683.56 178.76 683.87 171.41
  Q 684.20 163.55 684.54 160.07
  C 685.19 153.44 688.00 148.92 693.47 145.31
  C 695.93 143.69 699.89 141.54 701.25 138.26
  Q 702.77 134.60 706.42 127.19
  C 712.06 115.77 723.86 109.71 735.39 118.00
  C 738.21 120.02 740.77 123.36 743.48 126.54
  C 745.41 128.79 748.88 128.38 751.99 127.30
  Q 761.33 124.04 771.77 126.08
  C 775.64 126.83 779.78 128.15 783.17 125.62
  C 787.18 122.64 791.37 118.43 796.99 118.18
  C 803.51 117.89 813.03 117.62 816.29 110.59
  Q 816.40 110.35 819.90 103.18
  C 823.62 95.58 828.23 92.41 836.03 88.69
  Q 842.31 85.69 847.41 80.18
  Q 848.28 79.24 852.85 76.34
  Q 864.40 69.01 877.03 75.48
  Q 882.98 78.53 889.30 82.96
  C 890.68 83.93 892.54 83.83 894.25 83.12
  C 907.18 77.82 916.42 82.61 926.03 90.97
  Q 932.50 96.59 933.88 97.60
  C 938.64 101.08 946.79 99.70 951.25 101.01
  Q 954.25 101.89 959.60 104.39
  C 967.12 107.91 977.98 105.19 985.31 101.54
  C 1002.41 93.02 1017.55 81.47 1038.69 87.92
  Q 1048.80 91.00 1056.73 97.23
  C 1060.60 100.27 1064.48 97.01 1068.57 94.33
  C 1076.64 89.05 1086.97 91.30 1094.17 97.85
  Q 1096.79 100.23 1108.13 113.34
  Q 1113.98 120.11 1121.87 127.09
  C 1133.06 136.99 1143.09 125.36 1155.32 128.90
  C 1159.17 130.01 1162.87 131.73 1166.35 131.92
  Q 1177.14 132.50 1183.11 130.84
  Q 1194.07 127.81 1202.79 127.67
  Q 1206.91 127.61 1214.44 130.14
  C 1222.76 132.94 1227.94 138.37 1232.16 146.31
  Q 1239.13 159.46 1243.06 174.71
  C 1244.70 181.08 1248.44 183.96 1255.04 186.81
  Q 1261.48 189.60 1266.34 193.60
  C 1272.64 198.78 1280.62 193.47 1287.01 193.97
  C 1289.96 194.20 1291.72 194.95 1295.03 195.85
  A 8.34 8.31 -36.9 0 0 1297.17 196.15
  Q 1301.43 196.19 1309.07 195.18
  C 1316.46 194.20 1324.28 197.14 1330.02 201.53
  C 1335.34 205.60 1337.18 210.76 1338.65 217.55
  C 1339.81 222.91 1338.98 228.95 1339.57 234.21
  Q 1339.98 237.82 1342.41 244.11
  C 1344.03 248.29 1343.48 256.90 1343.33 260.85
  C 1342.98 270.17 1345.68 277.17 1354.05 281.71
  Q 1358.60 284.18 1366.08 287.89
  C 1371.74 290.71 1377.29 298.64 1386.97 299.21
  C 1396.06 299.75 1403.69 300.59 1410.87 306.35
  C 1420.92 314.40 1419.24 326.79 1419.11 338.07
  C 1419.06 342.33 1420.71 346.31 1423.14 350.81
  C 1425.77 355.68 1427.31 359.89 1429.10 365.42
  Q 1430.20 368.82 1431.98 371.09
  A 4.93 4.78 -89.1 0 0 1432.60 371.75
  C 1434.71 373.63 1438.60 376.29 1440.57 378.61
  C 1446.60 385.75 1447.94 396.23 1446.62 405.15
  Q 1445.38 413.49 1445.23 415.45
  C 1444.55 424.44 1447.06 433.21 1453.02 440.14
  C 1454.80 442.21 1457.85 445.65 1459.23 448.34
  C 1464.03 457.74 1464.55 469.80 1458.49 478.98
  Q 1456.03 482.72 1451.29 489.54
  Q 1448.30 493.84 1443.74 503.85
  Q 1439.67 512.76 1440.00 519.42
  Q 1440.45 528.73 1445.52 535.45
  C 1447.49 538.06 1450.93 540.79 1453.09 542.91
  Q 1454.42 544.21 1454.64 546.08
  Q 1455.53 553.89 1457.11 558.34
  Q 1459.48 565.01 1459.75 568.28
  Q 1460.85 581.94 1453.87 591.66
  Q 1445.65 603.12 1440.38 611.15
  Q 1439.08 613.13 1437.78 616.43
  C 1435.88 621.27 1436.50 630.11 1437.09 634.20
  Q 1437.38 636.27 1439.35 641.20
  Q 1439.46 641.48 1444.44 651.60
  Q 1446.30 655.38 1446.50 661.52
  Q 1446.73 668.64 1441.81 674.37
  C 1435.15 682.14 1430.36 689.93 1430.70 700.00
  C 1430.91 706.49 1432.76 713.52 1428.92 720.96
  Q 1425.28 728.03 1420.39 734.80
  A 2.42 2.41 28.2 0 1 1417.57 735.65
  C 1413.63 734.17 1408.94 732.17 1404.72 731.43
  Q 1388.22 728.54 1373.51 733.79
  Q 1352.58 741.26 1335.03 753.76
  A 3.81 3.79 33.2 0 1 1332.03 754.38
  Q 1316.78 751.10 1303.24 757.56
  C 1292.76 762.55 1283.41 774.34 1276.66 784.51
  C 1271.69 792.00 1266.59 804.35 1262.25 811.26
  Q 1259.58 815.51 1256.64 817.76
  C 1250.97 822.11 1249.63 813.23 1249.42 809.31
  C 1248.56 793.37 1247.57 777.52 1244.33 763.18
  C 1241.50 750.68 1238.18 739.28 1239.57 727.50
  C 1240.60 718.80 1242.94 705.61 1243.04 695.08
  Q 1243.22 676.26 1238.66 656.59
  C 1234.73 639.59 1225.51 626.41 1213.45 613.56
  C 1208.31 608.08 1205.97 601.88 1202.67 593.87
  C 1197.60 581.56 1189.59 576.69 1177.46 569.53
  C 1151.82 554.39 1138.99 529.11 1142.86 499.29
  Q 1144.76 484.61 1145.69 479.87
  C 1148.64 464.86 1149.22 451.11 1147.17 436.77
  C 1145.30 423.68 1144.03 414.40 1141.71 405.00
  C 1139.12 394.49 1133.98 386.49 1124.46 380.27
  Q 1103.55 366.59 1084.81 358.66
  Q 1072.52 353.46 1055.46 349.12
  Q 1036.35 344.27 1019.51 339.98
  Q 1010.33 337.64 1004.06 333.19
  Q 990.57 323.61 990.46 323.53
  C 982.57 318.08 977.57 316.12 968.37 315.79
  C 958.79 315.45 949.68 315.24 941.31 310.68
  C 936.05 307.81 929.04 303.13 922.58 301.58
  C 916.14 300.04 909.50 300.83 902.84 302.05
  C 890.40 304.33 878.96 299.35 867.87 294.16
  C 853.22 287.31 837.55 287.50 820.73 290.93
  C 814.50 292.21 804.59 295.57 797.51 296.52
  C 785.72 298.09 774.98 296.47 763.32 293.42
  C 753.58 290.88 742.14 291.43 732.67 296.20
  Q 719.68 302.74 713.47 305.73
  Q 708.39 308.18 702.51 309.78
  Q 701.67 310.01 690.95 311.44
  Q 676.29 313.40 663.02 321.30
  Q 661.81 322.01 631.92 338.93
  Q 625.64 342.48 615.70 350.60
  Q 608.56 356.43 601.89 364.98
  Q 589.19 381.30 579.22 399.21
  C 572.43 411.43 565.63 424.10 560.24 438.08
  Q 551.79 459.98 547.06 476.77
  Q 543.39 489.76 539.93 507.88
  C 538.32 516.25 536.44 524.20 535.40 531.57
  Q 531.53 559.13 529.60 587.01
  Q 529.36 590.50 528.77 592.98
  A 0.52 0.51 41.4 0 1 527.79 593.04
  C 526.80 590.46 525.58 588.01 524.94 585.52
  Q 521.91 573.81 521.26 570.51
  Q 519.68 562.58 520.53 557.71
  Q 522.00 549.30 522.05 548.87
  Q 522.64 542.53 520.67 536.77
  Q 517.34 527.03 511.80 515.00
  Q 507.64 505.94 512.26 496.99
  C 516.28 489.21 521.42 483.40 527.75 476.27
  Q 529.70 474.08 531.80 469.58
  Q 534.59 463.60 537.23 457.00
  C 538.91 452.78 537.51 448.08 536.42 441.78
  C 535.48 436.34 538.99 430.52 542.00 424.97
  Q 542.84 423.41 542.73 419.14
  Q 542.69 417.63 540.86 413.44
  Z
  M 907.01 223.75
  C 904.69 220.39 902.56 217.68 899.22 215.22
  Q 885.23 204.90 868.71 213.00
  C 862.13 216.23 853.51 223.58 852.81 231.29
  A 0.93 0.90 -89.6 0 0 853.77 232.30
  Q 854.08 232.27 854.42 231.93
  Q 861.06 225.00 867.69 220.49
  C 876.57 214.45 888.03 213.84 896.22 221.06
  Q 902.24 226.37 904.47 232.16
  C 905.75 235.50 906.75 239.50 909.23 240.71
  A 1.44 1.44 0.0 0 0 911.15 240.07
  Q 911.85 238.67 911.95 237.71
  Q 912.42 233.34 914.40 225.14
  C 917.27 213.26 925.95 201.72 937.77 198.05
  Q 940.54 197.19 946.30 195.81
  A 1.68 1.68 0.0 0 0 947.59 193.99
  C 947.06 188.94 946.41 183.95 947.26 179.50
  Q 949.37 168.50 959.55 163.81
  C 964.49 161.53 970.16 161.34 974.90 163.14
  Q 977.97 164.30 979.80 164.90
  A 2.09 2.08 17.2 0 0 982.45 163.51
  Q 984.62 156.04 984.73 155.64
  C 986.80 147.70 992.30 140.96 999.15 136.72
  Q 1009.22 130.49 1020.38 134.40
  C 1030.22 137.86 1037.29 146.28 1042.72 155.18
  A 0.90 0.90 0.0 0 0 1044.31 155.09
  Q 1044.45 154.78 1044.38 154.03
  C 1043.77 147.42 1039.48 140.78 1034.64 136.16
  C 1016.56 118.90 986.86 127.94 979.05 150.58
  Q 977.68 154.56 977.33 155.67
  A 1.27 1.25 -73.4 0 1 975.80 156.51
  Q 964.26 153.36 953.85 159.35
  C 942.01 166.19 939.14 176.69 940.19 189.92
  A 0.89 0.88 80.5 0 1 939.54 190.84
  Q 913.98 197.89 907.78 223.60
  A 0.43 0.43 0.0 0 1 907.01 223.75
  Z
  M 788.23 179.76
  Q 782.27 167.66 769.11 164.87
  C 750.36 160.91 734.52 174.86 732.88 193.31
  A 0.90 0.89 11.4 0 1 731.71 194.08
  C 709.32 186.74 687.21 198.07 676.68 218.40
  Q 673.63 224.29 672.49 229.36
  A 0.75 0.75 0.0 0 1 671.49 229.89
  C 661.11 225.90 650.16 226.55 642.06 234.89
  C 633.32 243.90 632.66 254.32 634.87 266.29
  Q 635.96 272.23 635.94 278.02
  A 2.00 2.00 0.0 0 1 634.26 279.99
  Q 627.84 281.02 622.33 283.11
  C 612.37 286.88 603.47 295.35 600.88 306.09
  Q 597.28 320.95 602.64 334.57
  Q 605.14 340.91 611.17 343.27
  A 0.63 0.63 0.0 0 0 611.98 342.44
  C 608.56 334.21 605.80 325.53 606.12 316.44
  C 606.45 306.61 610.67 299.43 617.47 292.90
  C 623.67 286.93 630.38 287.16 638.26 285.78
  Q 642.57 285.03 642.75 281.27
  Q 642.86 278.97 642.60 267.73
  C 642.53 264.82 641.57 261.68 641.18 258.95
  C 639.87 249.90 643.42 237.28 653.21 234.48
  Q 660.73 232.33 669.39 236.16
  Q 669.40 236.16 674.60 238.83
  A 1.92 1.91 -66.7 0 0 677.27 237.76
  Q 678.23 235.07 680.79 227.78
  Q 682.90 221.76 687.31 214.53
  C 697.27 198.20 717.86 195.83 734.46 202.10
  C 739.16 203.88 739.80 198.39 739.85 195.39
  Q 740.02 183.34 747.67 176.71
  C 755.88 169.58 768.23 169.24 776.82 175.64
  Q 783.13 180.35 785.77 188.35
  Q 786.61 190.88 786.96 196.97
  C 787.33 203.24 788.75 207.99 790.42 213.18
  A 0.54 0.53 -13.4 0 1 789.99 213.87
  Q 789.58 213.94 785.78 214.27
  Q 774.86 215.21 766.81 222.52
  Q 753.10 234.97 754.24 252.43
  C 754.64 258.42 756.82 264.26 760.17 268.97
  A 0.56 0.56 0.0 0 0 761.18 268.54
  C 759.34 258.94 758.27 246.50 762.98 238.03
  Q 767.92 229.13 776.33 224.10
  C 782.23 220.57 788.98 219.94 796.00 219.97
  A 2.00 1.99 -88.3 0 0 797.99 218.09
  Q 798.15 215.62 797.28 212.84
  Q 794.79 204.87 794.11 200.33
  Q 790.88 178.94 806.36 164.63
  Q 810.84 160.49 817.92 159.07
  C 820.80 158.49 823.55 158.89 827.26 159.07
  A 2.37 2.37 0.0 0 0 829.50 157.73
  C 833.29 149.86 839.24 141.90 848.63 140.59
  C 857.86 139.31 867.05 144.11 872.57 151.44
  Q 879.73 160.93 881.13 173.01
  A 0.68 0.68 0.0 0 0 882.31 173.39
  Q 883.01 172.62 883.31 171.07
  Q 885.00 162.25 880.92 153.53
  C 871.21 132.79 842.93 126.39 828.17 146.21
  Q 827.06 147.70 824.59 151.73
  A 1.91 1.88 15.5 0 1 822.97 152.63
  C 806.62 152.65 793.09 164.09 789.01 179.69
  A 0.42 0.42 0.0 0 1 788.23 179.76
  Z
  M 1228.12 185.34
  A 0.63 0.63 0.0 0 0 1228.62 184.51
  C 1225.94 176.72 1217.73 172.38 1209.95 171.36
  Q 1200.43 170.11 1191.42 173.80
  A 1.11 1.11 0.0 0 1 1190.03 173.30
  Q 1185.45 164.83 1178.60 158.69
  Q 1165.07 146.56 1147.39 150.89
  C 1139.81 152.75 1134.48 157.05 1129.25 162.27
  A 1.18 1.18 0.0 0 1 1127.90 162.49
  Q 1122.81 159.94 1122.19 159.62
  C 1110.54 153.66 1096.02 157.98 1088.29 168.09
  Q 1085.29 172.00 1082.49 176.00
  A 3.69 3.67 -75.8 0 1 1079.94 177.53
  C 1067.17 179.10 1058.48 186.27 1056.23 198.90
  Q 1054.87 206.48 1056.88 212.81
  A 0.78 0.78 0.0 0 0 1058.40 212.67
  Q 1058.68 210.53 1058.74 208.05
  C 1059.02 196.51 1066.01 185.24 1077.57 183.38
  C 1081.13 182.81 1085.46 182.73 1086.67 180.65
  Q 1090.01 174.93 1090.87 173.87
  Q 1096.55 166.90 1102.89 164.65
  C 1111.99 161.43 1119.98 164.67 1127.47 170.61
  A 2.06 2.06 0.0 0 0 1130.14 170.51
  Q 1133.34 167.57 1136.50 164.30
  Q 1141.58 159.02 1148.01 157.13
  C 1158.55 154.04 1170.36 158.75 1177.54 166.88
  C 1180.18 169.86 1183.19 175.20 1184.71 177.80
  Q 1186.11 180.19 1187.47 181.34
  A 2.31 2.30 -40.7 0 0 1190.18 181.54
  Q 1203.45 173.29 1218.30 180.33
  Q 1225.22 183.62 1227.32 185.20
  Q 1227.47 185.32 1227.71 185.34
  Q 1228.01 185.37 1228.12 185.34
  Z
  M 995.95 310.08
  C 997.60 301.08 999.84 291.54 1004.09 283.98
  Q 1008.77 275.69 1015.71 269.21
  Q 1021.92 263.41 1026.48 260.50
  C 1040.51 251.52 1058.60 247.99 1074.52 253.80
  Q 1080.53 255.99 1085.26 258.50
  Q 1088.60 260.27 1090.16 256.89
  C 1091.91 253.09 1093.33 248.98 1095.68 245.59
  C 1105.21 231.92 1120.23 225.07 1136.22 233.55
  Q 1142.21 236.73 1146.38 243.93
  C 1148.86 248.21 1149.49 251.81 1151.17 256.33
  C 1152.02 258.62 1153.62 259.02 1155.88 258.16
  C 1158.15 257.29 1160.91 256.11 1163.25 255.62
  C 1174.67 253.24 1186.61 255.80 1193.86 265.19
  C 1200.53 273.84 1203.28 286.27 1199.15 296.90
  C 1196.99 302.47 1195.56 305.44 1195.26 308.47
  A 0.61 0.61 0.0 0 0 1196.21 309.03
  C 1203.01 304.28 1206.97 298.13 1207.96 289.77
  Q 1210.05 272.09 1197.30 258.95
  C 1187.04 248.38 1171.21 244.96 1157.55 250.43
  A 0.96 0.96 0.0 0 1 1156.27 249.78
  Q 1153.91 240.68 1147.47 234.06
  C 1126.87 212.90 1095.44 225.01 1085.52 249.73
  A 1.10 1.10 0.0 0 1 1084.00 250.31
  Q 1062.58 239.62 1039.69 247.21
  Q 1016.63 254.86 1003.53 273.26
  C 995.98 283.88 991.72 297.42 994.48 310.10
  A 0.75 0.75 0.0 0 0 995.95 310.08
  Z
  M 1328.70 457.97
  A 0.76 0.76 0.0 0 1 1328.37 456.69
  C 1343.21 442.29 1351.08 419.16 1342.80 399.24
  C 1337.54 386.59 1325.47 378.00 1311.57 381.05
  A 1.14 1.14 0.0 0 1 1310.21 379.69
  C 1310.61 377.85 1311.68 375.19 1312.06 372.35
  C 1313.48 361.70 1307.75 349.81 1298.00 345.73
  C 1290.58 342.62 1282.10 343.18 1275.06 347.41
  A 0.50 0.50 0.0 0 1 1274.30 346.96
  C 1274.67 332.95 1271.83 317.38 1263.56 305.90
  C 1258.02 298.22 1251.87 292.81 1246.65 286.40
  C 1240.41 278.74 1248.58 270.92 1254.39 266.67
  C 1262.63 260.65 1271.53 256.29 1281.25 255.62
  Q 1301.63 254.20 1310.55 272.60
  C 1314.62 281.00 1313.75 288.60 1312.05 297.12
  C 1311.57 299.51 1311.90 301.43 1314.04 302.50
  C 1317.11 304.05 1320.51 305.06 1323.23 307.05
  Q 1330.59 312.39 1331.66 321.37
  Q 1331.91 323.53 1332.54 329.76
  Q 1332.94 333.64 1336.51 335.06
  C 1354.93 342.35 1366.60 359.26 1367.38 379.11
  C 1367.72 387.79 1367.24 396.51 1362.86 403.38
  Q 1360.12 407.68 1356.98 411.21
  A 0.97 0.97 0.0 0 0 1357.13 412.64
  Q 1357.28 412.76 1358.03 412.71
  C 1368.50 412.04 1373.13 399.46 1374.19 390.78
  Q 1377.21 366.12 1363.09 346.67
  Q 1355.22 335.83 1343.46 331.21
  Q 1340.10 329.90 1339.01 328.81
  A 1.57 1.54 -66.3 0 1 1338.57 327.65
  C 1339.16 316.05 1335.38 305.89 1325.72 299.52
  A 0.53 0.07 37.0 0 0 1325.63 299.47
  L 1320.27 297.23
  A 1.55 1.54 12.9 0 1 1319.33 295.74
  C 1319.66 288.44 1320.36 279.01 1317.84 272.48
  C 1312.94 259.79 1301.88 251.18 1288.51 249.60
  C 1272.30 247.68 1257.35 254.20 1245.56 264.77
  C 1239.23 270.44 1233.84 281.39 1240.47 289.02
  Q 1252.18 302.50 1252.77 303.18
  Q 1265.66 317.78 1266.95 337.02
  Q 1267.36 343.19 1267.49 350.75
  C 1267.58 356.44 1270.11 359.22 1275.89 355.77
  C 1283.71 351.11 1291.40 348.91 1299.32 354.22
  C 1306.95 359.34 1307.63 370.74 1304.61 378.39
  Q 1303.25 381.82 1300.92 386.38
  Q 1300.10 388.00 1300.83 389.10
  A 3.24 2.85 -26.8 0 0 1304.57 390.07
  C 1310.10 387.86 1314.60 385.83 1320.04 387.47
  Q 1334.61 391.86 1338.04 406.72
  C 1341.50 421.71 1336.22 437.80 1326.25 449.31
  Q 1323.29 452.72 1317.36 458.33
  C 1316.33 459.31 1315.53 460.83 1315.99 462.11
  A 3.42 3.24 -8.9 0 0 1319.11 464.26
  Q 1323.35 464.35 1326.37 464.66
  Q 1340.79 466.14 1348.61 477.67
  Q 1353.44 484.78 1353.82 485.45
  A 1.00 1.00 0.0 0 0 1355.39 485.67
  Q 1355.68 485.39 1355.85 484.12
  C 1357.51 472.26 1344.72 462.32 1334.60 459.58
  Q 1329.49 458.19 1328.70 457.97
  Z
  M 1221.25 477.30
  C 1224.61 467.66 1225.73 459.06 1221.86 449.44
  A 2.60 2.58 -36.9 0 1 1222.24 446.85
  C 1237.64 427.59 1238.32 400.84 1219.33 383.67
  C 1209.67 374.94 1195.35 370.80 1182.85 375.30
  Q 1181.91 375.64 1181.64 376.25
  A 0.61 0.61 0.0 0 0 1182.22 377.11
  C 1192.44 376.62 1201.81 378.42 1210.56 384.19
  C 1225.37 393.98 1230.47 412.58 1224.80 429.07
  C 1222.56 435.57 1218.70 440.53 1213.93 445.54
  A 2.90 2.89 52.5 0 0 1213.49 448.93
  Q 1214.71 451.17 1216.14 454.45
  C 1220.02 463.34 1216.21 474.71 1209.88 481.88
  Q 1209.37 482.46 1204.84 486.97
  A 2.19 2.18 50.1 0 0 1204.59 489.76
  C 1206.15 492.02 1209.63 490.66 1211.82 489.57
  C 1221.58 484.69 1230.77 478.25 1240.17 486.04
  C 1247.05 491.74 1248.46 500.84 1253.56 507.81
  Q 1262.73 520.34 1279.94 517.84
  Q 1289.65 516.43 1296.79 509.62
  A 1.70 1.69 -43.9 0 1 1299.18 509.66
  Q 1300.77 511.30 1301.79 513.75
  Q 1310.90 535.54 1296.21 552.24
  C 1293.78 555.00 1290.48 557.17 1285.81 560.58
  A 3.14 3.14 0.0 0 0 1284.54 563.51
  C 1285.69 573.04 1285.01 581.48 1277.70 588.69
  C 1269.05 597.22 1256.32 601.33 1244.20 598.05
  C 1240.42 597.03 1237.52 596.05 1235.44 596.30
  A 1.08 1.08 0.0 0 0 1234.58 597.81
  C 1236.69 602.62 1244.91 605.08 1249.98 605.49
  Q 1269.44 607.06 1283.05 593.09
  Q 1294.30 581.54 1292.16 565.82
  A 1.35 1.35 0.0 0 1 1292.66 564.57
  Q 1294.00 563.50 1297.23 560.85
  C 1303.09 556.05 1307.87 548.45 1309.83 541.83
  Q 1316.15 520.47 1301.64 503.60
  Q 1298.70 500.17 1295.15 503.10
  C 1292.09 505.63 1290.33 507.38 1287.31 508.83
  C 1279.83 512.44 1268.20 512.41 1261.67 506.95
  C 1256.68 502.77 1253.94 496.49 1251.70 490.60
  C 1248.61 482.45 1242.81 476.85 1233.76 476.02
  C 1229.71 475.64 1225.92 476.64 1221.91 477.98
  A 0.53 0.53 0.0 0 1 1221.25 477.30
  Z
  M 1386.82 596.06
  Q 1386.70 595.58 1386.79 595.01
  Q 1389.96 574.51 1373.96 562.28
  Q 1373.63 562.03 1371.75 560.96
  A 0.65 0.65 0.0 0 0 1370.81 561.74
  C 1372.01 565.25 1376.04 570.29 1377.49 574.21
  Q 1380.64 582.74 1380.37 591.33
  C 1380.05 601.42 1374.64 608.58 1366.28 613.52
  Q 1365.12 614.20 1363.48 616.48
  A 1.42 1.40 53.3 0 0 1363.30 617.76
  Q 1363.92 619.57 1366.07 620.53
  C 1375.10 624.55 1383.78 630.49 1382.30 641.77
  C 1381.05 651.29 1374.50 659.32 1366.81 665.03
  C 1365.12 666.28 1363.67 668.09 1365.85 669.70
  Q 1369.53 672.42 1371.70 674.48
  C 1380.20 682.60 1376.06 695.07 1367.77 701.26
  Q 1362.32 705.34 1355.62 705.81
  C 1352.50 706.04 1350.37 704.96 1347.72 703.33
  C 1345.35 701.86 1343.29 703.06 1341.83 705.56
  Q 1340.67 707.56 1338.54 710.26
  C 1332.41 718.06 1320.90 723.19 1311.65 718.34
  C 1302.90 713.74 1301.19 704.78 1299.62 695.54
  A 1.69 1.68 86.7 0 0 1298.06 694.14
  Q 1297.45 694.10 1297.11 694.35
  C 1291.63 698.49 1285.85 701.80 1278.82 699.87
  A 5.49 5.46 79.3 0 1 1275.86 697.84
  C 1274.58 696.10 1272.42 692.26 1270.17 692.34
  A 1.76 1.76 0.0 0 0 1268.54 693.69
  C 1267.25 699.16 1271.59 704.56 1276.34 706.66
  C 1281.63 709.00 1287.38 707.04 1292.68 704.16
  A 1.28 1.28 0.0 0 1 1294.54 705.01
  C 1296.26 712.89 1300.76 720.69 1308.02 724.46
  C 1321.97 731.69 1338.20 724.18 1346.06 711.54
  A 1.08 1.08 0.0 0 1 1347.30 711.08
  Q 1364.87 716.52 1376.65 702.60
  C 1384.93 692.81 1386.25 677.43 1375.42 668.81
  A 1.00 0.99 44.3 0 1 1375.40 667.27
  C 1391.30 653.79 1395.36 629.18 1374.68 617.37
  A 1.20 1.20 0.0 0 1 1374.53 615.39
  Q 1380.01 611.01 1384.18 604.99
  Q 1384.80 604.09 1386.93 603.40
  C 1400.50 599.00 1406.24 585.10 1407.01 571.49
  C 1407.64 560.42 1408.10 553.51 1406.82 544.88
  Q 1406.08 539.88 1405.17 534.72
  Q 1404.65 531.71 1405.55 530.36
  Q 1413.74 518.11 1414.44 505.26
  Q 1415.81 480.23 1393.77 469.73
  A 0.86 0.86 0.0 0 0 1392.54 470.44
  Q 1392.54 470.47 1392.88 470.94
  Q 1401.56 482.70 1401.67 482.86
  C 1409.17 494.04 1409.48 507.18 1403.86 519.11
  Q 1402.26 522.49 1398.60 528.09
  Q 1397.19 530.24 1397.68 532.28
  C 1401.18 547.10 1402.65 560.32 1400.01 575.16
  C 1398.40 584.16 1394.67 591.47 1387.41 596.29
  A 0.39 0.39 0.0 0 1 1386.82 596.06
  Z"
/>
<path fill="#6e3a25" d="
  M 536.92 754.30
  Q 543.02 759.02 550.03 757.37
  A 1.11 1.10 -8.2 0 1 551.38 758.37
  C 552.59 776.07 571.92 785.51 587.26 787.50
  C 598.95 789.02 609.84 787.93 623.45 785.40
  C 637.77 782.74 646.40 781.25 655.04 779.17
  C 662.18 777.45 668.90 776.89 676.33 777.19
  Q 677.45 777.23 678.75 776.13
  C 681.44 773.85 680.79 768.14 679.47 765.50
  Q 677.37 761.28 674.46 758.27
  Q 665.11 748.59 658.46 742.63
  Q 652.28 737.10 644.02 732.59
  Q 621.22 720.17 596.28 718.38
  Q 568.91 716.42 551.51 736.73
  Q 549.22 739.39 545.13 744.39
  Q 541.89 748.34 536.59 749.21
  A 0.53 0.52 -11.1 0 1 535.99 748.81
  Q 534.97 744.52 534.55 741.44
  Q 532.44 725.82 527.26 700.77
  Q 524.95 689.60 524.87 679.01
  Q 524.84 675.97 525.31 673.02
  A 4.25 4.23 -25.8 0 1 525.81 671.59
  C 528.11 667.55 530.15 662.62 532.20 659.83
  C 544.47 643.19 567.96 645.84 585.31 650.22
  C 597.63 653.33 607.65 655.85 619.17 659.16
  Q 634.97 663.71 646.72 666.31
  C 652.11 667.50 659.34 668.39 665.38 666.87
  C 666.75 666.52 667.87 664.33 668.13 662.79
  Q 669.25 656.29 666.26 648.96
  C 662.26 639.18 656.35 627.58 648.14 622.01
  Q 642.25 618.01 635.75 615.82
  Q 611.86 607.77 584.75 604.89
  C 567.52 603.06 548.93 606.19 536.72 619.56
  A 0.66 0.66 0.0 0 1 535.58 619.04
  C 536.00 615.38 537.29 610.69 537.71 606.65
  Q 540.07 583.65 544.00 552.48
  Q 546.38 533.60 549.46 515.99
  Q 550.96 507.40 558.62 478.12
  Q 562.79 462.18 569.62 444.64
  Q 577.06 425.54 584.22 412.59
  Q 599.12 385.68 614.58 366.32
  Q 621.40 357.77 633.47 350.46
  Q 646.21 342.73 667.05 330.56
  Q 674.41 326.27 681.86 323.81
  C 688.68 321.56 697.62 320.96 704.06 319.81
  Q 707.92 319.13 715.78 315.76
  Q 725.60 311.54 734.37 306.87
  Q 741.91 302.85 745.72 302.26
  C 753.26 301.09 760.71 302.56 767.91 304.49
  C 777.99 307.19 788.63 307.47 798.92 306.34
  C 807.12 305.44 816.09 302.13 824.80 300.09
  Q 840.23 296.48 854.68 299.84
  C 860.97 301.30 866.64 304.20 874.74 307.76
  C 886.47 312.93 899.39 312.68 912.17 310.77
  C 917.58 309.97 920.37 310.90 925.07 313.22
  Q 925.25 313.31 935.76 319.27
  Q 945.17 324.61 956.50 325.24
  Q 970.04 325.98 973.21 326.07
  C 978.47 326.20 983.54 330.91 989.69 335.54
  Q 1006.07 347.87 1025.73 352.06
  C 1046.03 356.40 1066.24 361.14 1083.53 369.22
  Q 1092.79 373.55 1107.37 381.37
  Q 1115.78 385.88 1121.35 390.17
  Q 1128.69 395.83 1131.20 405.61
  Q 1134.26 417.57 1137.62 436.86
  Q 1140.65 454.32 1138.17 468.53
  C 1135.49 483.89 1133.31 493.83 1132.77 505.75
  C 1131.71 528.76 1140.45 552.18 1157.50 567.09
  C 1169.02 577.18 1187.61 582.88 1193.66 597.08
  Q 1197.72 606.59 1199.23 609.74
  Q 1199.72 610.76 1203.44 616.31
  C 1208.14 623.33 1217.25 631.84 1221.65 639.41
  Q 1226.04 646.96 1228.47 655.56
  Q 1235.56 680.65 1232.71 706.51
  Q 1231.79 714.78 1230.18 725.94
  Q 1228.78 735.59 1231.24 747.04
  C 1235.55 767.12 1238.12 777.26 1239.03 790.75
  Q 1239.91 803.65 1240.47 810.25
  C 1241.10 817.72 1244.10 825.08 1252.03 826.71
  C 1260.41 828.43 1265.59 822.45 1269.53 816.01
  Q 1274.66 807.61 1282.15 793.90
  C 1287.30 784.46 1296.06 772.08 1304.96 767.01
  Q 1313.76 762.00 1323.77 761.75
  A 0.50 0.50 0.0 0 1 1324.14 762.59
  C 1319.98 766.97 1316.31 771.30 1315.00 777.26
  A 0.82 0.82 0.0 0 0 1316.21 778.14
  C 1322.93 774.22 1329.48 771.51 1335.75 766.86
  C 1346.84 758.62 1358.44 751.61 1371.47 745.99
  Q 1387.71 738.98 1403.77 741.92
  C 1418.66 744.64 1429.71 759.37 1434.09 773.39
  Q 1439.20 789.72 1440.50 801.77
  C 1442.09 816.48 1443.40 827.02 1440.83 840.98
  Q 1438.53 853.45 1437.85 856.86
  C 1434.69 872.77 1429.84 887.34 1424.10 902.99
  Q 1416.81 922.85 1405.64 943.40
  Q 1398.13 957.22 1387.32 968.31
  Q 1374.09 981.87 1358.81 991.82
  Q 1356.91 993.07 1355.61 993.93
  Q 1350.60 997.26 1343.75 1002.68
  C 1339.83 1005.78 1336.82 1007.49 1331.74 1010.73
  Q 1315.98 1020.78 1296.76 1020.19
  Q 1279.34 1019.65 1268.21 1007.52
  Q 1259.59 998.13 1255.69 984.99
  C 1254.63 981.43 1253.64 979.07 1251.15 977.13
  A 1.95 1.94 35.8 0 0 1248.33 977.58
  Q 1246.74 979.96 1245.66 982.92
  C 1234.13 1014.54 1222.25 1045.28 1207.37 1076.41
  Q 1192.88 1106.73 1171.25 1133.48
  Q 1166.81 1138.98 1159.17 1146.49
  Q 1148.20 1157.28 1146.45 1158.95
  Q 1138.83 1166.24 1124.52 1177.28
  C 1111.57 1187.29 1097.48 1197.36 1084.01 1205.56
  C 1070.42 1213.84 1059.26 1221.46 1046.18 1228.88
  Q 1017.09 1245.38 999.42 1254.65
  Q 977.15 1266.32 949.05 1279.53
  Q 928.70 1289.10 905.43 1298.27
  C 882.55 1307.28 859.62 1313.83 837.13 1317.85
  C 815.46 1321.72 791.44 1322.70 769.91 1318.83
  C 747.50 1314.82 727.09 1305.31 710.72 1289.31
  C 704.89 1283.61 699.27 1276.66 693.61 1269.12
  C 683.24 1255.34 667.22 1232.16 653.34 1215.86
  Q 629.81 1188.21 602.89 1162.66
  C 596.35 1156.46 590.17 1147.05 585.23 1138.25
  Q 565.86 1103.77 562.31 1096.95
  Q 546.49 1066.57 535.50 1032.27
  Q 523.53 994.92 524.40 956.07
  A 3.96 3.95 -21.2 0 1 525.62 953.31
  C 532.05 947.20 540.05 939.39 544.81 932.01
  C 554.23 917.41 560.62 904.90 560.57 887.76
  C 560.51 870.40 550.10 849.36 529.21 853.17
  A 0.50 0.50 0.0 0 1 528.63 852.60
  Q 534.45 814.27 536.83 774.97
  Q 537.46 764.63 536.40 754.60
  A 0.33 0.32 -74.4 0 1 536.92 754.30
  Z
  M 974.88 639.28
  Q 993.83 641.15 1005.62 644.18
  C 1035.01 651.73 1063.40 663.39 1088.16 680.17
  Q 1095.57 685.20 1097.82 686.20
  Q 1099.18 686.81 1100.14 686.52
  A 1.82 1.64 76.0 0 0 1101.25 684.44
  Q 1100.62 681.54 1098.71 678.31
  C 1087.68 659.71 1072.53 644.74 1054.53 630.24
  Q 1029.44 610.04 1002.46 600.28
  Q 988.89 595.37 974.26 595.18
  C 959.28 594.99 945.43 595.95 928.07 596.96
  C 902.21 598.46 875.57 603.41 851.98 610.22
  Q 844.06 612.51 836.30 615.79
  C 819.34 622.95 810.65 638.11 818.49 656.07
  Q 823.34 667.16 835.73 667.09
  Q 846.78 667.03 859.70 663.75
  Q 861.01 663.42 902.77 651.55
  Q 922.91 645.82 932.66 643.95
  Q 949.06 640.81 963.21 639.54
  C 965.64 639.32 968.23 639.48 969.88 639.29
  Q 972.22 639.02 974.88 639.28
  Z
  M 698.60 749.10
  C 699.49 764.59 696.54 779.85 691.67 794.57
  Q 688.13 805.24 685.43 813.74
  Q 685.14 814.64 685.63 815.04
  A 0.28 0.27 37.5 0 0 686.03 814.99
  Q 694.91 802.11 698.91 788.79
  C 702.47 776.96 704.70 762.54 703.91 748.80
  C 703.13 735.06 699.29 720.99 694.41 709.63
  Q 688.92 696.86 678.64 685.07
  A 0.28 0.27 -44.0 0 0 678.24 685.06
  Q 677.79 685.52 678.18 686.38
  Q 681.83 694.52 686.56 704.72
  C 693.07 718.79 697.72 733.62 698.60 749.10
  Z
  M 1055.05 740.10
  Q 1052.87 737.84 1048.36 735.00
  Q 1039.94 729.73 1027.62 722.66
  C 1019.31 717.89 1011.64 714.67 1003.00 711.03
  Q 977.62 700.34 949.92 697.09
  C 935.06 695.35 921.92 696.04 907.27 698.54
  C 897.30 700.23 887.65 704.89 879.12 710.25
  Q 871.24 715.21 865.30 721.83
  C 857.72 730.29 851.39 739.11 848.31 749.43
  A 0.66 0.65 69.5 0 0 849.49 749.97
  Q 850.57 748.24 852.21 746.46
  Q 858.04 740.12 861.98 734.23
  C 864.57 730.36 870.21 725.48 875.91 720.25
  Q 885.09 711.83 895.97 708.49
  C 908.48 704.66 921.82 701.81 935.87 702.43
  Q 954.19 703.23 969.80 707.21
  Q 980.37 709.90 986.87 711.67
  Q 990.15 712.56 992.65 713.47
  Q 993.94 713.93 998.20 715.91
  Q 1007.70 720.31 1016.03 724.14
  Q 1027.09 729.23 1037.92 734.78
  Q 1045.10 738.46 1052.33 740.74
  Q 1053.95 741.25 1054.90 740.85
  A 0.47 0.46 56.6 0 0 1055.05 740.10
  Z
  M 675.31 743.32
  C 671.75 735.94 665.80 729.69 660.32 724.41
  Q 655.75 720.02 649.80 716.08
  C 629.74 702.82 604.96 697.10 581.08 701.27
  C 563.15 704.39 546.46 716.19 542.24 734.73
  Q 541.43 738.27 541.90 742.05
  A 0.53 0.53 0.0 0 0 542.82 742.35
  Q 544.59 740.45 545.67 738.19
  Q 549.55 730.12 552.73 725.76
  C 568.69 703.86 597.98 703.28 621.99 709.33
  C 635.88 712.82 647.77 720.89 658.89 730.13
  Q 660.39 731.38 670.74 740.76
  Q 672.96 742.78 674.73 743.85
  A 0.41 0.41 0.0 0 0 675.31 743.32
  Z
  M 1055.79 758.66
  Q 1028.84 750.20 1002.99 737.82
  Q 999.68 736.24 990.76 733.48
  C 981.82 730.72 970.36 725.39 963.49 723.26
  Q 946.27 717.91 928.01 716.46
  C 917.28 715.61 908.25 717.32 898.45 721.98
  Q 897.50 722.44 886.92 727.19
  C 878.87 730.81 874.78 736.01 867.05 744.36
  C 861.68 750.16 856.69 756.77 853.06 762.79
  C 850.51 766.99 848.00 772.95 852.95 776.35
  Q 854.40 777.33 858.11 777.00
  C 871.45 775.80 881.63 778.66 896.04 781.67
  Q 898.54 782.19 905.94 783.97
  C 916.33 786.46 926.20 786.94 938.56 787.76
  C 947.54 788.35 953.70 787.77 962.27 786.30
  Q 979.34 783.36 984.62 781.88
  C 999.49 777.72 1014.54 771.50 1027.71 762.27
  A 5.05 5.03 -58.8 0 1 1031.22 761.40
  Q 1043.51 762.93 1055.76 759.77
  A 0.58 0.58 0.0 0 0 1055.79 758.66
  Z
  M 1413.96 875.14
  A 0.15 0.15 0.0 0 1 1413.67 875.09
  C 1413.53 866.01 1413.62 854.81 1412.44 845.81
  Q 1410.17 828.35 1403.07 811.40
  Q 1401.52 807.71 1399.47 805.41
  A 0.65 0.64 -68.9 0 0 1398.35 805.91
  C 1399.24 814.48 1402.42 824.15 1403.53 829.48
  C 1406.38 843.05 1406.63 856.64 1406.67 870.55
  Q 1406.68 876.71 1406.06 882.46
  Q 1404.91 892.99 1404.58 894.30
  Q 1399.92 912.92 1395.33 921.61
  Q 1386.50 938.35 1369.84 949.58
  Q 1364.06 953.47 1358.51 957.09
  C 1355.45 959.07 1353.10 961.36 1350.35 963.72
  A 0.65 0.65 0.0 0 0 1350.82 964.86
  Q 1360.92 964.17 1369.96 958.41
  Q 1377.48 953.62 1385.02 946.75
  C 1395.05 937.62 1402.83 924.94 1407.99 912.52
  Q 1415.17 895.24 1417.79 886.56
  Q 1422.72 870.28 1427.39 848.95
  C 1431.30 831.12 1431.30 811.21 1426.41 793.15
  C 1422.91 780.25 1412.48 768.16 1398.23 768.64
  Q 1382.21 769.18 1368.73 777.96
  C 1355.57 786.53 1344.69 796.69 1335.65 810.09
  C 1328.91 820.10 1323.77 828.17 1319.35 838.64
  Q 1315.59 847.57 1314.72 850.76
  Q 1311.39 863.01 1316.64 875.80
  A 0.56 0.56 0.0 0 0 1317.68 875.79
  Q 1319.94 870.14 1321.51 863.74
  Q 1323.60 855.24 1325.02 851.96
  Q 1328.53 843.82 1330.31 839.63
  A 0.57 0.57 0.0 0 1 1331.13 839.36
  Q 1350.55 851.18 1351.96 852.03
  C 1361.51 857.82 1368.05 866.67 1372.06 876.71
  C 1376.30 887.35 1374.33 898.11 1370.26 908.78
  Q 1367.07 917.13 1360.61 922.80
  C 1351.42 930.86 1339.83 926.52 1331.04 925.81
  C 1323.41 925.20 1318.18 926.99 1312.30 932.10
  C 1307.44 936.32 1304.86 938.97 1299.10 941.84
  C 1294.40 944.17 1286.06 945.47 1283.69 939.43
  C 1281.33 933.41 1293.63 921.67 1298.09 917.83
  Q 1303.63 913.07 1305.97 910.24
  C 1314.91 899.47 1310.16 884.25 1306.81 872.43
  C 1304.89 865.63 1304.22 861.24 1302.64 853.38
  Q 1302.26 851.51 1301.19 848.66
  A 0.69 0.68 45.8 0 0 1299.91 848.64
  Q 1298.81 851.39 1298.48 854.49
  C 1297.19 866.58 1300.45 876.62 1303.75 889.00
  Q 1306.50 899.31 1298.78 907.09
  C 1291.28 914.65 1281.04 922.33 1277.42 933.09
  C 1275.58 938.58 1277.82 944.65 1282.78 947.85
  C 1290.01 952.52 1301.44 950.22 1307.97 945.89
  C 1313.95 941.91 1318.55 934.45 1325.50 932.48
  Q 1328.16 931.73 1332.48 932.64
  C 1339.11 934.04 1346.85 934.79 1353.36 932.80
  C 1360.42 930.65 1366.84 924.81 1371.45 919.43
  C 1375.83 914.33 1377.11 905.90 1377.23 899.24
  Q 1377.41 888.71 1375.08 872.98
  C 1372.85 857.94 1363.08 846.83 1350.57 838.66
  Q 1340.94 832.37 1335.14 828.10
  A 1.23 1.23 0.0 0 1 1334.77 826.57
  C 1339.88 816.13 1347.65 806.75 1355.80 798.32
  Q 1366.68 787.07 1380.32 780.59
  C 1386.68 777.56 1397.02 774.61 1403.68 777.23
  C 1410.17 779.78 1414.42 783.88 1417.42 790.51
  Q 1423.61 804.19 1422.82 820.28
  Q 1421.72 842.55 1417.84 861.64
  Q 1416.38 868.81 1413.96 875.14
  Z
  M 571.81 812.05
  Q 572.20 812.50 572.92 812.84
  Q 582.33 817.24 594.01 816.17
  Q 615.91 814.17 636.12 802.82
  Q 649.03 795.58 655.01 790.75
  Q 659.84 786.86 660.97 785.57
  A 0.57 0.57 0.0 0 0 660.33 784.67
  C 653.94 787.28 647.22 791.03 638.30 795.80
  Q 635.21 797.46 623.47 802.92
  Q 614.54 807.08 608.15 808.80
  Q 589.89 813.72 571.96 811.76
  A 0.18 0.17 72.4 0 0 571.81 812.05
  Z
  M 988.88 811.98
  Q 988.63 811.83 988.23 811.82
  C 972.39 811.19 961.32 811.31 950.45 809.68
  Q 931.94 806.91 915.87 801.15
  Q 900.69 795.70 896.80 794.41
  C 890.76 792.41 885.15 788.77 878.84 787.80
  A 0.71 0.71 0.0 0 0 878.22 788.99
  Q 879.88 790.71 882.30 791.96
  C 891.22 796.57 897.46 800.35 905.59 803.40
  Q 927.00 811.42 949.01 814.46
  C 962.41 816.32 975.80 816.48 988.82 812.47
  A 0.27 0.27 0.0 0 0 988.88 811.98
  Z
  M 660.03 921.35
  Q 653.91 902.86 658.94 883.46
  C 661.53 873.48 667.26 865.78 673.32 857.06
  Q 674.27 855.69 675.33 853.43
  A 0.61 0.61 0.0 0 0 674.58 852.60
  Q 672.86 853.20 671.09 854.58
  C 656.57 865.86 648.61 884.20 651.33 902.51
  Q 652.96 913.54 659.12 921.72
  Q 659.35 922.03 659.67 921.99
  A 0.50 0.45 77.2 0 0 660.03 921.35
  Z
  M 774.26 973.69
  Q 774.33 973.97 774.67 974.13
  Q 779.34 976.35 786.57 978.54
  C 799.18 982.37 810.91 980.26 822.61 974.84
  C 840.13 966.70 845.93 944.70 843.41 926.87
  Q 842.29 918.94 838.40 910.55
  C 834.01 901.09 827.92 890.83 817.04 888.32
  A 0.42 0.41 76.7 0 0 816.63 888.99
  C 825.75 899.72 833.26 911.00 836.26 925.05
  Q 840.21 943.47 830.00 958.15
  C 817.07 976.72 794.59 975.41 774.97 972.81
  A 0.70 0.66 85.9 0 0 774.26 973.69
  Z
  M 644.53 890.25
  A 0.58 0.57 -89.7 0 0 643.77 889.48
  Q 637.75 892.30 633.52 898.26
  C 625.68 909.31 620.36 919.69 621.76 933.72
  Q 623.91 955.24 641.28 966.99
  C 649.36 972.46 661.48 977.03 671.29 974.65
  A 0.79 0.78 57.8 0 0 671.60 973.28
  C 667.76 970.16 659.83 968.22 657.58 967.41
  C 639.50 960.89 627.16 944.83 629.16 925.19
  C 630.56 911.44 639.17 901.46 644.53 890.25
  Z
  M 739.93 967.41
  C 738.44 966.88 731.98 968.22 727.28 968.89
  C 718.18 970.20 709.99 969.15 702.38 964.98
  Q 699.41 963.36 691.97 956.06
  Q 683.52 947.78 672.20 937.71
  Q 662.75 929.30 650.76 933.02
  C 642.78 935.49 641.55 943.22 647.13 948.79
  Q 651.09 952.75 655.55 953.85
  Q 669.33 957.27 681.30 960.49
  C 683.60 961.11 686.56 962.79 688.67 964.32
  Q 696.19 969.76 701.39 972.62
  Q 708.39 976.47 717.72 976.25
  C 726.01 976.07 734.65 973.79 740.10 968.14
  A 0.45 0.44 -58.3 0 0 739.93 967.41
  Z
  M 728.85 954.47
  C 731.62 956.16 736.67 954.75 740.06 953.79
  C 745.50 952.24 751.85 952.61 756.76 954.50
  Q 767.73 958.71 771.27 959.72
  C 778.09 961.66 792.32 961.96 795.24 953.26
  C 796.72 948.88 793.39 944.65 789.78 941.93
  Q 775.82 931.40 758.00 933.01
  Q 741.44 934.51 730.06 946.81
  C 728.48 948.52 726.18 952.83 728.85 954.47
  Z
  M 725.68 994.65
  C 727.30 1002.90 726.53 1011.93 724.77 1020.33
  Q 722.08 1033.12 709.96 1036.92
  C 704.63 1038.60 698.60 1037.56 693.87 1035.10
  Q 689.83 1032.99 686.65 1032.23
  A 0.95 0.94 79.7 0 0 685.65 1033.68
  C 688.68 1038.16 695.39 1041.32 700.28 1042.95
  C 713.24 1047.29 725.50 1035.33 728.78 1023.76
  Q 732.95 1009.06 726.66 994.35
  A 0.52 0.51 27.9 0 0 725.68 994.65
  Z
  M 628.05 1106.54
  Q 626.50 1110.48 629.01 1113.80
  Q 628.09 1113.76 628.24 1114.76
  Q 630.93 1131.96 640.62 1145.37
  C 647.64 1155.09 655.76 1163.47 666.97 1168.76
  Q 681.78 1175.75 697.87 1178.59
  Q 720.02 1182.51 746.23 1182.03
  Q 779.87 1181.42 812.59 1164.13
  Q 814.63 1163.05 831.54 1152.81
  C 838.76 1148.44 846.00 1143.19 850.76 1138.51
  Q 856.24 1133.13 860.21 1124.18
  L 866.25 1114.78
  Q 876.08 1114.68 886.49 1113.06
  Q 889.40 1112.61 892.55 1111.22
  A 1.79 1.79 0.0 0 0 893.62 1109.61
  Q 893.66 1105.59 892.07 1102.30
  A 2.30 2.30 0.0 0 0 889.84 1101.01
  L 879.75 1101.72
  A 11.03 10.80 -41.0 0 1 876.92 1101.55
  Q 864.82 1099.20 854.01 1093.99
  Q 831.90 1083.33 815.34 1074.01
  Q 804.63 1067.98 802.04 1066.70
  C 791.83 1061.68 782.29 1054.87 772.22 1051.09
  Q 762.46 1047.42 753.24 1045.53
  Q 742.66 1043.37 732.13 1046.11
  Q 722.08 1048.73 712.71 1052.47
  Q 711.39 1052.99 706.23 1054.23
  C 702.80 1055.05 699.17 1053.97 696.49 1052.77
  Q 688.37 1049.13 682.78 1046.52
  C 671.26 1041.17 656.73 1043.60 646.19 1050.80
  Q 629.52 1062.17 619.32 1080.37
  Q 616.81 1084.86 614.10 1090.88
  A 0.57 0.56 -65.0 0 1 613.34 1091.16
  L 609.86 1089.53
  A 1.06 1.05 20.1 0 0 608.40 1090.20
  Q 605.82 1099.45 614.73 1102.75
  Q 621.49 1105.26 628.05 1106.54
  Z
  M 792.94 1216.10
  A 0.88 0.88 0.0 0 0 793.51 1214.53
  C 787.92 1210.06 780.58 1207.40 773.55 1205.16
  Q 745.83 1196.34 716.57 1198.39
  Q 704.37 1199.24 691.41 1205.24
  A 2.71 2.69 -10.1 0 0 689.86 1207.44
  L 689.81 1208.04
  A 1.53 1.53 0.0 0 0 691.82 1209.63
  Q 717.37 1201.01 743.25 1204.31
  Q 764.74 1207.05 787.68 1215.08
  Q 790.37 1216.03 792.94 1216.10
  Z"
/>
<path fill="#3f2317" d="
  M 1088.39 672.96
  A 0.25 0.24 3.0 0 1 1088.03 673.28
  C 1084.43 670.49 1081.18 668.18 1077.22 666.15
  Q 1058.77 656.68 1048.87 652.16
  Q 1027.66 642.46 999.73 636.27
  Q 970.59 629.82 940.78 635.57
  C 915.45 640.46 895.16 646.44 864.23 655.69
  Q 851.21 659.58 838.13 660.60
  C 832.67 661.03 828.12 660.30 825.36 654.94
  C 819.90 644.37 822.68 630.62 833.30 624.31
  C 839.69 620.52 846.66 618.33 853.13 616.65
  Q 872.60 611.60 894.73 607.53
  Q 908.19 605.05 922.16 604.06
  C 944.65 602.46 961.58 601.28 980.50 602.27
  Q 993.52 602.94 1007.12 608.94
  Q 1039.01 623.00 1065.72 647.52
  C 1071.27 652.61 1078.69 661.02 1083.37 666.37
  Q 1086.59 670.05 1088.39 672.96
  Z"
/>
<path fill="#3f2317" d="
  M 526.85 654.69
  Q 527.85 649.15 529.79 642.31
  Q 532.11 634.14 536.34 629.10
  C 544.46 619.45 555.46 613.20 568.28 612.04
  Q 575.49 611.39 587.11 612.25
  C 602.01 613.35 620.22 616.78 635.40 622.33
  Q 643.65 625.35 648.15 630.92
  Q 652.35 636.12 656.60 643.29
  C 659.52 648.23 662.73 654.48 662.40 659.83
  A 1.92 1.91 89.7 0 1 660.64 661.62
  C 657.06 661.91 652.28 661.12 648.72 660.21
  Q 632.87 656.20 591.82 645.42
  Q 578.76 641.99 566.81 640.86
  Q 543.20 638.62 527.22 654.88
  A 0.22 0.22 0.0 0 1 526.85 654.69
  Z"
/>
<path fill="#3f2317" d="
  M 904.26 738.88
  Q 904.39 743.19 905.74 745.95
  Q 905.81 749.62 906.78 753.42
  Q 909.13 762.54 917.76 765.47
  Q 923.82 767.54 929.10 764.40
  C 941.25 757.20 944.90 741.27 932.58 732.12
  C 930.19 730.35 926.22 729.59 923.76 728.12
  A 0.26 0.26 0.0 0 1 923.86 727.64
  Q 929.20 726.79 934.17 727.37
  Q 943.11 728.41 946.23 729.01
  C 950.71 729.86 951.37 734.09 952.10 738.59
  Q 953.67 748.30 950.68 759.70
  C 950.16 761.67 948.73 764.59 945.86 763.88
  A 1.43 1.42 -75.9 0 0 944.14 764.92
  C 942.08 773.15 933.49 775.61 925.70 776.11
  C 914.28 776.83 903.79 774.13 899.46 762.38
  C 897.78 757.80 898.17 751.89 898.36 746.54
  A 0.43 0.43 0.0 0 0 897.97 746.09
  L 897.63 746.06
  A 0.37 0.36 -84.7 0 0 897.23 746.40
  L 896.39 755.63
  A 0.73 0.73 0.0 0 1 895.03 755.94
  C 891.65 750.27 892.08 744.42 894.37 738.10
  C 896.36 732.61 901.48 730.30 906.71 730.26
  A 0.49 0.48 -68.3 0 1 907.06 731.08
  Q 902.36 736.00 904.26 738.88
  Z"
/>
<path fill="#3f2317" d="
  M 593.01 729.15
  Q 606.12 727.52 619.08 731.01
  C 622.46 731.93 623.05 734.85 623.71 738.34
  Q 626.35 752.15 621.47 763.74
  Q 617.91 772.17 608.61 775.89
  Q 607.24 776.44 600.27 776.95
  C 591.39 777.61 584.26 775.01 580.11 766.70
  C 578.17 762.80 579.66 754.59 580.50 750.06
  Q 580.58 749.67 580.94 749.31
  A 0.62 0.61 -31.5 0 1 581.95 749.55
  C 582.78 752.03 583.34 755.69 584.78 758.20
  Q 588.77 765.14 596.66 767.07
  C 608.29 769.90 619.07 755.49 614.69 744.61
  Q 608.68 729.70 593.03 729.43
  A 0.14 0.14 0.0 0 1 593.01 729.15
  Z"
/>
<path fill="#3f2317" d="
  M 586.75 730.47
  A 0.35 0.35 0.0 0 1 586.93 731.14
  C 581.10 734.06 578.83 738.47 578.44 744.65
  Q 578.17 749.10 577.82 750.75
  C 577.09 754.19 577.68 758.25 577.08 761.40
  A 0.66 0.66 0.0 0 1 575.92 761.70
  Q 574.62 760.14 574.01 758.20
  Q 571.43 750.02 573.93 741.34
  C 574.63 738.88 574.95 735.64 577.44 733.93
  Q 582.17 730.70 586.75 730.47
  Z"
/>
<path fill="#fffffd" d="
  M 1018.31 758.52
  A 0.30 0.30 0.0 0 1 1018.34 759.05
  C 1000.01 770.70 976.74 778.06 957.23 780.03
  Q 947.05 781.06 935.31 781.13
  Q 934.50 781.13 934.07 780.94
  A 0.29 0.29 0.0 0 1 934.12 780.40
  C 945.19 777.63 953.02 767.40 956.79 757.02
  Q 961.02 745.40 957.15 733.50
  A 0.30 0.30 0.0 0 1 957.53 733.12
  Q 978.10 739.74 986.05 743.44
  Q 1009.01 754.15 1018.31 758.52
  Z"
/>
<path fill="#fffffd" d="
  M 905.74 745.95
  Q 904.39 743.19 904.26 738.88
  Q 906.34 732.23 913.24 733.24
  C 924.68 734.92 918.25 754.24 905.74 745.95
  Z"
/>
<ellipse fill="#fffffd" cx="0.00" cy="0.00" transform="translate(589.00,741.99) rotate(-66.7)" rx="7.27" ry="6.79"/>
<path fill="#fffffd" d="
  M 613.08 780.95
  A 0.23 0.23 0.0 0 1 613.00 780.52
  Q 626.02 773.10 629.60 759.27
  C 631.44 752.18 631.77 743.04 629.06 735.89
  A 0.23 0.23 0.0 0 1 629.37 735.60
  Q 635.36 738.36 643.52 742.50
  C 651.29 746.45 660.14 753.53 666.92 760.09
  Q 671.41 764.43 674.76 769.65
  A 0.33 0.33 0.0 0 1 674.51 770.16
  Q 659.16 771.52 643.00 775.00
  Q 622.10 779.48 614.66 780.89
  Q 613.79 781.05 613.08 780.95
  Z"
/>
<path fill="#fffffd" d="
  M 903.92 776.45
  A 0.60 0.60 0.0 0 1 903.16 777.25
  Q 889.63 771.96 875.37 770.23
  C 869.92 769.57 864.89 769.90 857.84 770.34
  A 0.81 0.81 0.0 0 1 857.16 769.01
  Q 866.79 757.31 879.85 745.01
  C 883.12 741.93 886.36 739.77 889.50 737.11
  A 0.28 0.28 0.0 0 1 889.95 737.40
  Q 887.65 746.09 890.09 755.22
  C 892.42 763.90 895.85 770.38 903.45 775.86
  Q 903.75 776.08 903.92 776.45
  Z"
/>
<path fill="#fffffd" d="
  M 589.02 781.00
  A 0.32 0.32 0.0 0 1 588.79 781.57
  Q 576.44 780.08 566.92 772.92
  C 560.36 767.99 556.44 759.77 559.72 751.72
  Q 562.66 744.49 568.32 739.89
  A 0.51 0.51 0.0 0 1 569.14 740.39
  C 566.29 754.67 571.36 770.95 584.39 778.61
  C 585.96 779.54 587.67 780.04 589.02 781.00
  Z"
/>
<path fill="#c0623f" d="
  M 520.84 784.23
  L 509.70 784.33
  Q 515.31 782.86 520.84 784.23
  Z"
/>
<path fill="#6e3a25" d="
  M 481.34 831.30
  A 0.60 0.60 0.0 0 1 480.94 830.40
  C 487.01 820.29 493.59 811.77 502.71 800.20
  C 504.62 797.77 508.15 794.55 511.40 795.19
  A 0.87 0.86 -85.1 0 1 512.10 796.03
  Q 512.12 798.09 511.69 799.42
  C 507.37 812.47 497.50 826.09 484.22 830.95
  Q 482.59 831.55 481.34 831.30
  Z"
/>
<path fill="#6e3a25" d="
  M 568.66 1146.10
  Q 566.64 1145.59 564.77 1145.60
  Q 544.78 1145.66 532.28 1160.46
  Q 530.31 1162.80 529.56 1165.01
  A 0.98 0.85 -73.8 0 0 530.13 1166.25
  Q 530.51 1166.33 530.95 1165.95
  C 538.51 1159.36 544.98 1155.15 553.76 1153.04
  Q 558.69 1151.86 563.59 1151.07
  Q 569.66 1150.08 574.00 1153.49
  Q 583.04 1160.60 585.33 1162.67
  Q 615.54 1189.99 642.21 1220.05
  Q 654.53 1233.94 661.47 1243.53
  Q 680.31 1269.54 683.24 1273.38
  Q 693.41 1286.75 709.34 1302.68
  C 713.22 1306.57 718.69 1310.54 721.63 1313.39
  A 15.30 5.64 46.3 0 1 723.13 1314.95
  Q 724.72 1316.69 732.96 1329.09
  Q 742.75 1343.82 745.82 1359.35
  Q 749.30 1376.91 747.68 1394.43
  A 0.57 0.57 0.0 0 0 748.67 1394.87
  C 752.35 1390.92 753.07 1384.57 753.48 1378.99
  C 754.93 1359.01 749.74 1338.93 737.30 1322.74
  Q 736.81 1322.11 736.40 1321.14
  A 0.25 0.24 -0.4 0 1 736.72 1320.82
  Q 757.52 1329.41 779.44 1332.08
  C 785.57 1332.83 791.89 1332.83 798.70 1332.98
  A 2.04 2.04 0.0 0 1 800.64 1334.57
  C 804.27 1350.86 803.25 1367.45 798.99 1383.15
  Q 796.52 1392.24 791.46 1401.21
  C 788.12 1407.13 783.20 1414.93 778.31 1421.81
  Q 770.41 1432.95 769.19 1434.94
  Q 764.53 1442.58 760.84 1450.60
  Q 759.18 1454.20 753.79 1471.04
  C 751.20 1479.12 745.10 1492.04 742.29 1499.17
  Q 732.38 1524.22 720.93 1547.05
  C 711.34 1566.19 702.77 1586.48 693.72 1605.48
  C 692.26 1608.57 690.81 1607.54 687.81 1606.88
  Q 653.81 1599.29 623.98 1582.56
  C 611.15 1575.37 594.42 1565.90 579.63 1554.44
  Q 553.85 1534.46 551.11 1531.99
  C 537.02 1519.25 531.50 1513.65 518.03 1500.22
  Q 513.00 1495.20 507.13 1487.85
  Q 502.57 1482.14 505.52 1475.21
  Q 507.27 1471.09 511.10 1465.09
  Q 515.90 1457.58 522.99 1447.79
  Q 528.23 1440.56 530.80 1434.84
  Q 535.23 1424.96 537.69 1414.98
  C 538.63 1411.17 539.25 1406.24 539.07 1402.21
  Q 537.92 1375.24 526.42 1351.07
  C 520.82 1339.30 513.18 1323.39 504.90 1309.30
  Q 501.46 1303.46 483.57 1272.18
  Q 478.75 1263.74 471.32 1252.58
  Q 464.41 1242.19 459.63 1233.71
  Q 444.68 1207.16 437.90 1195.37
  Q 436.27 1192.54 434.32 1186.98
  Q 431.41 1178.70 429.12 1165.71
  Q 426.62 1151.56 419.75 1128.32
  Q 417.09 1119.34 412.81 1108.40
  C 409.11 1098.95 406.34 1090.71 402.76 1082.10
  Q 390.31 1052.13 379.98 1021.60
  C 375.62 1008.73 372.95 997.93 379.26 985.32
  C 380.99 981.84 382.06 979.54 383.72 976.98
  C 394.40 960.52 402.47 947.32 413.42 929.21
  C 419.95 918.41 425.78 907.49 432.75 896.46
  Q 433.82 894.77 440.88 882.32
  Q 447.92 869.92 454.81 862.29
  Q 464.17 851.91 473.31 842.06
  C 475.77 839.41 477.02 838.96 480.75 838.28
  Q 489.63 836.65 495.99 832.21
  C 507.10 824.46 516.33 810.13 516.97 796.45
  A 1.16 1.16 0.0 0 1 518.41 795.38
  L 522.61 796.47
  A 1.73 1.73 0.0 0 1 523.90 798.25
  Q 523.46 805.73 523.28 807.00
  Q 520.56 826.82 518.88 846.62
  Q 518.46 851.63 517.70 856.97
  C 517.29 859.84 516.33 862.39 514.11 864.65
  Q 509.62 869.24 505.22 872.72
  Q 490.69 884.19 484.05 888.81
  Q 473.30 896.31 466.18 901.44
  C 457.91 907.39 452.54 914.49 446.23 924.24
  Q 434.67 942.10 414.66 973.40
  Q 408.97 982.29 403.99 994.24
  Q 399.62 1004.71 401.17 1016.02
  Q 402.27 1024.06 404.43 1031.62
  C 412.14 1058.75 423.16 1088.60 431.19 1115.57
  Q 433.95 1124.84 435.38 1137.35
  C 436.36 1145.86 437.78 1155.80 439.95 1165.77
  Q 441.72 1173.93 445.52 1181.47
  C 447.80 1185.99 457.80 1204.61 462.24 1205.09
  A 1.02 1.02 0.0 0 0 463.31 1203.73
  C 460.35 1195.36 453.23 1186.96 450.36 1178.81
  Q 447.72 1171.32 446.44 1164.02
  Q 445.69 1159.78 441.58 1129.49
  Q 441.15 1126.33 439.46 1119.01
  Q 436.73 1107.12 431.12 1089.31
  Q 422.57 1062.16 414.06 1034.94
  Q 411.34 1026.24 409.63 1017.40
  C 407.43 1005.97 411.92 997.31 417.63 986.20
  C 422.39 976.96 428.12 969.56 433.99 959.76
  Q 443.33 944.16 453.71 928.47
  Q 459.10 920.33 464.41 914.71
  Q 468.39 910.48 477.98 903.85
  Q 483.35 900.13 496.54 890.46
  A 0.77 0.77 0.0 0 1 497.34 890.39
  Q 506.62 894.88 516.40 891.14
  C 528.15 886.63 538.35 876.87 539.47 863.81
  A 0.44 0.44 0.0 0 1 540.19 863.51
  C 552.91 873.85 551.86 895.38 546.01 908.73
  C 543.22 915.11 539.94 920.22 535.81 926.38
  C 528.79 936.85 519.15 944.76 508.99 951.90
  A 2.07 2.07 0.0 0 1 506.53 951.84
  C 500.67 947.28 494.90 942.69 489.01 940.05
  A 0.69 0.69 0.0 0 0 488.19 941.10
  Q 493.16 947.45 501.23 955.66
  C 502.89 957.34 503.84 959.09 503.47 961.71
  Q 502.03 971.97 500.66 976.20
  Q 495.55 991.96 486.55 1004.30
  C 485.22 1006.13 482.94 1006.89 480.57 1007.02
  Q 469.56 1007.59 459.64 1009.84
  A 0.59 0.59 0.0 0 0 459.53 1010.95
  C 463.31 1012.63 466.03 1014.38 470.26 1014.50
  Q 474.87 1014.62 478.44 1014.38
  C 482.54 1014.11 485.30 1015.66 487.29 1018.68
  Q 499.05 1036.45 502.41 1056.34
  Q 503.27 1061.48 502.87 1064.15
  C 502.16 1068.81 496.51 1074.58 492.73 1077.73
  Q 483.59 1085.33 476.79 1093.80
  A 0.95 0.95 0.0 0 0 477.66 1095.33
  Q 479.39 1095.09 481.34 1093.83
  Q 491.62 1087.23 501.04 1079.04
  Q 505.42 1075.24 507.65 1071.24
  A 1.11 1.11 0.0 0 1 508.95 1070.73
  Q 516.05 1072.96 522.69 1076.24
  C 532.10 1080.89 540.86 1091.03 546.37 1100.16
  Q 553.85 1112.55 556.18 1116.05
  Q 559.06 1120.39 561.80 1127.91
  Q 565.37 1137.71 568.94 1145.77
  A 0.24 0.24 0.0 0 1 568.66 1146.10
  Z
  M 641.79 1360.81
  Q 638.80 1360.80 634.81 1361.83
  C 623.46 1364.73 606.77 1370.20 592.29 1371.78
  Q 581.18 1373.00 568.56 1370.76
  C 562.82 1369.75 557.60 1367.70 551.38 1365.59
  A 0.93 0.83 48.6 0 0 551.06 1365.55
  Q 550.83 1365.57 550.77 1365.57
  A 0.54 0.53 -27.8 0 0 550.48 1366.49
  C 566.99 1381.57 595.18 1378.82 614.89 1373.17
  C 623.94 1370.57 634.16 1367.63 642.05 1361.56
  A 0.42 0.42 0.0 0 0 641.79 1360.81
  Z
  M 628.31 1416.84
  A 0.52 0.52 0.0 0 0 628.54 1417.62
  Q 671.86 1435.39 718.97 1430.27
  Q 734.61 1428.56 747.64 1423.16
  Q 749.13 1422.54 749.84 1421.88
  A 0.77 0.77 0.0 0 0 749.43 1420.56
  C 746.81 1420.18 743.99 1420.35 741.22 1420.71
  C 734.42 1421.59 725.25 1423.60 716.88 1424.38
  Q 692.75 1426.64 668.87 1422.64
  Q 668.18 1422.53 632.95 1416.36
  Q 631.06 1416.03 628.61 1416.45
  A 0.11 0.09 5.7 0 0 628.55 1416.49
  L 628.31 1416.84
  Z"
/>
<path fill="#6e3a25" d="
  M 503.39 886.46
  A 0.80 0.80 0.0 0 1 502.95 885.08
  Q 516.87 872.37 527.62 863.87
  Q 528.63 863.07 530.32 862.15
  A 1.39 1.38 -32.2 0 1 532.10 862.55
  Q 534.14 865.40 532.43 868.70
  Q 527.71 877.76 519.53 883.08
  C 514.51 886.35 508.98 887.16 503.39 886.46
  Z"
/>
<path fill="#6e3a25" d="
  M 512.14 967.31
  A 0.23 0.23 0.0 0 1 512.43 967.13
  L 512.83 967.23
  A 0.13 0.12 11.4 0 1 512.92 967.36
  Q 512.52 974.59 513.01 979.25
  Q 516.21 1009.19 524.79 1037.87
  C 528.41 1049.96 534.06 1064.28 539.08 1075.99
  A 0.41 0.41 0.0 0 1 538.41 1076.44
  Q 528.51 1066.31 514.54 1063.28
  A 2.06 2.06 0.0 0 1 512.93 1061.52
  Q 511.84 1053.18 509.69 1043.99
  C 506.76 1031.51 502.05 1022.03 494.99 1011.41
  A 2.13 2.13 0.0 0 1 495.04 1008.98
  C 497.26 1005.87 498.86 1003.79 500.57 1000.64
  C 506.18 990.27 509.78 979.11 512.14 967.31
  Z"
/>
<path fill="#6e3a25" d="
  M 811.55 1332.84
  A 0.25 0.25 0.0 0 1 811.79 1332.53
  Q 823.01 1332.53 835.01 1330.29
  C 851.47 1327.23 870.08 1322.95 885.75 1317.65
  Q 908.04 1310.13 924.96 1302.95
  C 953.75 1290.74 982.75 1276.27 1014.65 1259.47
  C 1046.90 1242.50 1076.42 1224.04 1106.74 1203.98
  Q 1113.83 1199.29 1125.34 1190.82
  Q 1143.81 1177.22 1156.21 1165.71
  Q 1158.99 1163.13 1172.31 1149.30
  C 1187.00 1134.04 1199.20 1115.29 1209.17 1097.16
  Q 1223.32 1071.40 1233.91 1044.42
  Q 1241.94 1023.95 1249.67 1001.95
  Q 1249.83 1001.50 1249.94 1001.43
  A 0.87 0.86 -28.3 0 1 1251.12 1001.78
  C 1256.18 1011.49 1261.93 1019.86 1271.18 1026.07
  A 1.21 1.20 26.1 0 1 1271.65 1027.44
  Q 1267.83 1038.95 1262.69 1056.90
  C 1258.20 1072.59 1255.26 1087.54 1253.62 1100.79
  Q 1252.47 1110.10 1251.10 1127.25
  Q 1250.26 1137.82 1250.62 1148.37
  C 1251.12 1163.26 1257.99 1173.50 1269.70 1182.02
  Q 1282.86 1191.60 1295.10 1199.39
  Q 1296.28 1200.15 1296.95 1201.80
  A 2.39 2.33 33.7 0 1 1297.13 1202.65
  Q 1297.25 1206.34 1297.19 1207.51
  Q 1295.77 1234.91 1286.49 1263.50
  Q 1278.55 1287.96 1272.84 1301.86
  Q 1266.71 1316.80 1251.37 1351.52
  C 1247.24 1360.85 1241.42 1370.60 1238.16 1379.27
  A 10.26 10.07 74.5 0 1 1236.72 1381.87
  Q 1231.34 1388.86 1229.45 1390.71
  Q 1225.10 1395.00 1211.60 1408.11
  Q 1195.76 1423.49 1176.68 1439.08
  Q 1166.80 1447.15 1155.46 1454.95
  Q 1141.60 1464.48 1133.46 1469.69
  Q 1125.89 1474.54 1119.42 1477.60
  Q 1096.77 1488.30 1066.56 1497.82
  Q 1059.51 1500.04 1050.74 1501.77
  Q 1004.67 1510.84 957.75 1508.18
  Q 942.69 1507.33 927.64 1504.85
  Q 913.72 1502.55 905.22 1499.37
  C 893.61 1495.03 882.48 1489.64 872.51 1481.73
  Q 858.89 1470.94 847.72 1456.70
  Q 840.54 1447.54 831.13 1430.36
  C 821.40 1412.60 816.52 1403.73 811.20 1392.54
  Q 809.97 1389.97 810.37 1387.89
  Q 812.27 1377.80 812.39 1377.13
  C 814.85 1363.22 815.25 1346.95 811.55 1332.84
  Z"
/>
<path fill="#c0623f" d="
  M 687.05 1096.35
  Q 682.22 1095.43 675.29 1094.50
  C 664.48 1093.06 654.79 1094.23 644.53 1097.22
  Q 632.30 1100.78 620.25 1094.75
  A 1.65 1.65 0.0 0 1 619.50 1092.55
  Q 625.73 1079.82 634.76 1069.48
  Q 644.27 1058.58 656.91 1052.59
  Q 669.04 1046.84 681.60 1052.93
  Q 689.06 1056.55 696.43 1059.10
  Q 705.18 1062.13 713.44 1059.19
  Q 715.32 1058.53 732.86 1052.94
  C 748.70 1047.88 767.53 1055.21 782.30 1063.22
  Q 803.49 1074.70 816.19 1081.57
  Q 836.64 1092.63 851.13 1098.90
  Q 858.29 1102.00 864.61 1103.68
  Q 866.02 1104.05 867.34 1104.74
  A 0.31 0.30 -37.3 0 1 867.26 1105.31
  C 853.23 1108.44 842.78 1107.22 825.96 1105.11
  Q 810.77 1103.21 780.51 1099.01
  Q 770.17 1097.57 758.84 1097.79
  C 748.21 1098.00 737.84 1101.49 727.22 1102.33
  Q 715.91 1103.22 704.12 1101.13
  Q 701.18 1100.61 698.21 1098.79
  Q 694.10 1096.29 681.13 1088.11
  A 0.54 0.54 0.0 0 0 680.46 1088.94
  L 687.33 1095.81
  A 0.32 0.32 0.0 0 1 687.05 1096.35
  Z"
/>
<path fill="#c0623f" d="
  M 866.25 1114.78
  L 860.21 1124.18
  Q 856.73 1127.78 853.09 1130.58
  Q 831.73 1147.02 810.02 1157.24
  C 788.98 1167.16 767.14 1171.36 744.71 1171.99
  Q 731.97 1172.34 714.86 1170.86
  Q 695.85 1169.21 682.29 1165.72
  Q 654.91 1158.68 640.36 1134.18
  C 637.10 1128.69 633.63 1120.30 629.01 1113.80
  Q 626.50 1110.48 628.05 1106.54
  Q 634.68 1107.43 640.82 1106.09
  C 646.88 1104.77 653.40 1102.61 658.68 1102.23
  C 670.34 1101.38 680.20 1102.06 690.47 1106.02
  Q 698.06 1108.93 699.71 1109.32
  Q 715.77 1113.10 726.73 1111.92
  Q 738.85 1110.61 750.78 1107.80
  C 760.42 1105.53 770.44 1106.27 781.49 1107.85
  Q 798.88 1110.33 816.20 1112.88
  C 833.25 1115.39 849.35 1115.12 866.25 1114.78
  Z"
/>
<path fill="#4a7aa0" d="
  M 1355.86 1194.33
  A 0.30 0.29 -17.1 0 1 1355.42 1194.10
  Q 1354.39 1182.33 1348.67 1171.09
  Q 1344.16 1162.24 1334.59 1154.48
  Q 1329.00 1149.95 1317.01 1145.70
  Q 1297.86 1138.90 1279.00 1135.02
  Q 1270.28 1133.23 1262.22 1132.58
  A 0.66 0.65 -85.3 0 1 1261.62 1131.86
  L 1262.53 1121.75
  A 0.66 0.66 0.0 0 1 1263.31 1121.17
  C 1279.79 1124.30 1295.76 1126.68 1314.99 1128.96
  Q 1332.67 1131.05 1349.91 1135.40
  Q 1360.99 1138.20 1374.38 1143.76
  Q 1378.75 1145.58 1384.78 1149.57
  Q 1403.60 1162.07 1410.11 1165.40
  Q 1421.01 1170.98 1433.62 1178.05
  Q 1446.60 1185.33 1450.49 1189.05
  Q 1457.74 1195.97 1461.12 1205.99
  A 0.32 0.32 0.0 0 1 1460.69 1206.39
  C 1441.87 1198.49 1423.27 1191.66 1403.47 1187.33
  Q 1378.13 1181.79 1355.86 1194.33
  Z"
/>
<path fill="#375064" d="
  M 1295.43 1183.93
  A 0.60 0.60 0.0 0 1 1294.52 1184.52
  Q 1286.84 1179.86 1277.44 1173.05
  C 1267.55 1165.88 1262.72 1155.57 1261.71 1143.42
  A 0.88 0.87 0.0 0 1 1262.66 1142.48
  C 1273.25 1143.42 1280.10 1145.46 1294.76 1149.01
  Q 1304.17 1151.29 1314.13 1154.88
  Q 1327.14 1159.56 1335.65 1170.05
  C 1341.04 1176.69 1343.43 1184.58 1344.31 1192.81
  A 0.55 0.54 -3.4 0 1 1343.77 1193.41
  Q 1343.30 1193.41 1342.73 1193.04
  Q 1322.57 1179.77 1318.31 1177.11
  Q 1312.29 1173.34 1304.41 1172.94
  Q 1301.99 1172.82 1299.65 1173.26
  Q 1296.81 1173.79 1294.94 1173.53
  A 0.64 0.64 0.0 0 0 1294.22 1174.25
  L 1295.43 1183.93
  Z"
/>
<path fill="#4a7aa0" d="
  M 1263.29 1351.52
  A 0.12 0.12 0.0 0 1 1263.13 1351.37
  C 1275.06 1324.15 1287.55 1294.62 1296.58 1264.78
  C 1303.32 1242.51 1307.78 1224.14 1308.02 1203.25
  Q 1308.20 1187.90 1301.18 1174.80
  A 0.48 0.48 0.0 0 1 1301.72 1174.10
  Q 1303.42 1174.49 1305.70 1175.81
  Q 1323.49 1186.09 1343.76 1200.10
  A 1.63 1.63 0.0 0 1 1344.47 1201.57
  Q 1343.08 1220.74 1336.00 1238.71
  C 1332.94 1246.47 1329.11 1253.30 1325.36 1260.88
  C 1315.78 1280.21 1302.81 1297.80 1291.19 1315.18
  C 1282.73 1327.83 1273.27 1338.59 1263.94 1350.94
  Q 1263.62 1351.36 1263.29 1351.52
  Z"
/>
<path fill="#4a7aa0" d="
  M 1351.29 1229.05
  A 0.31 0.30 0.3 0 1 1350.90 1228.66
  Q 1355.39 1216.32 1355.92 1203.39
  A 3.33 3.33 0.0 0 1 1357.37 1200.76
  C 1368.99 1192.77 1386.06 1192.00 1399.78 1194.06
  Q 1417.24 1196.69 1429.57 1201.22
  C 1440.73 1205.32 1450.94 1209.19 1461.53 1213.64
  A 1.37 1.37 0.0 0 1 1462.34 1214.66
  C 1464.05 1224.81 1462.45 1237.34 1456.24 1245.75
  A 1.92 1.91 -59.3 0 1 1453.90 1246.35
  Q 1443.31 1241.46 1434.74 1237.79
  Q 1406.85 1225.88 1377.04 1225.11
  Q 1363.66 1224.77 1351.29 1229.05
  Z"
/>
<path fill="#c0623f" d="
  M 1772.75 1415.13
  Q 1772.72 1416.19 1773.00 1416.65
  L 1773.00 1423.96
  Q 1766.85 1419.94 1756.80 1414.71
  Q 1737.82 1404.84 1716.59 1405.75
  A 0.92 0.91 84.5 0 1 1715.64 1404.96
  C 1713.25 1388.27 1705.21 1373.49 1693.79 1360.95
  Q 1681.75 1347.75 1665.70 1337.56
  Q 1649.23 1327.11 1632.92 1316.81
  Q 1618.27 1307.56 1604.92 1295.58
  Q 1598.54 1289.85 1592.12 1284.15
  C 1578.97 1272.47 1562.78 1265.28 1545.54 1260.96
  Q 1539.15 1259.37 1527.34 1256.67
  C 1511.55 1253.06 1498.29 1248.34 1482.85 1241.66
  Q 1478.55 1239.81 1474.39 1236.80
  A 1.84 1.84 0.0 0 1 1473.66 1234.92
  C 1476.18 1223.18 1476.32 1212.11 1471.54 1201.00
  A 0.32 0.32 0.0 0 1 1471.93 1200.57
  Q 1483.45 1204.06 1495.93 1209.60
  C 1501.28 1211.98 1505.32 1214.58 1509.98 1218.54
  C 1531.27 1236.59 1551.45 1250.48 1573.25 1261.74
  Q 1589.97 1270.37 1595.88 1274.13
  C 1601.18 1277.49 1606.41 1279.45 1612.31 1283.06
  Q 1625.06 1290.86 1638.26 1298.51
  C 1649.72 1305.15 1659.64 1311.87 1670.18 1318.44
  C 1689.41 1330.44 1707.45 1346.01 1720.96 1360.83
  Q 1729.86 1370.59 1741.60 1383.38
  Q 1743.81 1385.79 1755.30 1396.73
  Q 1764.49 1405.50 1772.75 1415.13
  Z"
/>
<path fill="#4a7aa0" d="
  M 1408.87 1319.50
  Q 1382.25 1300.80 1350.53 1291.00
  Q 1338.10 1287.17 1325.18 1286.10
  A 0.68 0.68 0.0 0 1 1324.65 1285.07
  C 1334.28 1269.21 1341.99 1254.96 1348.87 1237.31
  A 3.03 3.03 0.0 0 1 1350.85 1235.49
  Q 1376.70 1227.93 1403.22 1234.54
  Q 1427.86 1240.67 1451.35 1252.27
  A 0.48 0.48 0.0 0 1 1451.53 1252.98
  Q 1443.81 1263.79 1437.45 1272.93
  Q 1430.33 1283.17 1419.69 1302.08
  C 1416.01 1308.60 1412.42 1314.22 1409.44 1319.37
  A 0.40 0.39 31.9 0 1 1408.87 1319.50
  Z"
/>
<path fill="#4a7aa0" d="
  M 527.78 1398.21
  A 0.54 0.54 0.0 0 1 526.90 1398.28
  C 514.33 1383.24 499.61 1368.43 487.04 1354.87
  C 476.13 1343.11 467.16 1334.62 455.63 1324.82
  C 450.79 1320.71 446.96 1318.03 440.66 1317.11
  C 424.95 1314.84 408.70 1315.17 391.63 1315.73
  A 1.91 1.90 -14.0 0 1 389.88 1314.68
  Q 381.39 1297.45 368.24 1283.24
  A 0.62 0.62 0.0 0 1 368.46 1282.24
  C 373.95 1279.96 379.40 1276.57 387.73 1271.41
  Q 395.12 1266.82 403.08 1262.54
  Q 432.53 1246.71 440.98 1241.99
  Q 444.15 1240.22 448.02 1238.49
  A 1.31 1.31 0.0 0 1 449.70 1239.07
  Q 452.47 1244.29 456.43 1250.86
  Q 465.60 1266.08 473.10 1278.19
  C 482.39 1293.18 491.02 1309.82 498.73 1323.11
  Q 509.86 1342.27 517.15 1360.17
  Q 524.08 1377.19 527.88 1397.00
  Q 528.03 1397.77 527.78 1398.21
  Z"
/>
<path fill="#4a7aa0" d="
  M 1611.57 1309.79
  Q 1612.13 1310.12 1618.46 1315.00
  Q 1620.63 1316.67 1625.65 1319.84
  Q 1649.60 1334.92 1650.81 1335.65
  Q 1667.83 1345.99 1675.15 1352.19
  Q 1686.80 1362.04 1695.65 1373.36
  C 1702.71 1382.38 1706.89 1393.86 1709.83 1404.88
  A 0.81 0.80 -9.8 0 1 1709.11 1405.89
  C 1691.07 1407.28 1673.10 1414.98 1657.19 1423.79
  C 1648.69 1428.50 1640.21 1434.61 1632.84 1439.61
  Q 1631.06 1440.82 1607.53 1457.96
  C 1596.31 1466.13 1582.27 1478.37 1574.62 1484.61
  C 1563.96 1493.28 1554.74 1502.26 1545.61 1509.87
  A 7.57 7.55 -67.8 0 1 1541.58 1511.57
  Q 1529.43 1512.82 1516.04 1516.11
  A 0.57 0.56 -2.5 0 1 1515.35 1515.48
  C 1516.84 1505.09 1519.56 1494.88 1524.15 1475.14
  Q 1525.88 1467.72 1526.10 1460.57
  A 1.56 1.55 87.3 0 0 1524.35 1458.97
  C 1516.87 1459.93 1506.34 1465.87 1499.07 1470.05
  Q 1460.92 1492.01 1431.54 1511.06
  Q 1424.65 1515.52 1412.37 1523.53
  C 1397.73 1533.08 1386.90 1541.01 1373.88 1551.13
  Q 1370.11 1554.06 1366.62 1557.50
  A 0.21 0.21 0.0 0 1 1366.28 1557.26
  C 1370.23 1548.70 1373.70 1540.92 1377.83 1532.76
  Q 1394.01 1500.77 1400.75 1488.52
  Q 1417.03 1458.93 1426.76 1440.49
  Q 1438.15 1418.90 1443.98 1406.49
  Q 1444.77 1404.81 1445.14 1403.79
  A 0.46 0.46 0.0 0 0 1444.40 1403.30
  Q 1443.37 1404.26 1441.92 1405.92
  Q 1436.71 1411.91 1427.45 1424.68
  Q 1417.96 1437.78 1407.15 1454.59
  C 1398.94 1467.37 1389.67 1484.76 1383.63 1494.91
  C 1374.13 1510.87 1364.80 1531.58 1355.72 1550.03
  A 0.30 0.30 0.0 0 1 1355.18 1550.03
  Q 1346.70 1532.31 1331.84 1517.69
  Q 1328.69 1514.59 1325.37 1517.60
  C 1315.81 1526.30 1311.50 1531.93 1299.53 1545.80
  Q 1293.57 1552.71 1283.95 1565.59
  Q 1271.42 1582.35 1264.69 1590.69
  Q 1262.89 1592.91 1261.31 1594.68
  A 0.97 0.97 0.0 0 1 1259.83 1594.64
  C 1249.87 1582.29 1241.53 1567.99 1233.39 1555.08
  A 0.40 0.40 0.0 0 1 1233.49 1554.55
  Q 1246.43 1544.29 1263.38 1528.88
  Q 1282.76 1511.24 1294.17 1500.17
  C 1312.19 1482.69 1328.70 1463.03 1346.42 1441.43
  Q 1356.85 1428.73 1365.41 1415.68
  Q 1388.43 1380.62 1398.48 1362.75
  Q 1416.01 1331.56 1418.21 1327.56
  Q 1425.37 1314.50 1439.14 1293.05
  Q 1459.86 1260.80 1466.30 1250.30
  Q 1468.64 1246.49 1470.46 1242.64
  A 0.88 0.88 0.0 0 1 1471.73 1242.28
  Q 1482.06 1248.92 1493.29 1252.96
  Q 1508.29 1258.35 1521.35 1262.47
  A 0.38 0.38 0.0 0 1 1521.55 1263.04
  C 1517.72 1268.88 1514.91 1275.29 1511.71 1281.54
  Q 1509.27 1286.31 1506.38 1292.45
  Q 1489.63 1328.06 1484.09 1339.82
  C 1479.10 1350.42 1476.72 1361.67 1475.18 1373.39
  Q 1474.18 1380.99 1473.10 1387.08
  Q 1470.05 1404.33 1467.37 1419.51
  C 1465.92 1427.74 1465.10 1435.74 1464.77 1441.50
  Q 1464.74 1442.15 1464.83 1442.40
  A 1.92 1.92 0.0 0 0 1467.03 1443.59
  Q 1470.27 1442.90 1473.41 1440.91
  C 1483.43 1434.60 1493.46 1427.31 1503.83 1421.51
  Q 1535.16 1404.00 1568.09 1392.86
  Q 1594.39 1383.96 1606.61 1380.57
  Q 1608.98 1379.91 1609.64 1378.88
  A 2.99 2.75 70.8 0 0 1610.03 1377.98
  Q 1610.84 1374.64 1610.59 1369.00
  Q 1609.61 1347.03 1611.04 1321.15
  C 1611.22 1318.07 1611.06 1313.74 1610.97 1310.14
  A 0.40 0.39 -75.1 0 1 1611.57 1309.79
  Z"
/>
<path fill="#375064" d="
  M 1472.61 1433.77
  A 0.37 0.37 0.0 0 1 1472.17 1433.36
  Q 1475.24 1409.14 1478.63 1391.00
  C 1480.72 1379.87 1481.57 1370.18 1484.00 1360.00
  C 1486.67 1348.81 1492.22 1336.70 1497.56 1326.25
  C 1503.70 1314.23 1510.34 1298.19 1515.21 1288.46
  Q 1522.53 1273.84 1527.51 1265.35
  A 2.64 2.64 0.0 0 1 1529.46 1264.07
  Q 1530.70 1263.92 1533.52 1264.54
  Q 1541.93 1266.39 1547.00 1267.81
  Q 1566.15 1273.16 1582.61 1284.56
  C 1589.51 1289.33 1596.84 1296.58 1602.51 1302.36
  C 1604.08 1303.97 1604.80 1304.90 1604.83 1307.17
  C 1604.92 1314.42 1604.79 1323.96 1604.29 1331.27
  Q 1602.83 1352.98 1604.15 1374.29
  A 0.83 0.83 0.0 0 1 1603.54 1375.14
  Q 1573.55 1383.31 1542.46 1395.76
  Q 1505.77 1410.44 1473.29 1433.54
  Q 1473.09 1433.68 1472.61 1433.77
  Z"
/>
<path fill="#c0623f" d="
  M 315.93 1327.25
  L 313.63 1324.95
  Q 317.53 1320.41 318.65 1318.90
  Q 325.52 1309.68 334.69 1303.14
  A 8.00 7.42 2.2 0 0 335.69 1302.28
  Q 339.04 1298.91 343.40 1296.40
  Q 352.82 1290.98 361.88 1285.86
  A 1.45 1.44 57.3 0 1 363.76 1286.28
  Q 368.48 1292.85 372.69 1299.08
  Q 384.57 1316.69 392.37 1336.38
  C 398.36 1351.49 404.96 1369.05 410.17 1385.29
  C 415.56 1402.12 424.20 1427.53 430.51 1450.53
  A 0.66 0.66 0.0 0 1 429.76 1451.36
  Q 415.78 1449.03 402.71 1455.25
  Q 387.54 1462.47 373.03 1467.52
  A 0.54 0.53 -7.3 0 1 372.32 1466.98
  Q 372.42 1465.70 373.08 1463.60
  C 375.94 1454.60 379.13 1446.62 381.51 1437.77
  Q 382.60 1433.73 384.91 1428.72
  C 386.86 1424.49 381.21 1423.92 378.24 1423.97
  Q 361.14 1424.26 344.68 1426.87
  A 0.74 0.73 7.0 0 1 343.89 1425.86
  Q 353.65 1402.60 361.92 1377.97
  Q 365.16 1368.33 364.37 1359.17
  A 2.84 2.83 89.5 0 0 361.73 1356.57
  Q 360.09 1356.46 358.61 1356.85
  C 341.20 1361.50 323.93 1370.29 308.75 1380.37
  A 0.59 0.59 0.0 0 1 307.85 1379.99
  Q 307.80 1379.69 307.82 1379.50
  C 310.75 1360.20 312.19 1346.69 316.52 1329.75
  Q 316.98 1327.96 315.93 1327.25
  Z"
/>
<path fill="#4a7aa0" d="
  M 1354.88 1409.96
  A 0.39 0.39 0.0 0 1 1354.29 1410.03
  Q 1333.57 1390.96 1312.46 1374.53
  Q 1296.84 1362.36 1279.54 1352.94
  A 0.80 0.80 0.0 0 1 1279.29 1351.75
  Q 1293.05 1333.76 1307.78 1312.56
  Q 1314.95 1302.24 1320.20 1293.13
  A 2.07 2.07 0.0 0 1 1321.99 1292.10
  Q 1331.07 1292.10 1340.48 1294.79
  C 1362.73 1301.14 1385.29 1311.60 1405.46 1323.80
  A 1.27 1.26 -58.8 0 1 1405.88 1325.53
  Q 1398.79 1337.22 1393.41 1347.11
  C 1387.52 1357.94 1383.96 1363.36 1377.89 1374.00
  C 1371.33 1385.54 1361.88 1399.74 1354.88 1409.96
  Z"
/>
<path fill="#c0623f" d="
  M 443.43 1470.35
  A 0.28 0.28 0.0 0 1 442.97 1470.19
  C 440.46 1458.49 436.47 1447.49 433.55 1437.02
  C 429.81 1423.67 426.06 1413.01 421.90 1399.52
  Q 418.95 1389.93 414.76 1378.10
  C 405.21 1351.09 402.15 1340.14 393.46 1322.19
  A 0.49 0.48 -12.9 0 1 393.90 1321.50
  Q 418.06 1321.56 440.02 1323.14
  Q 442.05 1323.29 445.30 1325.32
  Q 451.17 1328.99 457.60 1335.00
  Q 479.99 1355.93 497.74 1375.76
  Q 512.58 1392.34 525.92 1405.79
  A 2.73 2.73 0.0 0 1 526.68 1408.11
  C 525.52 1415.78 522.15 1424.43 518.80 1432.40
  A 1.76 1.75 13.1 0 1 517.07 1433.47
  C 503.89 1432.57 489.84 1433.03 477.05 1438.28
  Q 455.95 1446.92 444.62 1468.85
  Q 444.18 1469.72 443.43 1470.35
  Z"
/>
<path fill="#375064" d="
  M 313.63 1324.95
  L 315.93 1327.25
  Q 314.22 1327.87 313.51 1329.46
  C 310.05 1337.26 307.05 1346.58 305.52 1355.24
  Q 304.18 1362.84 303.19 1367.24
  C 301.61 1374.26 300.85 1382.13 300.66 1389.00
  A 1.38 1.37 89.0 0 0 302.11 1390.41
  Q 304.60 1390.28 306.68 1388.97
  Q 316.40 1382.82 329.10 1376.16
  Q 344.91 1367.85 355.65 1364.19
  Q 356.84 1363.78 357.11 1363.81
  A 1.28 1.28 0.0 0 1 358.25 1365.31
  Q 356.81 1373.15 353.58 1382.35
  C 350.38 1391.42 346.73 1399.33 343.84 1407.83
  Q 340.28 1418.33 336.15 1428.92
  Q 335.97 1429.39 336.06 1431.30
  C 336.15 1433.21 338.58 1433.41 340.03 1433.34
  Q 349.71 1432.89 360.51 1431.33
  Q 368.28 1430.21 374.94 1430.46
  A 1.21 1.21 0.0 0 1 376.11 1431.69
  Q 376.11 1432.46 375.77 1433.51
  Q 370.63 1449.75 368.40 1456.89
  Q 365.68 1465.60 365.02 1473.13
  A 1.82 1.82 0.0 0 0 366.70 1475.11
  Q 369.41 1475.31 372.72 1474.45
  C 385.90 1471.04 398.64 1463.65 410.18 1459.57
  Q 420.84 1455.80 432.29 1458.86
  A 2.73 2.73 0.0 0 1 434.23 1460.81
  Q 435.29 1464.92 437.67 1474.83
  Q 438.92 1480.06 436.86 1484.57
  C 432.26 1494.67 423.31 1518.77 414.93 1535.21
  C 409.82 1545.21 407.49 1550.23 402.77 1558.14
  Q 392.23 1575.78 379.75 1591.68
  A 0.71 0.70 49.3 0 1 378.58 1591.59
  Q 353.66 1546.88 339.00 1520.05
  C 329.32 1502.33 318.99 1484.33 311.46 1470.27
  Q 302.78 1454.07 291.69 1440.33
  C 289.48 1437.60 286.63 1438.38 283.08 1439.62
  Q 278.20 1441.33 272.13 1445.40
  Q 262.32 1451.97 252.28 1458.30
  Q 248.88 1460.44 243.30 1464.74
  A 0.42 0.42 0.0 0 1 242.67 1464.23
  Q 245.05 1459.22 251.25 1445.34
  C 252.74 1442.01 254.80 1438.63 256.52 1435.13
  Q 257.18 1433.79 258.77 1431.14
  Q 264.84 1421.00 271.66 1406.94
  Q 279.28 1391.20 282.51 1383.49
  C 286.37 1374.30 291.36 1365.37 295.64 1356.13
  Q 303.45 1339.25 313.63 1324.95
  Z"
/>
<path fill="#4a7aa0" d="
  M 1222.06 1415.83
  A 0.84 0.83 -44.7 0 1 1222.07 1414.71
  C 1228.26 1407.91 1236.06 1401.34 1242.09 1394.59
  C 1245.20 1391.11 1249.19 1387.07 1252.59 1383.08
  Q 1265.07 1368.44 1273.66 1358.80
  A 2.24 2.24 0.0 0 1 1276.37 1358.30
  Q 1287.45 1364.02 1299.92 1373.35
  Q 1326.63 1393.32 1350.65 1415.35
  A 0.42 0.41 -50.5 0 1 1350.70 1415.90
  C 1342.30 1426.98 1337.00 1434.72 1328.18 1444.87
  Q 1319.12 1455.29 1309.82 1466.55
  C 1303.30 1474.44 1295.19 1481.57 1289.37 1488.30
  A 0.67 0.67 0.0 0 1 1288.38 1488.32
  Q 1277.44 1477.10 1270.28 1469.22
  Q 1238.03 1433.76 1222.06 1415.83
  Z"
/>
<path fill="#4a7aa0" d="
  M 804.62 1403.51
  Q 813.81 1423.80 826.02 1445.24
  Q 829.62 1451.57 834.12 1458.17
  A 0.45 0.45 0.0 0 1 833.85 1458.86
  Q 827.11 1460.37 821.90 1464.91
  Q 812.18 1473.38 805.07 1484.56
  C 800.44 1491.86 795.48 1501.81 791.72 1508.21
  Q 784.26 1520.94 776.76 1534.55
  A 0.83 0.83 0.0 0 1 775.38 1534.67
  C 770.28 1528.34 759.96 1516.84 754.30 1506.96
  Q 753.53 1505.61 754.35 1503.33
  C 756.29 1497.98 757.83 1492.92 759.84 1488.09
  Q 765.25 1475.05 767.96 1467.48
  Q 773.11 1453.12 780.99 1439.35
  C 785.42 1431.60 789.77 1426.50 795.17 1418.69
  Q 800.41 1411.13 804.05 1403.50
  A 0.32 0.31 45.7 0 1 804.62 1403.51
  Z"
/>
<path fill="#c0623f" d="
  M 1772.73 1432.87
  Q 1772.74 1433.95 1773.00 1433.93
  L 1773.00 1527.00
  Q 1772.63 1527.28 1772.53 1527.72
  Q 1771.72 1527.03 1771.07 1526.19
  Q 1757.91 1509.37 1741.21 1489.29
  Q 1739.26 1486.94 1731.28 1478.87
  Q 1728.63 1476.18 1726.87 1476.58
  C 1724.40 1477.14 1723.62 1479.03 1723.59 1481.62
  Q 1723.28 1503.58 1720.55 1528.89
  A 0.71 0.70 16.3 0 1 1719.54 1529.44
  Q 1718.40 1528.88 1716.77 1527.72
  Q 1679.14 1500.89 1634.66 1476.87
  Q 1623.73 1470.97 1614.22 1467.55
  Q 1613.79 1467.39 1613.60 1467.11
  Q 1613.34 1466.72 1613.71 1466.43
  Q 1635.48 1449.64 1658.91 1434.92
  Q 1660.51 1433.91 1671.60 1427.86
  Q 1679.51 1423.54 1684.72 1421.71
  Q 1696.33 1417.62 1703.99 1416.06
  Q 1724.73 1411.82 1745.72 1418.24
  Q 1752.37 1420.27 1757.41 1423.05
  Q 1765.42 1427.48 1772.73 1432.87
  Z"
/>
<path fill="#f6d399" d="
  M 1773.00 1414.45
  L 1773.00 1416.65
  Q 1772.72 1416.19 1772.75 1415.13
  Q 1772.74 1414.83 1773.00 1414.45
  Z"
/>
<path fill="#4a7aa0" d="
  M 1221.41 1548.96
  A 0.47 0.47 0.0 0 1 1220.73 1548.85
  C 1215.30 1540.64 1209.34 1531.97 1203.96 1523.26
  C 1191.30 1502.79 1178.58 1482.23 1168.49 1461.29
  A 1.18 1.17 58.6 0 1 1168.84 1459.84
  Q 1194.20 1440.81 1216.88 1419.58
  A 0.40 0.39 -41.5 0 1 1217.44 1419.61
  Q 1237.83 1443.47 1262.57 1470.68
  Q 1272.10 1481.16 1283.54 1492.26
  A 1.13 1.13 0.0 0 1 1283.57 1493.85
  C 1275.75 1501.99 1267.27 1509.44 1251.87 1523.36
  Q 1235.72 1537.97 1221.41 1548.96
  Z"
/>
<path fill="#f6d399" d="
  M 1773.00 1432.39
  L 1773.00 1433.93
  Q 1772.74 1433.95 1772.73 1432.87
  Q 1772.77 1432.65 1773.00 1432.39
  Z"
/>
<path fill="#c0623f" d="
  M 188.41 1680.32
  Q 188.29 1680.29 188.16 1680.09
  A 0.30 0.30 0.0 0 1 188.10 1679.91
  Q 188.12 1667.09 187.32 1658.98
  Q 185.79 1643.55 185.64 1638.75
  Q 185.06 1620.91 188.72 1602.73
  C 190.45 1594.18 193.92 1586.88 196.64 1580.09
  C 200.88 1569.47 206.94 1556.95 210.34 1549.42
  C 213.92 1541.51 216.28 1533.79 219.23 1526.49
  Q 221.48 1520.94 227.28 1501.81
  C 229.62 1494.10 231.72 1488.38 234.64 1481.43
  A 11.41 11.30 79.6 0 1 237.20 1477.68
  Q 241.02 1473.96 245.39 1470.64
  Q 262.11 1457.95 281.71 1446.71
  Q 283.84 1445.49 285.76 1444.81
  A 1.72 1.71 -27.8 0 1 287.71 1445.41
  C 301.74 1464.65 309.67 1480.33 324.16 1507.06
  C 329.57 1517.04 334.53 1525.22 339.37 1534.13
  Q 356.03 1564.81 373.73 1595.84
  A 2.55 2.53 48.9 0 1 373.55 1598.63
  Q 367.77 1606.26 359.45 1612.95
  Q 343.57 1625.74 339.15 1629.09
  A 0.26 0.26 0.0 0 1 338.75 1628.99
  Q 336.23 1623.32 322.88 1597.12
  Q 313.62 1578.94 303.17 1562.35
  C 299.08 1555.87 295.32 1549.29 291.07 1545.93
  A 2.28 2.28 0.0 0 0 287.97 1546.19
  Q 273.29 1562.46 262.55 1582.54
  Q 258.20 1590.69 256.71 1596.18
  Q 253.95 1606.41 252.87 1617.29
  Q 252.00 1626.06 253.70 1638.67
  Q 255.84 1654.59 259.55 1668.74
  A 0.32 0.32 0.0 0 1 259.15 1669.13
  Q 254.86 1667.85 250.90 1665.59
  Q 232.15 1654.92 220.84 1636.15
  Q 218.06 1631.55 213.63 1623.63
  Q 212.75 1622.06 211.54 1621.33
  A 1.76 1.75 -58.3 0 0 209.14 1621.90
  Q 206.93 1625.42 205.52 1630.01
  Q 199.46 1649.75 191.79 1669.91
  C 190.40 1673.58 189.83 1676.12 188.89 1680.03
  A 0.39 0.39 0.0 0 1 188.41 1680.32
  Z"
/>
<path fill="#4a7aa0" d="
  M 431.94 1773.00
  L 253.37 1773.00
  Q 252.88 1772.76 252.22 1772.70
  Q 252.26 1772.53 252.30 1772.38
  A 1.47 1.43 70.7 0 1 252.56 1771.82
  Q 261.04 1760.73 264.48 1755.48
  Q 276.26 1737.52 286.73 1712.47
  Q 290.93 1702.43 298.73 1688.46
  C 308.52 1670.95 325.75 1655.13 340.18 1644.25
  C 360.52 1628.92 378.37 1614.24 393.13 1594.62
  Q 406.18 1577.27 418.05 1555.81
  Q 419.51 1553.18 427.83 1536.70
  Q 432.78 1526.89 436.84 1517.20
  Q 440.00 1509.63 449.22 1487.46
  Q 454.38 1475.04 458.11 1469.46
  C 463.60 1461.22 471.49 1453.46 481.01 1450.01
  Q 494.25 1445.21 509.10 1444.98
  A 0.42 0.42 0.0 0 1 509.46 1445.63
  L 493.21 1469.46
  A 0.40 0.40 0.0 0 1 492.51 1469.36
  L 491.31 1465.76
  A 0.82 0.82 0.0 0 0 489.75 1465.77
  Q 489.35 1467.01 489.35 1467.75
  Q 489.33 1480.72 496.10 1491.87
  A 0.80 0.79 69.3 0 1 495.56 1493.07
  C 484.67 1494.96 474.78 1503.45 468.61 1512.37
  Q 458.25 1527.33 452.08 1544.08
  Q 447.00 1557.85 445.33 1561.85
  Q 434.31 1588.30 422.31 1612.32
  Q 417.34 1622.25 408.27 1637.04
  C 398.78 1652.52 386.02 1666.18 372.40 1678.73
  C 368.32 1682.49 363.92 1687.26 359.64 1691.64
  Q 357.31 1694.04 358.96 1696.49
  A 1.61 1.61 0.0 0 0 361.18 1696.94
  Q 366.76 1693.30 371.95 1688.45
  C 385.12 1676.19 398.90 1663.55 409.08 1648.14
  C 418.79 1633.46 426.94 1619.42 433.93 1603.83
  C 437.95 1594.86 443.60 1583.48 448.02 1572.89
  C 453.43 1559.93 456.74 1550.34 462.54 1536.80
  Q 465.12 1530.77 468.53 1525.09
  C 476.05 1512.54 484.42 1500.25 500.31 1498.91
  A 2.06 2.04 68.3 0 1 502.11 1499.70
  Q 511.34 1511.63 521.69 1521.43
  A 0.38 0.37 -29.0 0 1 521.50 1522.07
  C 508.66 1524.75 498.15 1534.12 491.45 1544.93
  C 486.63 1552.71 481.82 1563.21 477.64 1573.80
  Q 469.63 1594.11 466.06 1602.31
  Q 463.35 1608.56 454.30 1627.48
  Q 446.13 1644.56 441.74 1652.24
  Q 432.75 1667.97 423.38 1681.65
  Q 419.80 1686.88 405.45 1705.84
  C 398.80 1714.62 393.69 1723.01 390.36 1732.08
  Q 390.25 1732.38 390.28 1732.51
  A 0.43 0.43 0.0 0 0 391.00 1732.71
  C 394.18 1729.64 397.44 1726.79 400.39 1723.16
  Q 410.84 1710.27 418.14 1700.64
  Q 442.84 1668.02 460.33 1630.82
  Q 473.17 1603.50 477.43 1592.70
  C 483.82 1576.47 487.98 1565.90 495.15 1552.41
  C 501.54 1540.37 511.00 1529.96 525.07 1528.09
  Q 527.18 1527.80 528.56 1528.30
  A 2.02 2.01 76.1 0 1 529.27 1528.73
  Q 542.71 1541.23 556.25 1551.77
  A 0.67 0.67 0.0 0 1 556.12 1552.90
  Q 549.64 1555.92 543.87 1561.11
  Q 528.96 1574.53 520.73 1593.46
  Q 513.63 1609.79 507.71 1625.83
  Q 501.29 1643.25 496.79 1653.07
  Q 479.82 1690.10 463.89 1716.88
  Q 444.64 1749.25 431.94 1773.00
  Z"
/>
<path fill="#4a7aa0" d="
  M 890.08 1505.67
  A 0.33 0.32 28.8 0 1 890.24 1506.20
  Q 873.59 1523.85 867.66 1547.41
  Q 864.75 1559.00 857.31 1586.32
  Q 855.27 1593.80 853.71 1602.24
  A 0.92 0.92 0.0 0 1 852.44 1602.92
  C 835.31 1595.40 820.89 1584.57 807.54 1570.79
  C 798.47 1561.41 789.42 1552.56 781.45 1542.10
  A 1.78 1.78 0.0 0 1 781.31 1540.15
  Q 796.16 1513.34 811.86 1486.36
  Q 820.63 1471.27 836.49 1464.00
  A 1.51 1.50 57.2 0 1 838.28 1464.40
  C 849.73 1478.06 863.38 1491.13 878.13 1500.41
  Q 883.93 1504.07 890.08 1505.67
  Z"
/>
<path fill="#4a7aa0" d="
  M 1151.62 1593.86
  A 0.82 0.81 -24.2 0 1 1150.51 1593.44
  Q 1147.83 1587.02 1137.84 1562.25
  C 1128.13 1538.15 1120.33 1515.51 1113.72 1493.69
  A 0.78 0.78 0.0 0 1 1114.16 1492.74
  Q 1132.77 1484.61 1151.35 1472.60
  Q 1157.18 1468.83 1162.62 1464.52
  A 0.70 0.70 0.0 0 1 1163.69 1464.77
  Q 1174.35 1487.32 1186.43 1507.38
  Q 1202.18 1533.54 1215.62 1553.00
  A 0.71 0.71 0.0 0 1 1215.47 1553.96
  Q 1185.31 1577.23 1151.62 1593.86
  Z"
/>
<path fill="#c0623f" d="
  M 1320.72 1671.93
  A 0.22 0.22 0.0 0 1 1320.35 1671.72
  C 1327.57 1649.87 1335.56 1626.94 1345.17 1604.33
  Q 1354.57 1582.24 1358.11 1574.39
  C 1360.09 1570.00 1364.41 1566.78 1369.30 1562.81
  Q 1386.00 1549.26 1406.17 1535.68
  Q 1443.49 1510.55 1482.11 1487.38
  Q 1499.78 1476.78 1517.61 1467.52
  A 0.70 0.70 0.0 0 1 1518.62 1468.26
  C 1516.67 1479.75 1513.51 1491.15 1511.24 1502.69
  Q 1509.07 1513.70 1508.14 1519.73
  C 1507.50 1523.90 1511.79 1523.55 1514.18 1522.94
  C 1522.20 1520.91 1529.07 1518.91 1536.27 1518.27
  A 0.42 0.42 0.0 0 1 1536.60 1518.99
  Q 1531.97 1523.63 1520.91 1534.16
  Q 1514.45 1540.33 1506.13 1549.63
  Q 1487.13 1570.88 1469.32 1592.46
  C 1464.73 1598.01 1459.87 1605.11 1455.91 1611.25
  A 0.30 0.30 0.0 0 1 1455.36 1611.10
  Q 1455.26 1608.79 1455.39 1607.25
  C 1456.32 1596.64 1458.12 1580.21 1458.74 1565.51
  Q 1458.81 1563.77 1456.76 1562.82
  A 1.32 1.31 -40.6 0 0 1455.81 1562.75
  Q 1452.75 1563.67 1451.54 1564.32
  Q 1438.06 1571.54 1424.61 1581.50
  C 1415.06 1588.59 1406.70 1593.66 1397.47 1600.73
  Q 1370.25 1621.56 1345.34 1645.92
  C 1338.10 1653.00 1329.35 1662.46 1320.72 1671.93
  Z"
/>
<path fill="#4a7aa0" d="
  M 1772.88 1539.95
  Q 1772.82 1540.47 1773.00 1540.63
  L 1773.00 1648.00
  Q 1772.84 1648.22 1772.76 1648.54
  Q 1772.37 1648.72 1772.04 1648.53
  Q 1740.01 1629.40 1704.36 1609.14
  Q 1694.54 1603.57 1678.10 1595.22
  Q 1673.46 1592.87 1667.62 1590.95
  Q 1662.53 1589.27 1658.34 1592.32
  C 1647.43 1600.29 1633.88 1611.21 1622.27 1621.68
  Q 1584.97 1655.32 1569.76 1670.51
  Q 1527.87 1712.37 1484.54 1761.29
  Q 1479.70 1766.75 1475.71 1773.00
  L 1402.66 1773.00
  Q 1405.43 1749.33 1410.01 1730.75
  C 1414.90 1710.91 1423.00 1689.15 1433.35 1669.67
  Q 1444.65 1648.39 1454.21 1633.95
  Q 1465.57 1616.80 1481.11 1596.85
  C 1491.72 1583.22 1506.27 1567.87 1516.47 1556.20
  Q 1524.39 1547.12 1531.17 1540.44
  Q 1553.80 1518.12 1560.77 1511.77
  Q 1571.09 1502.37 1587.63 1488.12
  Q 1597.12 1479.95 1607.49 1472.15
  A 2.52 2.51 38.8 0 1 1610.04 1471.88
  Q 1620.32 1476.61 1633.55 1483.45
  C 1642.76 1488.21 1651.16 1493.95 1660.86 1499.49
  Q 1669.72 1504.53 1676.68 1509.05
  C 1683.03 1513.16 1689.94 1517.18 1697.46 1522.45
  Q 1705.33 1527.96 1716.88 1535.43
  Q 1719.50 1537.12 1721.63 1537.84
  A 2.71 2.70 23.1 0 0 1724.88 1536.54
  Q 1726.02 1534.38 1726.38 1531.29
  Q 1727.62 1520.57 1729.25 1497.64
  C 1729.52 1493.90 1729.30 1490.02 1729.67 1487.08
  A 0.57 0.57 0.0 0 1 1730.69 1486.81
  Q 1733.06 1489.90 1739.68 1497.77
  Q 1758.74 1520.45 1769.90 1535.35
  Q 1771.54 1537.54 1772.88 1539.95
  Z"
/>
<path fill="#4a7aa0" d="
  M 1040.74 1623.62
  C 1038.15 1608.11 1033.87 1592.55 1031.87 1577.20
  C 1030.97 1570.20 1028.70 1556.52 1027.88 1547.27
  Q 1026.04 1526.30 1024.95 1518.45
  A 0.72 0.72 0.0 0 1 1025.57 1517.65
  Q 1057.02 1513.85 1085.47 1504.22
  Q 1097.99 1499.98 1107.47 1495.66
  A 0.37 0.37 0.0 0 1 1107.97 1495.89
  C 1116.15 1524.56 1126.20 1553.16 1138.42 1580.90
  Q 1141.62 1588.17 1144.85 1596.83
  A 0.58 0.58 0.0 0 1 1144.54 1597.57
  C 1111.80 1611.97 1076.62 1620.22 1041.20 1623.97
  A 0.43 0.42 82.0 0 1 1040.74 1623.62
  Z"
/>
<path fill="#4a7aa0" d="
  M 937.26 1623.59
  A 0.36 0.36 0.0 0 1 936.86 1623.97
  C 911.19 1620.88 885.01 1615.82 860.69 1606.68
  A 1.16 1.15 -73.7 0 1 859.97 1605.35
  Q 865.34 1580.01 872.40 1554.89
  C 875.37 1544.36 878.05 1535.27 883.70 1525.95
  Q 887.26 1520.07 895.22 1509.04
  A 1.02 1.02 0.0 0 1 896.44 1508.69
  Q 903.45 1511.61 911.23 1513.51
  Q 928.48 1517.74 945.54 1518.43
  A 0.58 0.58 0.0 0 1 946.05 1519.23
  Q 941.93 1529.19 940.17 1539.92
  C 938.77 1548.46 937.05 1560.44 936.97 1568.00
  C 936.68 1594.02 936.28 1608.83 937.26 1623.59
  Z"
/>
<path fill="#4a7aa0" d="
  M 1034.14 1623.83
  A 0.83 0.83 0.0 0 1 1033.41 1624.83
  Q 989.20 1629.40 944.86 1624.98
  A 1.10 1.09 -87.6 0 1 943.88 1623.91
  C 943.56 1602.30 943.53 1587.19 944.05 1567.65
  C 944.50 1550.60 947.06 1535.81 951.57 1519.67
  A 0.90 0.89 -80.0 0 1 952.49 1519.02
  Q 986.29 1521.53 1019.36 1518.05
  A 0.33 0.33 0.0 0 1 1019.73 1518.38
  Q 1019.54 1542.46 1023.88 1568.99
  Q 1028.00 1594.26 1034.14 1623.83
  Z"
/>
<path fill="#c0623f" d="
  M 908.98 1773.00
  L 839.70 1773.00
  Q 816.43 1723.75 792.11 1675.17
  Q 784.60 1660.17 773.05 1638.54
  A 1.87 1.87 0.0 0 1 772.94 1637.07
  Q 779.82 1617.55 773.62 1598.12
  Q 769.54 1585.31 762.90 1576.31
  C 758.38 1570.18 753.29 1563.21 747.85 1557.68
  Q 744.10 1553.86 736.46 1545.21
  A 1.10 1.08 -53.5 0 1 736.29 1544.03
  L 748.18 1518.63
  A 0.50 0.49 -48.9 0 1 749.04 1518.57
  Q 764.98 1542.46 784.72 1564.27
  Q 786.68 1566.42 787.62 1568.41
  C 789.75 1572.89 792.39 1578.64 795.51 1583.95
  Q 803.66 1597.82 825.96 1636.54
  Q 858.09 1692.34 908.98 1773.00
  Z"
/>
<path fill="#c0623f" d="
  M 1127.82 1773.00
  L 1055.03 1773.00
  Q 1054.49 1772.74 1053.73 1772.73
  Q 1053.47 1772.18 1053.85 1771.61
  Q 1095.96 1709.79 1139.70 1648.44
  C 1147.04 1638.14 1154.38 1628.00 1162.19 1617.89
  Q 1169.53 1608.38 1176.57 1598.55
  C 1179.71 1594.16 1182.55 1590.67 1187.02 1588.04
  Q 1195.98 1582.76 1198.92 1580.67
  Q 1214.76 1569.43 1228.07 1558.40
  A 0.60 0.60 0.0 0 1 1228.99 1558.59
  Q 1238.47 1577.46 1251.34 1594.42
  Q 1255.17 1599.47 1259.61 1603.52
  A 1.79 1.79 0.0 0 0 1261.73 1603.73
  Q 1262.86 1603.06 1264.34 1601.34
  C 1272.50 1591.90 1278.98 1583.40 1288.38 1570.70
  C 1301.32 1553.21 1313.42 1539.35 1327.30 1524.75
  A 1.46 1.46 0.0 0 1 1329.38 1524.71
  Q 1340.26 1535.31 1347.48 1549.29
  Q 1350.34 1554.84 1351.05 1557.62
  A 2.27 2.20 44.1 0 1 1351.08 1558.62
  Q 1350.69 1560.65 1349.58 1563.10
  Q 1337.18 1590.72 1326.14 1617.88
  Q 1324.73 1621.35 1314.57 1649.42
  C 1310.87 1659.66 1307.97 1670.58 1304.11 1681.35
  C 1299.30 1694.78 1295.74 1707.11 1292.62 1720.55
  A 0.63 0.63 0.0 0 1 1291.49 1720.76
  Q 1282.78 1708.31 1273.90 1697.10
  Q 1252.45 1670.00 1230.89 1646.36
  Q 1227.99 1643.17 1225.57 1640.90
  A 1.45 1.44 44.5 0 0 1223.59 1640.91
  Q 1221.27 1643.13 1219.54 1645.28
  Q 1215.19 1650.71 1188.38 1685.13
  Q 1186.12 1688.03 1166.64 1714.69
  C 1154.43 1731.41 1142.59 1749.98 1131.27 1766.78
  Q 1129.03 1770.12 1127.82 1773.00
  Z"
/>
<path fill="#f6d399" d="
  M 1773.00 1527.00
  L 1773.00 1529.01
  L 1772.53 1527.72
  Q 1772.63 1527.28 1773.00 1527.00
  Z"
/>
<path fill="#f6d399" d="
  M 1773.00 1540.00
  L 1773.00 1540.63
  Q 1772.82 1540.47 1772.88 1539.95
  Q 1772.94 1539.98 1773.00 1540.00
  Z"
/>
<path fill="#4a7aa0" d="
  M 234.52 1773.00
  L 152.61 1773.00
  L 151.21 1772.72
  Q 151.35 1772.52 151.35 1772.34
  A 0.84 0.06 87.6 0 1 151.37 1771.62
  Q 160.10 1753.93 172.53 1733.56
  Q 176.38 1727.25 181.31 1717.48
  Q 185.37 1709.42 188.51 1700.65
  C 191.63 1691.91 195.10 1683.15 197.82 1674.28
  Q 204.01 1654.09 211.12 1632.56
  A 0.41 0.41 0.0 0 1 211.88 1632.51
  Q 220.21 1649.21 234.66 1661.63
  Q 245.68 1671.09 261.23 1675.79
  C 263.34 1676.43 266.38 1675.97 266.29 1673.13
  C 266.10 1667.10 264.60 1662.74 262.17 1652.62
  Q 259.53 1641.59 258.52 1630.76
  C 256.91 1613.59 262.12 1596.40 270.77 1581.26
  Q 279.89 1565.28 287.06 1556.08
  Q 287.83 1555.10 288.54 1554.62
  A 1.09 1.08 56.0 0 1 290.05 1554.92
  Q 300.83 1571.18 300.92 1571.32
  C 306.59 1579.84 311.39 1588.59 316.38 1598.72
  Q 324.85 1615.92 333.87 1632.41
  A 0.96 0.95 56.4 0 1 333.63 1633.62
  C 324.11 1641.25 314.21 1649.30 304.94 1659.19
  Q 292.06 1672.93 283.02 1691.53
  Q 276.84 1704.24 271.22 1716.82
  Q 267.94 1724.18 263.92 1731.49
  C 257.77 1742.65 255.41 1748.50 248.97 1756.31
  Q 241.29 1765.62 239.97 1766.96
  Q 235.96 1771.07 234.52 1773.00
  Z"
/>
<path fill="#4a7aa0" d="
  M 506.54 1773.00
  L 441.12 1773.00
  Q 440.67 1772.74 439.99 1772.72
  Q 440.08 1771.92 440.49 1771.19
  Q 457.35 1740.87 473.09 1714.36
  Q 488.72 1688.03 505.19 1650.80
  Q 507.61 1645.32 512.72 1631.73
  C 517.49 1619.03 523.86 1601.95 530.51 1589.25
  Q 540.65 1569.87 557.80 1558.06
  Q 558.96 1557.26 560.36 1556.58
  A 1.73 1.73 0.0 0 1 562.17 1556.76
  C 567.50 1560.84 572.70 1565.04 578.30 1568.67
  Q 589.58 1575.98 598.91 1582.47
  A 1.80 1.80 0.0 0 1 599.65 1584.30
  Q 597.79 1593.71 596.26 1599.01
  Q 593.68 1607.98 587.67 1619.42
  Q 581.56 1631.07 568.55 1653.04
  Q 565.98 1657.39 545.46 1694.44
  C 535.64 1712.17 523.03 1738.36 515.28 1753.79
  Q 510.59 1763.14 506.54 1773.00
  Z"
/>
<path fill="#4a7aa0" d="
  M 707.52 1773.00
  L 691.38 1773.00
  Q 691.04 1772.73 690.45 1772.69
  Q 690.31 1771.54 690.39 1771.23
  C 693.88 1757.35 699.76 1742.80 705.70 1730.45
  Q 718.22 1704.44 729.67 1680.04
  C 734.86 1668.97 738.13 1659.90 740.10 1649.14
  Q 740.85 1645.05 740.46 1638.02
  Q 739.81 1626.45 732.07 1618.09
  A 0.48 0.48 0.0 0 1 732.28 1617.30
  Q 736.48 1615.93 740.08 1613.08
  C 745.11 1609.10 749.01 1600.41 743.86 1594.81
  A 0.93 0.92 25.0 0 0 742.25 1595.39
  Q 742.05 1600.13 738.09 1602.55
  C 727.87 1608.79 717.63 1609.45 706.03 1609.18
  A 0.32 0.31 -76.2 0 1 705.76 1608.73
  L 729.76 1557.45
  A 0.65 0.65 0.0 0 1 730.82 1557.28
  Q 739.47 1566.37 747.01 1575.23
  C 762.02 1592.85 768.10 1614.19 760.36 1636.25
  C 754.83 1652.00 744.93 1667.22 737.71 1682.95
  Q 727.78 1704.62 720.50 1723.05
  Q 716.61 1732.90 713.63 1744.95
  Q 710.18 1758.87 707.52 1773.00
  Z"
/>
<path fill="#4a7aa0" d="
  M 1391.22 1773.00
  L 1294.01 1773.00
  Q 1296.28 1754.52 1301.28 1736.70
  Q 1305.30 1722.39 1305.68 1720.96
  C 1309.24 1707.50 1310.93 1700.69 1314.74 1689.20
  A 10.59 10.59 0.0 0 1 1316.56 1685.89
  Q 1323.41 1677.46 1329.05 1671.80
  Q 1353.29 1647.42 1358.79 1642.19
  Q 1374.31 1627.43 1390.57 1614.83
  Q 1422.02 1590.44 1448.33 1573.59
  Q 1449.91 1572.58 1451.59 1571.82
  A 0.47 0.47 0.0 0 1 1452.25 1572.31
  Q 1449.43 1593.38 1448.45 1617.26
  Q 1448.37 1619.12 1447.68 1622.29
  A 4.29 4.27 -21.0 0 1 1446.96 1623.90
  C 1433.38 1642.35 1421.55 1664.63 1412.15 1685.89
  Q 1398.32 1717.18 1392.88 1755.52
  Q 1391.34 1766.40 1391.22 1773.00
  Z"
/>
<path fill="#c0623f" d="
  M 1045.42 1773.00
  L 916.57 1773.00
  Q 883.94 1721.08 852.50 1668.66
  C 837.27 1643.25 822.88 1617.60 807.55 1592.18
  Q 807.34 1591.84 803.10 1584.18
  A 0.30 0.30 0.0 0 1 803.56 1583.82
  C 816.74 1595.66 830.40 1606.40 846.24 1613.52
  Q 850.79 1615.57 869.88 1622.40
  Q 872.59 1623.37 874.45 1625.83
  C 894.92 1652.86 918.53 1677.73 940.98 1701.38
  Q 944.09 1704.66 961.79 1722.22
  Q 964.24 1724.65 967.21 1726.03
  C 970.34 1727.48 976.93 1721.05 978.54 1719.55
  Q 1016.62 1684.25 1055.96 1649.40
  C 1062.85 1643.29 1072.15 1637.03 1076.81 1631.49
  A 4.01 4.00 14.1 0 1 1079.09 1630.13
  Q 1084.87 1628.97 1102.11 1624.81
  Q 1134.47 1617.00 1166.36 1599.58
  Q 1166.82 1599.33 1168.25 1598.94
  A 0.40 0.39 -78.1 0 1 1168.66 1599.57
  Q 1149.81 1622.71 1132.41 1647.40
  Q 1126.39 1655.93 1075.11 1728.86
  Q 1068.11 1738.82 1045.42 1773.00
  Z"
/>
<path fill="#4a7aa0" d="
  M 590.92 1773.00
  L 513.87 1773.00
  Q 517.49 1764.34 524.15 1751.10
  Q 542.02 1715.56 545.06 1709.60
  C 553.86 1692.37 559.52 1682.79 570.84 1662.65
  Q 575.16 1654.96 582.52 1642.65
  Q 589.40 1631.14 596.31 1616.98
  C 601.46 1606.41 603.82 1597.70 604.50 1586.85
  A 0.60 0.59 -75.3 0 1 605.35 1586.35
  Q 611.92 1589.54 617.34 1592.70
  C 626.40 1597.97 635.45 1601.94 643.70 1605.30
  Q 645.56 1606.06 647.26 1607.03
  A 4.90 4.90 0.0 0 1 649.42 1609.57
  Q 653.08 1619.46 653.09 1631.38
  Q 653.10 1640.73 649.17 1652.99
  Q 644.83 1666.53 641.36 1673.60
  Q 628.51 1699.79 605.74 1742.48
  Q 598.32 1756.39 590.92 1773.00
  Z"
/>
<path fill="#c0623f" d="
  M 1773.00 1656.98
  L 1773.00 1721.91
  L 1729.44 1689.40
  A 5.86 5.84 74.5 0 0 1728.17 1688.68
  Q 1722.24 1686.22 1714.34 1682.73
  C 1707.27 1679.60 1701.40 1676.04 1696.19 1673.05
  Q 1692.48 1670.91 1690.50 1674.26
  A 3.12 3.05 -24.9 0 0 1690.13 1675.24
  C 1689.71 1677.53 1690.27 1682.17 1688.24 1685.00
  A 1.93 1.93 0.0 0 1 1687.55 1685.61
  L 1627.14 1718.50
  A 2.42 2.39 84.0 0 0 1625.97 1719.96
  Q 1618.39 1746.35 1616.85 1773.00
  L 1486.25 1773.00
  Q 1485.51 1772.72 1484.54 1772.72
  Q 1484.20 1772.14 1484.63 1771.64
  C 1506.16 1746.45 1528.88 1722.17 1551.36 1698.61
  Q 1575.91 1672.85 1608.47 1642.97
  Q 1633.81 1619.71 1662.22 1597.45
  Q 1664.31 1595.81 1666.56 1596.90
  Q 1687.08 1606.88 1690.92 1609.10
  Q 1708.42 1619.20 1708.53 1619.26
  C 1712.38 1621.35 1715.98 1624.32 1720.10 1626.07
  Q 1721.98 1626.86 1725.22 1628.71
  Q 1747.95 1641.69 1769.46 1654.86
  Q 1769.74 1655.03 1771.15 1656.07
  Q 1772.11 1656.78 1773.00 1656.98
  Z"
/>
<path fill="#4a7aa0" d="
  M 644.98 1773.00
  L 599.63 1773.00
  Q 599.27 1772.78 598.74 1772.72
  Q 598.56 1772.18 598.76 1771.74
  Q 603.66 1761.10 607.52 1753.76
  Q 639.13 1693.69 641.30 1689.34
  C 653.45 1665.05 665.06 1638.73 656.86 1611.05
  A 0.29 0.29 0.0 0 1 657.23 1610.69
  Q 675.34 1616.83 692.65 1620.35
  A 1.57 1.54 80.4 0 1 693.67 1621.09
  C 698.53 1629.47 700.89 1637.12 699.88 1646.77
  C 698.56 1659.32 693.88 1669.34 687.89 1681.18
  Q 675.65 1705.43 663.64 1729.38
  Q 656.22 1744.16 644.98 1773.00
  Z"
/>
<path fill="#4a7aa0" d="
  M 683.16 1773.00
  L 653.62 1773.00
  Q 653.13 1772.77 652.47 1772.73
  Q 652.34 1772.37 652.47 1772.02
  C 663.98 1741.37 677.98 1715.59 695.00 1682.03
  Q 699.14 1673.88 702.91 1663.24
  C 708.12 1648.52 708.70 1634.26 700.06 1621.33
  A 0.44 0.44 0.0 0 1 700.48 1620.65
  Q 714.01 1622.37 726.12 1620.17
  A 0.86 0.84 -20.7 0 1 726.99 1620.55
  C 732.65 1629.46 735.63 1639.36 733.00 1650.02
  C 729.54 1664.03 724.83 1675.64 717.75 1690.10
  Q 714.10 1697.54 698.80 1729.80
  Q 688.62 1751.26 683.16 1773.00
  Z"
/>
<path fill="#375064" d="
  M 1064.58 1632.73
  A 0.32 0.31 25.3 0 1 1064.77 1633.25
  Q 1063.49 1634.68 1059.66 1637.91
  C 1037.31 1656.75 1016.29 1675.74 994.05 1696.21
  C 985.38 1704.19 978.12 1711.54 970.30 1718.87
  A 1.56 1.56 0.0 0 1 968.14 1718.84
  C 953.41 1704.43 934.13 1685.31 918.18 1667.52
  Q 897.91 1644.91 884.58 1629.27
  Q 883.40 1627.87 883.07 1626.67
  A 0.51 0.51 0.0 0 1 883.68 1626.04
  C 895.05 1628.75 905.38 1630.67 917.10 1632.92
  Q 927.16 1634.85 937.01 1635.90
  C 963.81 1638.76 991.61 1639.20 1016.48 1637.82
  Q 1040.54 1636.48 1063.05 1632.78
  Q 1063.92 1632.64 1064.58 1632.73
  Z"
/>
<path fill="#375064" d="
  M 832.43 1773.00
  L 721.25 1773.00
  L 720.30 1772.64
  Q 723.45 1757.63 727.28 1742.75
  Q 729.41 1734.47 732.58 1726.32
  C 737.58 1713.52 743.03 1700.50 749.91 1687.00
  Q 760.40 1666.40 769.45 1646.99
  A 0.74 0.74 0.0 0 1 770.77 1646.96
  C 775.38 1655.76 779.63 1665.23 784.55 1674.90
  Q 801.62 1708.45 810.45 1727.04
  Q 827.29 1762.50 832.43 1773.00
  Z"
/>
<path fill="#f6d399" d="
  M 1773.00 1648.00
  L 1773.00 1649.23
  Q 1772.75 1649.04 1772.76 1648.54
  Q 1772.84 1648.22 1773.00 1648.00
  Z"
/>
<path fill="#375064" d="
  M 1281.44 1773.00
  L 1136.34 1773.00
  Q 1136.18 1772.82 1135.96 1772.78
  Q 1135.92 1772.60 1135.90 1772.42
  A 1.04 1.00 58.7 0 1 1136.05 1771.76
  Q 1161.00 1733.07 1188.11 1696.52
  C 1199.97 1680.52 1212.70 1665.03 1224.07 1649.81
  A 0.96 0.96 0.0 0 1 1225.56 1649.76
  Q 1239.39 1665.77 1245.23 1672.52
  C 1257.66 1686.89 1268.74 1701.50 1279.37 1715.12
  Q 1283.87 1720.89 1289.39 1728.70
  A 1.96 1.93 34.4 0 1 1289.70 1730.29
  Q 1284.62 1751.53 1281.44 1773.00
  Z"
/>
<path fill="#375064" d="
  M 1773.00 1730.72
  L 1773.00 1773.00
  L 1624.29 1773.00
  Q 1624.07 1772.82 1623.71 1772.71
  L 1623.46 1772.19
  A 1.91 1.87 35.3 0 1 1623.27 1771.14
  Q 1625.19 1752.88 1628.39 1736.34
  Q 1629.73 1729.42 1631.81 1723.56
  A 1.84 1.83 -3.4 0 1 1632.73 1722.53
  Q 1640.07 1718.90 1650.48 1713.09
  C 1658.67 1708.52 1667.32 1705.00 1675.34 1700.16
  Q 1680.13 1697.28 1683.46 1695.47
  Q 1688.22 1692.88 1696.70 1686.77
  Q 1699.62 1684.67 1700.92 1684.57
  Q 1702.78 1684.42 1705.67 1685.61
  Q 1711.55 1688.03 1722.83 1693.05
  C 1726.06 1694.48 1729.85 1698.15 1732.89 1700.34
  Q 1750.25 1712.86 1763.59 1722.94
  Q 1767.07 1725.57 1770.81 1728.74
  A 3.45 3.37 6.5 0 1 1771.59 1729.70
  Q 1772.67 1731.65 1773.00 1730.72
  Z"
/>
<path fill="#f6d399" d="
  M 151.21 1772.72
  L 152.61 1773.00
  L 151.02 1773.00
  Q 151.09 1772.82 151.21 1772.72
  Z"
/>
<path fill="#f6d399" d="
  M 252.22 1772.70
  Q 252.88 1772.76 253.37 1773.00
  L 252.02 1773.00
  Q 252.08 1772.81 252.22 1772.70
  Z"
/>
<path fill="#f6d399" d="
  M 439.99 1772.72
  Q 440.67 1772.74 441.12 1773.00
  L 439.77 1773.00
  Q 439.85 1772.82 439.99 1772.72
  Z"
/>
<path fill="#f6d399" d="
  M 598.74 1772.72
  Q 599.27 1772.78 599.63 1773.00
  L 598.60 1773.00
  Q 598.63 1772.84 598.74 1772.72
  Z"
/>
<path fill="#f6d399" d="
  M 652.47 1772.73
  Q 653.13 1772.77 653.62 1773.00
  L 652.32 1773.00
  Q 652.36 1772.83 652.47 1772.73
  Z"
/>
<path fill="#f6d399" d="
  M 690.45 1772.69
  Q 691.04 1772.73 691.38 1773.00
  L 690.28 1773.00
  Q 690.34 1772.82 690.45 1772.69
  Z"
/>
<path fill="#f6d399" d="
  M 721.25 1773.00
  L 720.60 1773.00
  Q 720.45 1772.82 720.30 1772.64
  L 721.25 1773.00
  Z"
/>
<path fill="#f6d399" d="
  M 1053.73 1772.73
  Q 1054.49 1772.74 1055.03 1773.00
  L 1053.12 1773.00
  Q 1053.29 1772.79 1053.73 1772.73
  Z"
/>
<path fill="#f6d399" d="
  M 1135.96 1772.78
  Q 1136.18 1772.82 1136.34 1773.00
  L 1135.55 1773.00
  Q 1135.61 1772.82 1135.96 1772.78
  Z"
/>
<path fill="#f6d399" d="
  M 1484.54 1772.72
  Q 1485.51 1772.72 1486.25 1773.00
  L 1483.87 1773.00
  Q 1484.04 1772.76 1484.54 1772.72
  Z"
/>
<path fill="#c0623f" d="
  M 1623.71 1772.71
  Q 1624.07 1772.82 1624.29 1773.00
  L 1623.50 1773.00
  Q 1623.56 1772.83 1623.71 1772.71
  Z"
/>
</svg>
