<?xml version="1.0" encoding="UTF-8" standalone="no"?>
<!DOCTYPE svg PUBLIC "-//W3C//DTD SVG 1.1//EN" "http://www.w3.org/Graphics/SVG/1.1/DTD/svg11.dtd">
<svg xmlns="http://www.w3.org/2000/svg" version="1.1" viewBox="0.00 0.00 1773.00 1773.00" width="6139.72" height="6139.72">
<path fill="#1f9e8d" d="
  M 1773.00 0.00
  L 1773.00 1773.00
  L 0.00 1773.00
  L 0.00 0.00
  L 1773.00 0.00
  Z
  M 887.23 700.97
  L 886.63 700.97
  Q 887.16 693.37 882.65 687.32
  C 878.44 681.68 873.73 692.25 872.26 695.34
  A 0.61 0.61 0.0 0 1 871.13 695.26
  C 861.76 665.17 846.50 637.69 828.65 611.64
  C 806.72 579.63 780.05 544.79 760.84 516.67
  Q 751.34 502.76 739.38 484.13
  Q 734.19 476.04 732.94 473.05
  C 729.99 465.97 727.02 456.09 724.48 446.71
  Q 722.21 438.27 720.41 433.85
  C 717.34 426.29 710.67 410.84 701.98 408.64
  C 697.41 407.49 692.21 409.93 690.66 414.40
  C 688.35 421.11 690.98 429.04 694.67 435.34
  C 700.17 444.74 706.55 454.00 714.09 462.61
  Q 718.80 467.98 723.85 474.22
  Q 727.22 478.40 732.61 486.48
  Q 763.91 533.41 775.09 548.52
  Q 802.60 585.72 819.62 609.97
  Q 836.08 633.43 850.09 660.26
  Q 854.82 669.30 861.43 686.10
  Q 866.13 698.02 866.85 708.28
  A 0.69 0.69 0.0 0 1 866.31 709.00
  C 863.99 709.51 861.29 709.83 859.38 710.53
  Q 841.46 717.10 838.52 735.23
  Q 836.72 746.33 843.91 756.29
  A 2.11 2.10 -50.2 0 1 844.10 758.43
  L 843.01 760.75
  A 0.65 0.65 0.0 0 1 841.83 760.75
  C 837.00 750.56 833.65 742.81 828.91 733.82
  Q 814.11 705.77 801.50 686.07
  C 774.45 643.82 743.41 605.28 707.40 569.93
  C 682.84 545.83 656.71 522.53 629.42 501.55
  Q 611.17 487.53 597.02 477.00
  Q 529.92 427.09 458.27 386.03
  Q 420.27 364.24 381.62 347.17
  Q 342.03 329.67 300.80 321.44
  C 266.47 314.58 229.68 313.11 195.16 320.14
  Q 175.59 324.12 167.51 328.76
  Q 155.06 335.92 148.10 349.85
  C 139.73 366.60 136.03 385.97 134.68 403.96
  Q 133.87 414.83 135.13 428.91
  C 136.72 446.49 139.20 464.50 143.64 481.39
  Q 148.65 500.42 153.81 514.73
  Q 170.16 560.10 171.09 562.67
  Q 175.67 575.39 179.03 587.99
  Q 186.14 614.64 192.33 644.61
  C 197.18 668.10 200.51 681.80 206.52 703.18
  C 213.99 729.74 223.66 753.47 235.37 776.40
  Q 242.48 790.32 254.26 807.45
  Q 259.57 815.18 266.25 822.15
  C 275.93 832.27 282.33 838.90 293.07 845.48
  Q 310.76 856.32 330.09 861.42
  C 357.75 868.72 387.17 870.01 417.05 868.71
  Q 436.01 867.88 463.85 863.69
  Q 493.42 859.23 510.34 856.29
  A 0.29 0.29 0.0 0 1 510.57 856.81
  Q 509.92 857.32 508.82 857.81
  Q 494.56 864.23 484.73 869.49
  Q 460.40 882.51 440.96 895.14
  C 419.84 908.86 401.15 922.10 384.03 938.27
  Q 353.91 966.75 331.05 1000.77
  C 312.69 1028.10 295.93 1055.49 286.19 1085.43
  C 281.38 1100.19 280.15 1114.41 280.28 1130.52
  Q 280.49 1156.15 286.65 1181.16
  C 290.80 1198.03 300.09 1212.69 305.15 1229.14
  Q 307.45 1236.63 309.55 1247.67
  C 312.43 1262.90 315.66 1277.06 325.38 1288.47
  Q 333.47 1297.96 338.36 1305.18
  C 343.18 1312.30 346.89 1321.39 352.06 1334.61
  C 357.43 1348.32 363.24 1359.13 374.91 1366.37
  C 384.88 1372.55 397.38 1376.27 405.86 1380.40
  Q 420.98 1387.76 432.91 1400.12
  C 443.09 1410.66 448.72 1418.37 459.63 1421.35
  Q 467.29 1423.44 473.51 1423.47
  C 492.07 1423.56 503.52 1423.36 518.64 1426.12
  Q 519.07 1426.20 545.53 1431.15
  C 572.42 1436.19 600.59 1435.65 625.48 1426.87
  C 665.23 1412.84 698.24 1387.24 724.95 1354.44
  Q 741.32 1334.34 755.57 1312.60
  Q 785.72 1266.62 809.94 1216.94
  Q 816.41 1203.68 819.71 1195.46
  Q 825.52 1180.97 828.62 1173.62
  C 839.92 1146.78 848.10 1118.18 855.75 1089.76
  A 0.19 0.19 0.0 0 1 856.12 1089.82
  Q 855.34 1120.68 852.82 1153.50
  Q 850.68 1181.37 853.38 1209.31
  Q 855.87 1235.23 865.23 1259.29
  Q 867.99 1266.39 871.99 1272.77
  C 875.98 1279.12 880.98 1285.39 889.09 1283.96
  Q 893.08 1283.25 897.36 1277.97
  C 904.31 1269.39 908.42 1259.07 911.80 1248.29
  C 920.84 1219.45 922.20 1190.18 920.60 1160.22
  Q 920.18 1152.35 918.78 1132.50
  Q 917.53 1114.71 917.23 1090.56
  A 0.22 0.22 0.0 0 1 917.66 1090.51
  Q 932.74 1149.39 958.00 1205.56
  Q 963.22 1217.16 971.80 1233.86
  Q 981.48 1252.69 986.60 1261.65
  Q 991.14 1269.60 1010.83 1302.01
  C 1019.16 1315.72 1028.84 1329.34 1036.50 1339.50
  Q 1054.61 1363.55 1076.39 1384.10
  C 1094.18 1400.88 1114.81 1413.62 1137.65 1423.21
  C 1151.82 1429.16 1168.48 1433.30 1183.38 1434.11
  Q 1204.56 1435.26 1227.19 1431.17
  Q 1240.83 1428.70 1250.33 1426.87
  C 1259.63 1425.08 1269.22 1423.77 1278.00 1423.78
  Q 1291.35 1423.79 1301.61 1423.39
  Q 1318.47 1422.71 1330.07 1410.86
  C 1334.05 1406.79 1339.23 1400.55 1343.67 1396.41
  Q 1357.20 1383.81 1374.92 1376.93
  C 1386.39 1372.48 1396.93 1368.58 1405.75 1360.28
  C 1411.82 1354.58 1417.05 1345.90 1419.75 1338.26
  Q 1424.70 1324.29 1428.39 1316.63
  C 1433.63 1305.75 1439.05 1299.43 1447.87 1288.12
  Q 1457.10 1276.28 1460.91 1260.64
  Q 1461.92 1256.51 1464.77 1242.44
  C 1468.27 1225.19 1473.83 1213.85 1481.30 1196.86
  Q 1487.28 1183.28 1489.59 1166.06
  Q 1493.03 1140.44 1492.37 1120.89
  Q 1491.77 1103.31 1487.84 1089.88
  Q 1481.22 1067.34 1469.53 1045.95
  Q 1455.37 1020.03 1439.03 996.25
  C 1415.70 962.26 1386.91 933.06 1353.03 909.43
  Q 1337.07 898.30 1332.88 895.65
  Q 1305.49 878.32 1277.45 864.10
  Q 1269.51 860.08 1260.86 856.35
  A 0.22 0.22 0.0 0 1 1260.98 855.93
  Q 1292.37 861.39 1327.82 866.07
  Q 1370.92 871.76 1414.62 866.92
  C 1444.05 863.66 1474.80 852.90 1496.54 832.52
  C 1519.90 810.62 1536.00 782.84 1549.02 752.75
  Q 1560.50 726.21 1568.20 697.93
  Q 1575.76 670.20 1579.90 649.10
  C 1583.80 629.16 1587.67 612.56 1592.06 595.31
  Q 1595.27 582.64 1600.67 567.15
  Q 1608.03 545.98 1615.05 527.07
  C 1623.25 504.99 1630.46 481.80 1634.42 458.44
  Q 1637.51 440.24 1638.42 425.50
  Q 1640.27 395.68 1631.29 365.93
  Q 1627.79 354.32 1621.27 343.68
  Q 1613.15 330.44 1598.04 325.50
  Q 1568.07 315.71 1533.25 315.66
  Q 1517.47 315.64 1510.50 316.24
  Q 1448.06 321.68 1389.90 347.71
  Q 1352.77 364.34 1319.92 382.94
  Q 1257.71 418.19 1195.12 463.13
  Q 1168.19 482.46 1136.91 507.08
  Q 1125.25 516.26 1116.60 523.97
  Q 1112.03 528.05 1096.50 541.08
  C 1092.11 544.77 1087.40 549.26 1082.93 553.23
  Q 1079.13 556.61 1073.10 562.72
  C 1060.75 575.23 1046.76 588.46 1034.88 601.99
  C 1021.27 617.51 1007.85 633.80 994.70 652.38
  Q 981.86 670.51 979.32 674.33
  Q 951.98 715.41 931.38 760.85
  A 0.64 0.63 42.3 0 1 930.25 760.90
  L 928.90 758.57
  A 1.75 1.74 -42.4 0 1 928.99 756.70
  Q 935.09 748.03 934.51 737.31
  C 933.67 721.95 922.04 710.51 906.96 708.95
  A 1.50 1.50 0.0 0 1 905.65 707.14
  Q 909.51 689.64 917.34 672.33
  C 926.62 651.82 937.89 632.47 950.47 614.21
  C 968.41 588.17 989.90 559.88 1006.03 537.27
  Q 1023.96 512.13 1044.92 479.94
  Q 1046.58 477.40 1048.81 474.80
  Q 1062.96 458.32 1064.60 456.10
  Q 1071.37 446.95 1076.70 437.95
  C 1080.27 431.92 1083.11 426.22 1083.03 419.02
  C 1082.97 414.10 1080.78 410.31 1075.96 408.96
  C 1072.62 408.03 1069.49 408.71 1066.64 411.03
  Q 1063.91 413.25 1063.10 414.39
  C 1053.70 427.71 1049.86 441.63 1044.99 459.03
  C 1042.10 469.35 1039.71 475.36 1034.83 482.84
  Q 1006.20 526.78 971.22 573.98
  Q 953.50 597.88 939.48 618.74
  Q 919.42 648.60 906.28 682.51
  Q 904.12 688.07 901.89 695.52
  A 0.63 0.63 0.0 0 1 900.69 695.54
  C 899.56 692.13 898.57 687.73 895.55 686.18
  A 2.74 2.55 32.3 0 0 892.25 686.80
  C 889.60 690.13 888.16 696.83 887.23 700.97
  Z"
/>
<path fill="#ff3e05" d="
  M 1500.09 335.78
  C 1503.33 342.37 1492.78 353.12 1488.58 356.83
  Q 1481.60 362.99 1480.59 364.38
  A 5.70 5.54 -86.5 0 1 1478.90 365.92
  Q 1473.35 369.19 1467.53 371.60
  Q 1437.84 383.88 1415.86 394.14
  C 1409.12 397.29 1402.94 400.00 1395.77 400.04
  C 1390.22 400.08 1382.96 397.87 1383.12 391.34
  C 1383.29 384.30 1387.21 375.78 1391.05 369.90
  Q 1392.04 368.38 1394.76 367.02
  Q 1431.13 348.80 1470.85 339.30
  Q 1483.06 336.38 1494.75 334.79
  Q 1496.99 334.49 1499.27 335.10
  A 1.32 1.32 0.0 0 1 1500.09 335.78
  Z"
/>
<path fill="#ff3e05" d="
  M 273.82 335.02
  Q 276.10 334.41 278.34 334.71
  Q 290.02 336.31 302.21 339.24
  Q 341.89 348.78 378.21 367.03
  Q 380.92 368.39 381.91 369.91
  C 385.74 375.79 389.65 384.31 389.81 391.34
  C 389.96 397.86 382.70 400.06 377.16 400.02
  C 370.00 399.97 363.82 397.26 357.09 394.10
  Q 335.14 383.82 305.49 371.52
  Q 299.68 369.11 294.14 365.83
  A 5.69 5.54 86.6 0 1 292.45 364.29
  Q 291.44 362.90 284.48 356.74
  C 280.28 353.03 269.76 342.28 273.00 335.69
  A 1.32 1.32 0.0 0 1 273.82 335.02
  Z"
/>
<path fill="#ff3e05" d="
  M 1512.81 362.85
  C 1510.75 361.13 1513.06 359.28 1514.50 358.48
  Q 1534.41 347.41 1555.00 339.75
  C 1560.50 337.70 1568.05 335.73 1573.65 337.14
  C 1580.00 338.73 1577.31 345.30 1574.45 348.71
  C 1571.59 352.11 1567.50 355.32 1563.53 357.35
  Q 1544.74 366.95 1523.24 365.98
  C 1519.56 365.81 1515.70 365.25 1512.81 362.85
  Z"
/>
<path fill="#ff3e05" d="
  M 261.13 361.51
  C 259.06 365.55 251.82 366.15 247.73 366.20
  Q 231.55 366.39 216.72 360.80
  C 209.10 357.93 198.75 352.11 195.95 344.18
  C 193.86 338.25 198.61 336.48 203.53 336.76
  C 213.11 337.30 221.26 340.06 230.07 343.94
  Q 242.70 349.51 258.10 357.91
  Q 259.55 358.71 261.02 360.51
  A 0.93 0.92 39.2 0 1 261.13 361.51
  Z"
/>
<path fill="#ff3e05" d="
  M 360.23 402.40
  A 1.72 1.72 0.0 0 1 361.14 404.48
  Q 357.09 417.17 347.01 422.10
  C 337.55 426.73 322.87 425.78 311.67 423.84
  Q 261.29 415.12 236.00 410.01
  Q 227.17 408.23 223.41 406.58
  C 217.46 403.97 211.37 396.75 217.53 390.72
  Q 226.10 382.32 238.39 379.44
  Q 243.41 378.26 253.14 378.08
  C 264.73 377.87 277.25 376.84 287.87 372.06
  A 2.74 2.72 -45.8 0 1 290.06 372.02
  Q 327.34 387.26 360.23 402.40
  Z"
/>
<path fill="#ff3e05" d="
  M 171.23 383.57
  C 168.27 382.69 160.99 379.02 166.06 375.26
  C 168.96 373.11 173.36 372.30 177.17 372.35
  Q 188.32 372.49 199.31 375.64
  Q 202.64 376.60 202.67 379.42
  C 202.72 383.15 198.22 385.65 194.91 385.93
  Q 182.69 386.96 171.23 383.57
  Z"
/>
<path fill="#ff3e05" d="
  M 1412.99 402.97
  Q 1415.55 401.41 1419.22 399.72
  Q 1450.77 385.21 1480.87 372.86
  Q 1483.46 371.80 1485.48 372.56
  C 1499.06 377.66 1512.09 378.01 1527.48 378.51
  Q 1544.00 379.05 1555.35 390.61
  Q 1559.51 394.84 1556.99 399.95
  Q 1553.89 406.25 1546.29 408.05
  C 1520.12 414.25 1498.35 417.63 1462.97 423.90
  Q 1447.58 426.63 1435.42 424.85
  Q 1417.74 422.26 1412.21 405.08
  A 1.82 1.82 0.0 0 1 1412.99 402.97
  Z"
/>
<path fill="#ff3e05" d="
  M 1606.95 375.17
  C 1612.05 378.93 1604.76 382.64 1601.79 383.53
  Q 1590.30 386.98 1578.03 385.99
  C 1574.71 385.72 1570.18 383.22 1570.22 379.48
  Q 1570.24 376.65 1573.58 375.68
  Q 1584.60 372.47 1595.79 372.29
  C 1599.61 372.23 1604.03 373.03 1606.95 375.17
  Z"
/>
<path fill="#ffd508" d="
  M 163.00 443.94
  C 159.74 442.32 160.49 438.93 163.33 437.31
  Q 166.85 435.29 172.49 433.95
  C 189.91 429.82 212.20 424.03 230.79 416.34
  A 5.53 5.42 -50.6 0 1 233.87 416.01
  L 289.33 426.36
  A 5.22 5.21 79.8 0 1 292.85 428.81
  Q 295.55 433.32 295.86 439.26
  C 296.30 447.58 290.11 452.60 282.90 455.37
  Q 267.65 461.24 261.77 464.48
  Q 254.84 468.29 246.77 472.05
  Q 241.26 474.61 235.18 472.35
  Q 204.27 460.83 184.54 453.21
  Q 171.50 448.17 163.00 443.94
  Z"
/>
<path fill="#ffffff" d="
  M 1177.47 525.96
  A 0.34 0.34 0.0 0 1 1177.06 525.42
  Q 1209.25 494.78 1244.11 466.11
  C 1262.92 450.63 1282.16 436.09 1303.08 423.84
  C 1311.80 418.74 1326.94 412.19 1336.55 418.62
  Q 1341.25 421.76 1342.53 427.64
  A 3.56 3.56 0.0 0 1 1341.48 431.00
  Q 1337.39 434.84 1331.77 438.27
  Q 1327.54 440.86 1282.67 467.41
  C 1264.82 477.97 1243.03 488.97 1227.14 497.67
  Q 1200.52 512.23 1177.47 525.96
  Z"
/>
<path fill="#ffffff" d="
  M 596.50 526.42
  A 0.13 0.12 -67.1 0 1 596.31 526.50
  C 567.03 508.83 536.33 492.25 508.46 477.53
  Q 495.58 470.73 473.92 457.94
  Q 443.77 440.15 436.86 435.94
  Q 434.34 434.41 431.16 431.39
  A 2.53 2.52 -72.4 0 1 430.42 429.96
  C 429.47 423.64 435.21 418.36 440.80 417.00
  C 451.46 414.41 461.55 418.69 470.91 424.26
  Q 487.66 434.26 504.85 447.29
  C 524.92 462.50 542.90 478.00 566.90 498.86
  Q 584.95 514.55 596.43 526.20
  A 0.17 0.03 43.9 0 1 596.52 526.33
  Q 596.50 526.40 596.50 526.42
  Z"
/>
<path fill="#ffd508" d="
  M 1609.40 437.39
  C 1612.23 439.01 1612.98 442.40 1609.72 444.01
  Q 1601.23 448.23 1588.21 453.26
  Q 1568.50 460.85 1537.63 472.33
  Q 1531.55 474.58 1526.05 472.02
  Q 1518.00 468.26 1511.08 464.45
  Q 1505.21 461.21 1489.99 455.34
  C 1482.79 452.57 1476.61 447.55 1477.06 439.25
  Q 1477.37 433.31 1480.07 428.81
  A 5.22 5.20 -79.7 0 1 1483.59 426.37
  L 1538.98 416.07
  A 5.52 5.42 50.6 0 1 1542.05 416.41
  C 1560.61 424.10 1582.86 429.90 1600.25 434.03
  Q 1605.88 435.37 1609.40 437.39
  Z"
/>
<path fill="#ffffff" d="
  M 468.86 462.72
  Q 468.73 463.03 433.26 453.41
  A 0.30 0.29 -70.9 0 1 433.06 453.01
  Q 434.02 450.81 434.98 448.51
  Q 435.95 446.21 436.84 443.98
  A 0.30 0.29 -63.6 0 1 437.27 443.83
  Q 469.01 462.37 468.86 462.72
  Z"
/>
<path fill="#ffffff" d="
  M 1337.63 448.52
  Q 1338.59 450.81 1339.56 453.01
  A 0.29 0.29 0.0 0 1 1339.36 453.42
  Q 1303.96 463.08 1303.81 462.73
  Q 1303.68 462.42 1335.34 443.86
  A 0.29 0.29 0.0 0 1 1335.76 444.00
  Q 1336.66 446.23 1337.63 448.52
  Z"
/>
<path fill="#ffffff" d="
  M 530.50 496.46
  A 0.50 0.50 0.0 0 1 530.62 497.26
  Q 515.44 512.03 494.67 519.17
  A 4.34 4.31 -52.4 0 1 493.03 519.39
  Q 490.11 519.20 486.45 518.35
  C 453.42 510.67 419.81 503.33 388.70 497.56
  Q 360.48 492.31 327.42 486.36
  A 1.28 1.28 0.0 0 1 326.51 484.50
  Q 331.89 474.30 340.34 467.33
  C 350.39 459.05 361.89 457.20 374.76 457.01
  Q 388.35 456.81 401.63 457.66
  Q 417.28 458.66 420.81 458.74
  Q 426.07 458.85 432.32 460.29
  C 454.07 465.30 478.49 472.33 493.11 476.73
  C 494.85 477.25 496.08 477.62 497.63 478.50
  Q 515.72 488.71 530.50 496.46
  Z"
/>
<path fill="#ffffff" d="
  M 1242.22 497.09
  A 0.22 0.22 0.0 0 1 1242.28 496.76
  Q 1261.33 486.48 1274.07 479.34
  C 1275.32 478.64 1276.83 477.84 1278.43 477.39
  C 1293.28 473.28 1317.52 465.43 1337.92 460.73
  Q 1346.36 458.78 1357.61 458.06
  C 1376.48 456.87 1393.92 455.86 1411.46 458.05
  C 1427.75 460.09 1439.79 471.24 1446.53 485.69
  A 0.58 0.58 0.0 0 1 1446.10 486.51
  Q 1389.03 496.34 1331.28 508.51
  C 1313.35 512.28 1298.82 515.89 1282.58 519.67
  A 6.25 6.25 0.0 0 1 1279.02 519.47
  Q 1260.23 512.81 1244.81 499.73
  Q 1243.59 498.69 1242.22 497.09
  Z"
/>
<path fill="#ffd508" d="
  M 178.18 507.34
  C 177.96 502.32 184.75 499.48 188.85 497.80
  Q 206.98 490.38 225.60 483.48
  Q 233.06 480.72 236.30 480.99
  C 242.09 481.48 245.71 482.24 250.93 485.66
  Q 261.96 492.88 270.14 500.82
  C 277.59 508.05 273.30 513.84 266.48 519.40
  Q 257.46 526.76 249.61 530.80
  Q 244.15 533.61 237.41 531.84
  Q 212.55 525.31 189.95 516.10
  C 185.56 514.31 180.96 512.32 178.56 508.53
  A 2.42 2.36 -63.3 0 1 178.18 507.34
  Z"
/>
<path fill="#ffd508" d="
  M 1594.23 508.63
  C 1591.83 512.42 1587.23 514.40 1582.85 516.19
  Q 1560.26 525.38 1535.42 531.89
  Q 1528.69 533.65 1523.23 530.84
  Q 1515.39 526.80 1506.39 519.44
  C 1499.58 513.89 1495.29 508.10 1502.74 500.88
  Q 1510.92 492.95 1521.94 485.74
  C 1527.16 482.33 1530.77 481.57 1536.56 481.09
  Q 1539.80 480.82 1547.25 483.58
  Q 1565.85 490.48 1583.96 497.91
  C 1588.05 499.59 1594.83 502.43 1594.61 507.44
  A 2.41 2.36 63.4 0 1 1594.23 508.63
  Z"
/>
<path fill="#ffffff" d="
  M 484.37 524.23
  A 0.31 0.31 0.0 0 1 484.45 524.81
  Q 461.25 537.27 454.27 563.24
  A 0.55 0.55 0.0 0 1 453.53 563.61
  Q 433.57 555.43 412.36 550.86
  Q 380.79 544.05 355.09 537.88
  Q 340.74 534.44 328.31 530.45
  C 319.65 527.67 302.28 520.76 305.42 508.40
  Q 306.70 503.35 312.31 500.04
  Q 317.62 496.89 325.55 493.66
  A 5.16 5.14 38.6 0 1 328.34 493.35
  Q 406.24 506.32 484.37 524.23
  Z"
/>
<path fill="#b8b7b7" d="
  M 973.32 731.78
  C 969.88 728.76 968.26 725.97 963.17 726.05
  C 961.56 726.07 959.92 727.54 958.02 727.93
  Q 961.31 721.00 962.56 718.84
  Q 980.51 687.68 996.66 665.14
  Q 1020.28 632.19 1046.02 603.28
  Q 1047.17 601.98 1066.90 581.67
  C 1080.23 567.94 1089.96 559.67 1107.68 543.42
  Q 1112.91 538.63 1123.86 529.87
  Q 1132.35 523.07 1171.07 493.60
  A 0.26 0.26 0.0 0 1 1171.45 493.68
  L 1171.58 493.91
  A 0.09 0.08 -37.0 0 1 1171.56 494.02
  Q 1154.89 508.85 1136.37 526.97
  Q 1119.53 543.43 1108.64 553.53
  Q 1095.18 566.01 1076.75 585.26
  Q 1057.44 605.42 1039.80 627.55
  Q 1026.12 644.71 1020.45 652.93
  C 1004.62 675.87 987.84 702.16 973.32 731.78
  Z"
/>
<path fill="#ffffff" d="
  M 1288.70 524.84
  A 0.15 0.15 0.0 0 1 1288.74 524.57
  C 1328.19 514.84 1365.09 507.87 1409.99 499.51
  Q 1427.19 496.30 1446.08 493.59
  A 3.20 3.16 -37.6 0 1 1447.72 493.79
  C 1455.66 497.04 1469.49 502.82 1467.57 513.53
  C 1466.25 520.93 1457.81 525.68 1450.99 528.26
  Q 1441.36 531.91 1433.19 533.97
  C 1406.77 540.64 1382.39 545.45 1357.02 551.25
  Q 1337.64 555.69 1319.97 563.87
  A 0.48 0.48 0.0 0 1 1319.30 563.57
  C 1315.81 552.11 1309.80 540.42 1301.43 533.53
  Q 1295.34 528.52 1288.70 524.84
  Z"
/>
<path fill="#b8b7b7" d="
  M 814.62 726.17
  C 812.76 726.63 811.32 725.58 810.00 725.44
  Q 808.07 725.23 806.75 725.83
  Q 802.94 727.57 801.09 731.75
  Q 800.89 732.20 800.56 732.31
  Q 800.20 732.44 799.78 732.35
  C 792.25 718.06 786.06 704.99 776.76 689.96
  C 765.17 671.24 752.62 651.88 738.00 633.54
  Q 722.51 614.11 705.69 595.80
  Q 683.04 571.13 664.69 553.56
  Q 644.85 534.56 629.81 520.09
  C 620.85 511.47 611.13 503.74 602.49 494.75
  A 0.40 0.39 44.5 0 1 602.48 494.21
  L 602.53 494.14
  A 0.45 0.44 -49.9 0 1 603.13 494.08
  C 606.91 496.97 611.35 499.99 614.56 502.53
  C 630.06 514.82 643.26 524.56 656.25 535.64
  Q 677.84 554.04 700.34 576.04
  Q 737.71 612.59 768.86 654.83
  C 778.96 668.53 788.72 683.40 798.64 698.86
  Q 807.18 712.17 814.62 726.17
  Z"
/>
<path fill="#ffffff" d="
  M 820.24 818.89
  A 0.20 0.20 0.0 0 1 819.95 819.14
  C 786.35 795.08 756.90 776.60 716.26 751.01
  Q 674.73 724.85 637.91 702.40
  C 634.01 700.02 628.09 695.84 623.98 693.27
  Q 584.61 668.66 549.28 643.49
  Q 536.51 634.39 524.15 623.61
  Q 501.31 603.71 484.76 588.00
  Q 472.52 576.36 460.05 567.16
  A 0.75 0.75 0.0 0 1 459.78 566.30
  Q 463.13 556.92 464.48 553.98
  C 469.86 542.31 478.69 534.56 490.62 528.08
  Q 492.37 527.13 503.10 522.79
  Q 522.15 515.08 536.74 500.49
  A 0.87 0.87 0.0 0 1 537.77 500.34
  Q 579.10 522.38 618.15 549.35
  Q 626.79 555.31 636.55 562.96
  Q 671.86 590.66 705.66 630.60
  Q 728.39 657.46 746.00 682.79
  Q 748.50 686.37 764.38 711.45
  Q 775.08 728.35 781.60 740.54
  Q 796.76 768.94 800.76 777.54
  Q 814.20 806.45 820.24 818.89
  Z"
/>
<path fill="#ffffff" d="
  M 953.37 819.31
  A 0.15 0.14 -6.8 0 1 953.15 819.14
  Q 968.80 782.52 987.99 746.95
  Q 1021.00 685.77 1065.66 632.41
  C 1087.04 606.87 1110.65 582.56 1137.25 562.00
  Q 1148.95 552.95 1173.10 536.67
  C 1193.15 523.15 1213.99 511.98 1235.05 500.65
  A 1.12 1.10 -37.1 0 1 1236.35 500.82
  C 1247.34 511.39 1260.33 519.35 1274.71 524.87
  C 1287.03 529.60 1299.24 537.44 1305.95 548.85
  Q 1309.40 554.71 1313.50 566.44
  A 0.70 0.70 0.0 0 1 1313.26 567.24
  Q 1304.82 573.59 1303.38 574.88
  C 1275.20 599.96 1247.58 627.14 1216.64 648.65
  C 1193.67 664.62 1168.87 680.42 1148.01 694.08
  Q 1133.38 703.66 1118.79 712.58
  Q 1064.77 745.62 1015.69 777.17
  C 994.53 790.76 974.22 804.73 953.37 819.31
  Z"
/>
<path fill="#ffd508" d="
  M 1480.97 591.08
  C 1476.78 583.72 1478.23 577.57 1484.60 572.06
  Q 1494.96 563.11 1507.45 555.14
  C 1513.50 551.29 1517.97 549.82 1524.59 551.67
  Q 1528.66 552.82 1532.68 555.09
  Q 1547.95 563.76 1559.60 576.88
  C 1567.27 585.52 1565.79 592.21 1556.60 598.68
  Q 1537.78 611.95 1515.98 619.20
  C 1507.64 621.98 1502.82 617.85 1496.88 611.92
  Q 1487.46 602.51 1480.97 591.08
  Z"
/>
<path fill="#ffd508" d="
  M 212.31 595.74
  C 202.20 586.89 211.49 577.83 218.52 571.51
  C 227.06 563.83 245.55 547.85 257.79 551.72
  Q 261.87 553.01 267.36 556.60
  Q 277.47 563.20 288.27 572.30
  Q 290.37 574.07 292.50 577.35
  C 296.99 584.24 291.80 591.51 287.67 597.43
  Q 283.09 604.00 277.09 610.58
  C 271.53 616.67 265.84 621.92 257.01 618.96
  Q 238.58 612.76 221.70 602.59
  Q 216.69 599.57 212.31 595.74
  Z"
/>
<path fill="#ffffff" d="
  M 1247.22 634.01
  A 0.16 0.16 0.0 0 1 1247.10 633.73
  Q 1271.72 612.28 1293.85 591.39
  C 1306.17 579.76 1316.64 571.48 1331.07 566.10
  Q 1335.71 564.36 1343.58 563.39
  C 1374.00 559.63 1394.19 555.99 1419.40 558.42
  Q 1431.63 559.59 1442.13 563.89
  Q 1449.91 567.09 1451.28 574.16
  C 1453.97 587.94 1432.71 605.34 1422.75 612.20
  Q 1413.31 618.69 1405.15 624.46
  A 1.95 1.89 25.4 0 1 1404.09 624.82
  Q 1324.49 627.62 1247.22 634.01
  Z"
/>
<path fill="#ffffff" d="
  M 526.04 634.20
  Q 448.74 627.78 369.11 624.95
  A 1.95 1.89 -25.3 0 1 368.05 624.59
  Q 359.88 618.82 350.44 612.32
  C 340.48 605.46 319.22 588.04 321.91 574.26
  Q 323.29 567.18 331.07 563.99
  Q 341.58 559.69 353.81 558.52
  C 379.03 556.10 399.23 559.75 429.66 563.52
  Q 437.53 564.49 442.18 566.23
  C 456.61 571.62 467.08 579.91 479.40 591.55
  Q 501.53 612.45 526.16 633.92
  A 0.16 0.16 0.0 0 1 526.04 634.20
  Z"
/>
<path fill="#ffffff" d="
  M 617.67 697.64
  C 536.45 702.09 453.33 710.48 373.05 720.73
  A 3.81 3.79 57.1 0 1 370.61 720.20
  C 354.15 710.08 337.72 696.84 334.30 676.45
  C 331.85 661.86 338.63 652.34 349.46 644.08
  Q 357.09 638.26 366.74 631.77
  A 2.16 2.13 -61.3 0 1 368.02 631.39
  C 423.36 632.69 478.19 636.42 533.83 641.09
  A 5.01 4.96 64.9 0 1 536.34 642.01
  C 549.90 651.69 565.61 662.92 581.16 673.06
  Q 601.04 686.01 617.79 697.21
  A 0.24 0.23 60.7 0 1 617.67 697.64
  Z"
/>
<path fill="#ffffff" d="
  M 1155.22 697.77
  A 0.24 0.23 -60.7 0 1 1155.10 697.34
  Q 1171.87 686.13 1191.76 673.16
  C 1207.32 663.01 1223.04 651.77 1236.61 642.08
  A 5.01 4.97 -64.9 0 1 1239.12 641.16
  C 1294.81 636.47 1349.68 632.73 1405.07 631.42
  A 2.16 2.14 61.2 0 1 1406.35 631.80
  Q 1416.01 638.29 1423.65 644.12
  C 1434.49 652.38 1441.28 661.91 1438.83 676.51
  C 1435.41 696.92 1418.97 710.17 1402.49 720.30
  A 3.81 3.79 -57.1 0 1 1400.05 720.83
  C 1319.70 710.59 1236.51 702.21 1155.22 697.77
  Z"
/>
<path fill="#ffd508" d="
  M 311.92 666.21
  C 317.10 670.97 319.58 676.97 317.27 683.77
  Q 312.69 697.18 305.02 709.31
  C 301.54 714.78 297.14 720.80 291.41 723.66
  Q 286.76 725.99 281.34 724.12
  C 266.22 718.89 254.22 710.27 240.72 699.97
  Q 234.44 695.19 229.54 689.76
  C 222.99 682.49 226.28 673.79 231.09 666.69
  C 238.41 655.89 248.75 644.89 260.62 638.76
  C 269.47 634.20 277.81 637.44 285.08 643.45
  C 292.83 649.86 301.44 656.62 311.92 666.21
  Z"
/>
<path fill="#ffd508" d="
  M 1455.51 684.17
  C 1453.15 677.35 1455.60 671.31 1460.78 666.50
  C 1471.25 656.81 1479.85 649.97 1487.60 643.48
  C 1494.87 637.40 1503.22 634.10 1512.14 638.63
  C 1524.10 644.71 1534.55 655.70 1541.96 666.50
  C 1546.84 673.61 1550.19 682.32 1543.66 689.66
  Q 1538.77 695.15 1532.49 699.99
  C 1518.99 710.41 1506.99 719.14 1491.84 724.48
  Q 1486.40 726.39 1481.72 724.08
  C 1475.95 721.24 1471.49 715.22 1467.97 709.75
  Q 1460.19 697.61 1455.51 684.17
  Z"
/>
<path fill="#ffffff" d="
  M 886.63 700.97
  L 887.23 700.97
  Q 887.22 702.79 887.98 704.08
  A 1.10 1.10 0.0 0 0 889.77 704.23
  Q 891.88 701.72 892.98 698.43
  A 0.36 0.36 0.0 0 1 893.68 698.48
  Q 894.48 702.74 896.46 706.22
  A 3.16 3.15 -50.0 0 1 896.69 708.87
  Q 892.57 720.17 894.13 732.83
  A 0.39 0.39 0.0 0 1 893.58 733.23
  Q 886.64 730.05 879.10 733.43
  A 0.28 0.28 0.0 0 1 878.70 733.14
  Q 880.23 720.64 876.40 708.25
  A 5.62 5.62 0.0 0 1 876.46 704.79
  L 878.93 697.60
  A 0.39 0.39 0.0 0 1 879.66 697.61
  Q 880.93 701.46 883.40 704.35
  A 1.06 1.06 0.0 0 0 885.17 704.11
  L 886.63 700.97
  Z"
/>
<path fill="#ffffff" d="
  M 361.49 787.60
  L 357.23 775.03
  L 401.86 768.70
  A 2.79 2.78 79.7 0 0 404.18 765.33
  L 404.15 765.21
  A 3.27 3.24 -10.2 0 0 400.52 762.71
  L 356.80 768.72
  Q 355.84 768.21 356.16 766.24
  Q 357.27 764.92 357.53 763.73
  C 360.33 751.02 362.45 738.02 371.24 728.05
  A 2.80 2.78 16.9 0 1 373.00 727.12
  Q 424.94 720.46 480.00 714.78
  Q 553.26 707.23 626.63 703.67
  A 5.47 5.42 59.5 0 1 629.78 704.50
  C 664.20 726.29 691.51 742.58 724.88 763.83
  Q 769.24 792.08 782.96 801.28
  Q 800.21 812.84 815.76 824.83
  A 0.34 0.34 0.0 0 1 815.51 825.43
  C 798.83 823.28 784.68 821.97 766.79 821.18
  C 737.43 819.89 708.19 818.54 679.24 815.03
  Q 641.14 810.40 591.49 802.79
  C 564.88 798.71 537.43 796.78 511.23 799.65
  C 484.83 802.54 457.02 807.53 430.66 812.48
  C 413.63 815.68 395.90 818.12 379.93 820.83
  A 1.00 0.99 65.2 0 1 378.99 820.48
  Q 368.24 807.62 363.72 791.74
  Q 363.00 789.21 361.49 787.60
  Z"
/>
<path fill="#ffffff" d="
  M 1416.44 765.96
  L 1416.34 768.52
  Q 1395.22 766.04 1374.29 762.54
  Q 1371.63 762.10 1369.54 763.44
  A 2.60 2.34 -34.3 0 0 1368.68 766.96
  Q 1369.74 768.38 1372.00 768.69
  Q 1394.03 771.75 1415.90 774.96
  Q 1415.02 779.78 1412.63 785.13
  Q 1412.24 786.00 1412.49 787.16
  Q 1410.95 788.59 1410.69 789.25
  C 1406.25 800.81 1401.87 811.14 1393.82 820.69
  A 0.80 0.78 -65.3 0 1 1393.09 820.97
  Q 1365.88 816.81 1329.41 810.04
  Q 1313.53 807.09 1296.81 804.48
  Q 1273.14 800.77 1264.05 799.90
  Q 1237.59 797.38 1216.49 798.93
  Q 1198.11 800.28 1179.76 803.07
  Q 1152.08 807.29 1133.74 809.94
  Q 1078.06 818.01 1021.81 820.31
  C 998.32 821.27 978.20 822.11 956.78 825.43
  A 0.19 0.19 0.0 0 1 956.63 825.09
  C 969.02 815.43 980.67 807.90 1000.47 794.59
  Q 1012.37 786.58 1033.31 773.27
  Q 1084.33 740.85 1144.34 704.30
  A 4.39 4.36 30.6 0 1 1146.84 703.67
  Q 1199.43 706.43 1257.46 711.49
  C 1303.21 715.48 1347.81 720.95 1399.62 727.11
  A 3.44 3.43 73.0 0 1 1401.81 728.28
  Q 1405.42 732.49 1409.01 738.54
  Q 1411.31 742.44 1412.96 750.35
  Q 1414.66 758.56 1415.75 764.98
  Q 1415.84 765.54 1416.44 765.96
  Z"
/>
<path fill="#ffd508" d="
  M 814.62 726.17
  Q 823.19 741.52 830.73 757.49
  Q 836.50 769.72 842.36 783.18
  A 1.04 1.02 50.1 0 1 842.28 784.15
  C 836.23 793.41 833.41 803.45 830.77 814.24
  A 0.28 0.27 44.6 0 1 830.24 814.24
  Q 818.55 771.77 799.78 732.35
  Q 800.20 732.44 800.56 732.31
  Q 800.89 732.20 801.09 731.75
  Q 802.94 727.57 806.75 725.83
  Q 808.07 725.23 810.00 725.44
  C 811.32 725.58 812.76 726.63 814.62 726.17
  Z"
/>
<path fill="#ffd508" d="
  M 973.32 731.78
  C 970.18 738.65 966.72 745.79 963.99 752.42
  Q 951.86 781.85 942.72 813.16
  A 0.37 0.37 0.0 0 1 942.00 813.14
  C 939.62 802.52 936.99 792.08 930.49 783.57
  A 0.84 0.82 39.1 0 1 930.39 782.70
  Q 943.32 754.87 958.02 727.93
  C 959.92 727.54 961.56 726.07 963.17 726.05
  C 968.26 725.97 969.88 728.76 973.32 731.78
  Z"
/>
<path fill="#ffd508" d="
  M 356.16 766.24
  Q 355.84 768.21 356.80 768.72
  C 327.11 773.44 295.30 778.82 268.16 784.71
  A 1.18 1.17 -21.1 0 1 266.88 784.15
  C 264.43 779.90 261.12 773.67 261.44 768.07
  Q 261.61 765.16 264.37 760.65
  C 269.29 752.61 278.81 743.05 287.87 740.27
  C 294.69 738.17 302.98 736.68 309.89 738.80
  Q 312.40 739.57 318.49 744.05
  C 330.55 752.93 337.48 758.14 343.99 762.19
  C 348.65 765.10 351.20 766.97 356.16 766.24
  Z"
/>
<path fill="#ffd508" d="
  M 1416.34 768.52
  L 1416.44 765.96
  C 1421.52 767.12 1425.79 764.54 1430.16 761.42
  Q 1452.90 745.16 1455.17 743.41
  Q 1463.91 736.68 1476.02 737.93
  Q 1486.46 739.00 1493.12 744.13
  Q 1503.00 751.74 1509.18 761.81
  C 1513.99 769.67 1510.31 777.11 1506.01 784.04
  A 1.12 1.12 0.0 0 1 1504.82 784.54
  Q 1498.66 783.20 1487.25 781.07
  Q 1451.82 774.43 1416.34 768.52
  Z"
/>
<path fill="#ffffff" d="
  M 900.81 770.43
  A 0.50 0.48 -64.2 0 1 900.57 769.71
  C 904.91 762.70 904.69 754.99 903.09 747.17
  A 0.26 0.26 0.0 0 1 903.55 746.96
  Q 908.29 753.40 915.72 757.18
  Q 919.92 759.32 921.24 760.97
  C 926.35 767.34 925.22 777.69 914.27 774.93
  Q 910.04 773.86 900.81 770.43
  Z"
/>
<path fill="#b8b7b7" d="
  M 872.25 770.18
  Q 863.22 773.82 859.07 775.00
  C 848.33 778.02 846.93 767.83 851.80 761.39
  Q 853.06 759.73 857.15 757.50
  Q 864.39 753.56 868.90 747.06
  A 0.26 0.26 0.0 0 1 869.36 747.26
  C 867.99 755.03 867.99 762.65 872.47 769.46
  A 0.49 0.48 62.6 0 1 872.25 770.18
  Z"
/>
<path fill="#ffd508" d="
  M 357.23 775.03
  L 361.49 787.60
  Q 356.61 785.91 353.17 789.44
  Q 350.17 792.53 348.35 796.36
  Q 343.25 807.10 336.99 816.24
  C 331.40 824.41 324.52 828.99 314.47 828.58
  Q 305.98 828.24 298.56 822.80
  Q 281.45 810.27 270.05 791.06
  A 0.37 0.36 -21.6 0 1 270.29 790.52
  C 283.79 787.68 290.75 786.08 302.32 784.13
  Q 319.85 781.19 347.48 776.42
  Q 349.75 776.03 357.23 775.03
  Z"
/>
<path fill="#ffd508" d="
  M 1415.90 774.96
  Q 1420.54 775.40 1425.01 776.20
  Q 1447.80 780.23 1476.98 785.30
  Q 1490.00 787.56 1501.54 790.34
  A 0.70 0.70 0.0 0 1 1501.99 791.36
  Q 1494.35 805.47 1482.80 816.24
  C 1473.52 824.89 1465.25 830.32 1452.90 828.07
  C 1443.23 826.32 1437.24 819.36 1432.66 811.34
  Q 1428.90 804.75 1423.56 793.72
  C 1421.53 789.55 1417.55 785.69 1412.49 787.16
  Q 1412.24 786.00 1412.63 785.13
  Q 1415.02 779.78 1415.90 774.96
  Z"
/>
<path fill="#ffffff" d="
  M 835.14 851.59
  A 0.40 0.40 0.0 0 1 834.41 851.36
  Q 835.66 824.78 843.95 799.45
  Q 845.49 794.74 847.76 790.61
  A 0.47 0.47 0.0 0 1 848.35 790.40
  Q 853.15 792.30 856.68 795.41
  A 2.47 2.46 34.2 0 1 857.25 798.36
  Q 848.15 816.60 844.56 835.49
  A 9.77 9.65 67.0 0 1 843.18 838.97
  L 835.14 851.59
  Z"
/>
<path fill="#ffffff" d="
  M 938.86 852.31
  A 0.38 0.38 0.0 0 1 938.16 852.53
  L 928.79 836.30
  A 6.70 6.58 24.3 0 1 928.05 834.39
  C 925.34 821.88 922.05 810.56 916.31 798.97
  A 2.23 2.22 46.5 0 1 916.36 796.90
  Q 918.71 792.72 923.60 790.61
  A 1.27 1.26 64.2 0 1 925.22 791.18
  Q 926.40 793.38 927.35 795.67
  C 934.32 812.39 937.54 833.08 938.86 852.31
  Z"
/>
<path fill="#ffffff" d="
  M 338.05 853.31
  Q 346.76 851.89 347.73 851.72
  C 362.15 849.23 370.43 839.80 377.99 828.25
  A 2.03 2.01 12.0 0 1 379.37 827.36
  Q 421.94 820.53 466.02 812.55
  Q 481.62 809.73 503.37 806.92
  Q 538.20 802.42 573.00 806.77
  Q 594.28 809.43 621.89 813.56
  Q 655.61 818.61 670.80 820.33
  Q 711.44 824.92 747.26 826.53
  C 772.06 827.65 788.35 828.04 809.49 830.79
  Q 817.14 831.79 823.00 833.49
  Q 824.47 833.92 825.32 834.53
  A 0.89 0.89 0.0 0 1 825.27 836.00
  C 821.31 838.49 815.01 840.85 809.82 842.27
  C 782.71 849.65 755.50 854.02 728.24 856.19
  C 675.05 860.41 619.98 845.66 565.62 843.86
  C 529.22 842.65 493.47 849.53 458.17 855.13
  C 419.86 861.21 380.37 862.72 342.57 854.93
  Q 340.26 854.46 338.02 853.59
  A 0.15 0.15 0.0 0 1 338.05 853.31
  Z"
/>
<path fill="#ffffff" d="
  M 1434.21 853.93
  Q 1431.68 854.73 1430.64 854.95
  C 1395.78 862.35 1359.53 861.43 1324.03 856.17
  Q 1312.90 854.52 1282.83 849.86
  C 1251.57 845.02 1224.79 842.42 1197.00 844.19
  C 1170.38 845.89 1131.19 851.73 1113.75 853.78
  C 1092.24 856.31 1070.08 857.72 1048.83 856.35
  C 1027.87 854.99 1003.01 851.76 981.95 847.00
  C 968.86 844.04 957.58 841.72 947.20 836.10
  A 0.72 0.72 0.0 0 1 947.05 834.94
  C 949.82 832.35 956.91 831.39 961.52 830.73
  C 983.20 827.62 994.82 827.83 1027.25 826.22
  Q 1086.15 823.31 1133.75 816.28
  Q 1162.57 812.03 1190.56 808.03
  Q 1226.61 802.87 1259.49 805.80
  Q 1274.75 807.16 1302.71 811.85
  Q 1321.80 815.05 1393.62 827.59
  A 1.38 1.35 79.3 0 1 1394.54 828.23
  C 1402.12 841.08 1413.41 850.55 1428.59 852.69
  Q 1433.47 853.38 1434.20 853.57
  A 0.19 0.19 0.0 0 1 1434.21 853.93
  Z"
/>
<path fill="#ffd508" d="
  M 779.72 858.58
  A 0.20 0.20 0.0 0 1 779.81 858.23
  Q 803.91 854.27 825.69 847.04
  A 0.31 0.30 83.7 0 1 826.08 847.36
  C 824.56 864.90 825.74 882.77 828.34 900.55
  A 0.59 0.59 0.0 0 1 827.66 901.22
  C 818.15 899.54 810.44 893.56 804.21 885.90
  C 796.01 875.82 789.23 866.62 779.72 858.58
  Z
  M 824.4384 882.8660
  A 0.17 0.17 0.0 0 0 824.2104 882.7897
  L 810.1779 889.7861
  A 0.17 0.17 0.0 0 0 810.1016 890.0140
  A 0.17 0.17 0.0 0 0 810.3296 890.0903
  L 824.3621 883.0939
  A 0.17 0.17 0.0 0 0 824.4384 882.8660
  Z"
/>
<path fill="#ffd508" d="
  M 950.73 884.16
  L 962.79 890.38
  A 0.23 0.22 -61.7 0 0 963.09 890.28
  L 963.09 890.27
  A 0.23 0.22 -62.9 0 0 963.00 889.97
  L 951.03 883.77
  L 947.45 881.73
  A 1.00 1.00 0.0 0 1 946.95 880.77
  Q 948.52 864.28 947.16 847.72
  A 0.43 0.42 -83.5 0 1 947.71 847.28
  Q 968.83 853.85 992.75 858.20
  A 0.37 0.37 0.0 0 1 992.92 858.84
  C 985.61 864.99 980.02 872.05 971.84 882.36
  C 964.46 891.66 956.79 898.64 945.19 901.40
  A 0.49 0.49 0.0 0 1 944.59 900.86
  L 946.87 882.37
  A 0.36 0.36 0.0 0 1 947.42 882.11
  L 950.73 884.16
  Z"
/>
<path fill="#ffffff" d="
  M 929.92 851.08
  A 0.15 0.15 0.0 0 1 930.19 851.00
  Q 932.38 854.53 937.99 862.83
  Q 939.23 864.68 939.19 866.79
  Q 939.04 875.23 938.03 887.69
  A 0.15 0.15 0.0 0 1 937.75 887.75
  L 930.30 874.84
  A 2.85 2.84 30.1 0 1 929.92 873.42
  L 929.92 851.08
  Z"
/>
<path fill="#ffffff" d="
  M 842.72 874.25
  L 835.81 886.22
  A 0.31 0.31 0.0 0 1 835.24 886.08
  L 833.97 865.74
  A 0.31 0.31 0.0 0 1 834.01 865.57
  L 842.18 851.40
  A 0.31 0.31 0.0 0 1 842.76 851.56
  L 842.76 874.10
  A 0.31 0.31 0.0 0 1 842.72 874.25
  Z"
/>
<path fill="#ffffff" d="
  M 462.16 922.16
  A 0.22 0.22 0.0 0 1 461.90 921.85
  Q 465.90 913.97 471.20 906.38
  Q 482.35 890.42 500.81 881.97
  Q 537.12 865.35 577.44 854.44
  C 583.21 852.88 589.18 853.65 597.49 854.53
  Q 598.53 854.64 656.25 862.23
  Q 695.02 867.33 727.43 865.15
  C 740.78 864.26 751.51 862.68 768.56 860.37
  A 3.58 3.56 -29.0 0 1 771.28 861.14
  C 781.72 869.67 788.81 879.82 797.30 890.84
  A 0.43 0.43 0.0 0 1 797.12 891.50
  C 776.85 899.79 755.67 906.04 733.19 911.88
  Q 708.00 918.44 683.09 925.77
  A 3.62 3.55 39.8 0 1 681.64 925.89
  Q 676.43 925.27 675.20 925.21
  C 652.54 924.07 638.42 920.51 608.83 914.37
  Q 594.70 911.44 576.27 908.93
  C 538.28 903.75 498.68 910.95 462.16 922.16
  Z"
/>
<path fill="#ffffff" d="
  M 1311.12 922.24
  C 1274.57 911.00 1234.94 903.77 1196.91 908.94
  Q 1178.47 911.44 1164.32 914.37
  C 1134.70 920.50 1120.57 924.05 1097.89 925.18
  Q 1096.66 925.24 1091.44 925.86
  A 3.62 3.56 -39.7 0 1 1089.99 925.74
  Q 1065.06 918.39 1039.85 911.81
  C 1017.36 905.95 996.16 899.69 975.88 891.38
  A 0.43 0.43 0.0 0 1 975.70 890.72
  C 984.20 879.69 991.30 869.54 1001.76 861.00
  A 3.59 3.56 29.0 0 1 1004.48 860.24
  C 1021.54 862.56 1032.28 864.14 1045.64 865.04
  Q 1078.08 867.24 1116.89 862.16
  Q 1174.66 854.59 1175.70 854.48
  C 1184.02 853.60 1190.00 852.83 1195.77 854.40
  Q 1236.12 865.34 1272.45 881.99
  Q 1290.92 890.46 1302.08 906.44
  Q 1307.38 914.04 1311.38 921.93
  A 0.22 0.22 0.0 0 1 1311.12 922.24
  Z"
/>
<path fill="#ff3e05" d="
  M 950.73 884.16
  Q 950.76 883.84 951.03 883.77
  L 963.00 889.97
  A 0.23 0.22 -62.9 0 1 963.09 890.27
  L 963.09 890.28
  A 0.23 0.22 -61.7 0 1 962.79 890.38
  L 950.73 884.16
  Z"
/>
<path fill="#ffffff" d="
  M 928.78 885.40
  A 0.19 0.19 0.0 0 1 929.13 885.34
  Q 933.04 892.45 935.64 898.12
  Q 936.37 899.72 935.84 902.77
  Q 931.19 929.50 922.23 957.07
  A 5.52 5.49 -12.0 0 1 920.66 959.47
  C 912.32 966.90 902.22 973.81 892.14 976.10
  C 879.01 979.08 863.82 970.37 854.02 961.99
  Q 851.39 959.73 850.42 956.81
  Q 841.04 928.31 836.60 898.84
  A 1.96 1.94 -34.5 0 1 836.84 897.58
  L 843.80 885.52
  A 0.33 0.33 0.0 0 1 844.42 885.67
  Q 845.00 894.15 849.18 909.01
  Q 853.27 923.60 859.96 935.23
  C 868.65 950.36 885.56 960.89 901.67 948.38
  C 914.85 938.13 921.67 918.94 925.47 902.42
  Q 927.20 894.87 928.78 885.40
  Z"
/>
<path fill="#ffffff" d="
  M 822.57 908.25
  A 0.25 0.25 0.0 0 1 822.66 908.66
  C 791.66 938.41 772.96 958.95 730.16 1003.66
  Q 714.26 1020.27 705.21 1029.22
  C 681.10 1053.09 653.35 1074.59 624.68 1092.03
  C 602.22 1105.70 577.50 1118.88 550.76 1120.26
  Q 545.47 1120.53 541.43 1119.64
  A 0.61 0.61 0.0 0 1 540.97 1118.94
  Q 541.81 1114.28 543.03 1110.00
  Q 554.03 1071.60 568.46 1031.61
  A 3.50 3.42 79.2 0 1 569.37 1030.24
  Q 584.52 1016.11 596.26 999.75
  Q 602.19 991.48 610.36 978.63
  Q 616.01 969.75 627.10 961.57
  C 643.92 949.17 663.82 939.67 682.98 932.69
  C 701.36 926.00 724.50 920.83 742.05 916.06
  Q 773.20 907.58 802.35 896.64
  A 1.31 1.29 55.1 0 1 803.69 896.89
  Q 811.76 904.25 822.57 908.25
  Z"
/>
<path fill="#ffffff" d="
  M 950.33 908.11
  Q 961.14 904.10 969.22 896.74
  A 1.31 1.29 -55.1 0 1 970.56 896.49
  Q 999.72 907.43 1030.89 915.90
  C 1048.45 920.67 1071.60 925.84 1089.99 932.53
  C 1109.16 939.51 1129.07 949.01 1145.90 961.41
  Q 1157.00 969.59 1162.65 978.47
  Q 1170.83 991.33 1176.77 999.60
  Q 1188.52 1015.97 1203.68 1030.10
  A 3.50 3.42 -79.2 0 1 1204.59 1031.47
  Q 1219.03 1071.47 1230.05 1109.89
  Q 1231.27 1114.17 1232.11 1118.83
  A 0.61 0.61 0.0 0 1 1231.65 1119.53
  Q 1227.61 1120.43 1222.31 1120.16
  C 1195.56 1118.78 1170.83 1105.60 1148.35 1091.93
  C 1119.67 1074.49 1091.90 1052.98 1067.77 1029.11
  Q 1058.72 1020.16 1042.80 1003.54
  C 999.97 958.82 981.26 938.27 950.24 908.52
  A 0.25 0.25 0.0 0 1 950.33 908.11
  Z"
/>
<path fill="#ffffff" d="
  M 829.69 911.00
  A 0.26 0.25 -88.5 0 1 829.87 911.20
  L 831.67 919.89
  A 1.63 1.59 -38.0 0 1 831.53 920.93
  C 807.31 967.80 785.66 1015.74 766.67 1063.65
  Q 755.74 1091.23 744.60 1125.33
  C 726.44 1180.90 716.49 1228.88 702.22 1290.41
  A 0.58 0.57 -79.4 0 1 701.59 1290.85
  Q 697.37 1290.23 693.83 1291.36
  Q 685.27 1294.07 682.21 1294.93
  C 676.37 1296.57 671.83 1293.50 667.52 1289.22
  Q 666.90 1288.61 658.76 1280.11
  A 9.52 9.47 7.4 0 1 657.53 1278.52
  Q 653.81 1272.44 651.83 1269.68
  C 645.97 1261.55 637.29 1260.89 628.05 1260.82
  A 0.44 0.44 0.0 0 1 627.63 1260.27
  Q 644.82 1196.96 651.70 1171.65
  C 662.81 1130.78 676.67 1089.23 693.48 1049.74
  A 5.82 5.71 -10.8 0 1 694.84 1047.78
  C 707.10 1036.10 724.11 1019.24 737.13 1005.46
  C 764.51 976.46 797.14 942.25 829.01 911.26
  Q 829.36 910.92 829.69 911.00
  Z"
/>
<path fill="#ffffff" d="
  M 942.94 911.27
  A 0.44 0.44 0.0 0 1 943.67 911.02
  Q 951.81 918.60 982.46 949.57
  C 1001.43 968.74 1045.79 1017.16 1078.89 1048.31
  A 1.79 1.66 -80.5 0 1 1079.30 1048.93
  C 1082.99 1058.80 1088.52 1070.84 1092.85 1082.65
  Q 1107.36 1122.20 1117.72 1158.76
  Q 1129.43 1200.09 1145.10 1260.12
  A 0.50 0.50 0.0 0 1 1144.65 1260.74
  Q 1138.94 1261.16 1136.28 1261.49
  C 1124.31 1262.94 1121.25 1269.52 1115.95 1278.84
  A 8.51 8.30 81.2 0 1 1115.03 1280.13
  Q 1111.31 1284.38 1104.64 1290.55
  C 1092.86 1301.44 1084.83 1289.84 1071.83 1290.66
  A 0.61 0.60 81.4 0 1 1071.21 1290.19
  Q 1071.19 1290.11 1069.72 1284.10
  Q 1066.62 1271.53 1052.07 1210.16
  Q 1042.84 1171.22 1032.07 1136.42
  Q 1026.18 1117.42 1012.89 1080.99
  Q 1003.92 1056.38 991.06 1026.43
  C 973.58 985.69 960.13 955.58 941.44 921.90
  A 2.08 2.02 36.4 0 1 941.21 920.51
  L 942.94 911.27
  Z"
/>
<path fill="#ffffff" d="
  M 667.89 930.99
  A 0.31 0.31 0.0 0 1 667.98 931.59
  C 648.31 939.87 629.51 950.25 613.95 964.55
  A 2.89 2.86 19.2 0 1 612.42 965.28
  Q 575.13 970.93 537.29 982.06
  Q 484.15 997.68 429.15 1018.20
  A 0.61 0.61 0.0 0 1 428.36 1017.42
  Q 430.08 1012.70 433.08 1007.56
  C 445.31 986.64 462.77 966.86 451.81 940.97
  C 450.20 937.16 449.46 933.47 453.77 931.76
  Q 460.18 929.21 468.40 926.91
  C 484.75 922.33 502.07 917.96 517.99 915.83
  Q 556.55 910.65 596.79 918.45
  Q 612.02 921.40 628.13 924.84
  Q 647.86 929.05 667.89 930.99
  Z"
/>
<path fill="#ffffff" d="
  M 1344.34 1017.86
  A 0.23 0.23 0.0 0 1 1344.04 1018.15
  Q 1339.89 1016.60 1306.30 1004.72
  Q 1264.68 990.01 1222.22 978.32
  Q 1191.08 969.74 1160.82 965.46
  A 2.60 2.56 -19.5 0 1 1159.43 964.81
  C 1154.62 960.45 1151.48 957.71 1147.92 955.20
  Q 1128.10 941.25 1104.75 931.55
  A 0.29 0.29 0.0 0 1 1104.84 930.99
  C 1128.32 929.25 1154.35 922.77 1173.86 918.87
  C 1201.21 913.40 1229.24 912.16 1257.05 916.18
  C 1275.03 918.78 1294.81 923.58 1311.67 928.77
  C 1315.46 929.93 1319.51 931.96 1322.41 934.23
  A 1.88 1.86 22.7 0 1 1323.11 935.91
  Q 1322.96 937.14 1322.15 939.18
  C 1317.77 950.24 1316.03 960.34 1320.08 971.68
  C 1324.51 984.09 1329.80 991.44 1339.15 1006.95
  Q 1342.32 1012.23 1344.34 1017.86
  Z"
/>
<path fill="#ffffff" d="
  M 938.10 934.16
  Q 938.39 934.48 938.47 934.77
  Q 954.60 996.96 959.24 1061.74
  Q 961.10 1087.61 961.88 1104.93
  Q 963.07 1131.14 964.16 1144.51
  C 966.05 1167.64 967.61 1188.40 971.40 1210.01
  A 0.29 0.28 0.7 0 1 971.06 1210.34
  Q 970.79 1210.28 970.61 1209.92
  Q 960.54 1190.06 951.80 1167.01
  C 937.40 1129.03 926.38 1088.81 918.09 1051.48
  Q 917.49 1048.80 917.90 1043.99
  C 919.41 1026.42 921.85 1007.39 924.97 990.87
  Q 928.97 969.78 929.39 966.72
  C 930.85 956.18 934.76 945.69 937.71 934.26
  A 0.23 0.23 0.0 0 1 938.10 934.16
  Z"
/>
<path fill="#ffffff" d="
  M 834.83 934.53
  A 0.23 0.23 0.0 0 1 835.22 934.63
  C 838.18 946.06 842.11 956.56 843.58 967.10
  Q 844.00 970.16 848.02 991.26
  C 851.15 1007.79 853.61 1026.83 855.14 1044.41
  Q 855.55 1049.22 854.95 1051.91
  C 846.69 1089.27 835.70 1129.52 821.32 1167.54
  Q 812.60 1190.61 802.54 1210.49
  Q 802.36 1210.85 802.09 1210.91
  A 0.29 0.28 -0.8 0 1 801.75 1210.58
  C 805.52 1188.96 807.06 1168.18 808.94 1145.04
  Q 810.01 1131.66 811.18 1105.43
  Q 811.95 1088.10 813.79 1062.21
  Q 818.37 997.38 834.46 935.14
  Q 834.54 934.85 834.83 934.53
  Z"
/>
<path fill="#ff3e05" d="
  M 341.41 1054.56
  A 0.82 0.82 0.0 0 1 340.26 1053.85
  Q 339.89 1046.46 340.94 1037.49
  Q 341.90 1029.30 345.65 1005.56
  Q 347.05 996.72 349.40 992.61
  Q 353.69 985.10 360.16 980.93
  Q 385.68 964.49 399.43 956.20
  Q 408.40 950.79 415.87 947.13
  A 1.07 1.07 0.0 0 1 417.24 947.50
  Q 423.79 957.39 427.23 967.99
  C 431.66 981.61 427.36 991.17 419.67 1003.58
  Q 413.86 1012.95 406.54 1020.78
  C 401.53 1026.15 396.39 1028.84 388.61 1032.86
  C 380.02 1037.30 369.36 1041.54 358.20 1046.88
  Q 351.65 1050.01 341.41 1054.56
  Z"
/>
<path fill="#ff3e05" d="
  M 1431.45 1054.31
  C 1419.26 1048.97 1408.44 1043.88 1396.93 1038.75
  Q 1386.20 1033.96 1375.50 1028.01
  Q 1371.70 1025.90 1368.35 1022.43
  Q 1356.00 1009.64 1347.55 992.89
  C 1343.51 984.88 1342.56 977.43 1345.13 969.60
  Q 1348.85 958.24 1356.06 947.59
  A 1.05 1.04 29.6 0 1 1357.37 947.23
  Q 1365.25 950.97 1372.99 955.77
  Q 1406.12 976.34 1415.74 983.49
  Q 1423.95 989.59 1426.38 1000.63
  Q 1430.96 1021.44 1432.65 1046.16
  Q 1432.91 1049.95 1432.33 1053.83
  A 0.63 0.63 0.0 0 1 1431.45 1054.31
  Z"
/>
<path fill="#ffffff" d="
  M 1066.38 1296.74
  Q 1063.66 1299.43 1059.70 1304.45
  C 1055.58 1309.65 1049.90 1306.79 1045.58 1303.99
  Q 1038.20 1299.20 1029.44 1292.09
  C 1024.78 1288.31 1016.86 1283.83 1010.52 1283.78
  Q 1009.90 1283.18 1009.41 1282.38
  Q 995.46 1259.26 983.79 1237.95
  Q 982.13 1234.91 981.49 1231.50
  Q 972.01 1180.62 969.17 1127.50
  Q 968.00 1105.60 966.17 1072.50
  Q 962.75 1010.94 948.71 950.56
  A 0.24 0.24 0.0 0 1 949.16 950.40
  Q 956.04 963.50 963.17 978.86
  C 994.89 1047.22 1021.19 1114.90 1039.51 1185.72
  Q 1049.08 1222.74 1055.11 1248.89
  Q 1063.08 1283.41 1066.38 1296.74
  Z"
/>
<path fill="#ffffff" d="
  M 763.23 1283.61
  C 757.73 1283.67 750.05 1287.67 746.28 1290.28
  Q 740.37 1294.38 733.77 1299.77
  C 729.13 1303.56 721.68 1309.50 715.83 1306.32
  Q 714.55 1305.62 711.04 1301.77
  Q 708.95 1299.47 706.34 1297.07
  Q 709.93 1284.04 711.38 1277.57
  Q 720.66 1235.93 731.36 1193.66
  Q 744.75 1140.82 763.00 1091.23
  Q 789.47 1019.31 823.73 950.61
  A 0.21 0.21 0.0 0 1 824.13 950.75
  Q 821.75 961.89 820.55 967.77
  Q 810.77 1015.53 807.66 1062.72
  Q 806.18 1085.20 803.76 1128.25
  Q 801.77 1163.59 799.53 1180.92
  Q 795.81 1209.71 791.00 1233.05
  C 790.62 1234.88 789.91 1237.04 789.17 1238.40
  Q 778.82 1257.47 765.98 1279.00
  Q 764.52 1281.44 763.23 1283.61
  Z"
/>
<path fill="#ffffff" d="
  M 410.01 1117.46
  Q 410.54 1111.55 413.55 1105.34
  Q 417.36 1097.48 421.04 1089.55
  Q 429.98 1070.28 427.40 1050.00
  Q 426.28 1041.18 424.56 1027.71
  A 1.64 1.64 0.0 0 1 425.62 1025.97
  C 469.99 1009.42 516.63 993.82 562.14 981.64
  Q 584.04 975.78 606.43 972.60
  A 0.18 0.18 0.0 0 1 606.61 972.87
  Q 599.21 984.86 590.26 997.48
  Q 580.51 1011.21 567.38 1023.65
  C 558.00 1032.54 546.84 1039.02 533.73 1046.74
  Q 474.26 1081.80 410.29 1117.65
  A 0.19 0.19 0.0 0 1 410.01 1117.46
  Z"
/>
<path fill="#ffffff" d="
  M 1363.26 1117.34
  A 0.19 0.19 0.0 0 1 1362.98 1117.53
  Q 1299.07 1081.79 1239.64 1046.83
  C 1226.55 1039.13 1215.39 1032.67 1206.02 1023.80
  Q 1192.90 1011.39 1183.15 997.69
  Q 1174.20 985.10 1166.80 973.13
  A 0.18 0.18 0.0 0 1 1166.98 972.86
  Q 1189.34 976.02 1211.21 981.85
  C 1256.67 993.97 1303.26 1009.50 1347.59 1025.99
  A 1.64 1.64 0.0 0 1 1348.65 1027.73
  Q 1346.94 1041.18 1345.83 1049.99
  Q 1343.27 1070.24 1352.22 1089.48
  Q 1355.90 1097.39 1359.71 1105.24
  Q 1362.73 1111.44 1363.26 1117.34
  Z"
/>
<path fill="#ffd508" d="
  M 908.50 1100.72
  A 0.21 0.21 0.0 0 1 908.09 1100.80
  Q 904.68 1090.99 902.21 1081.56
  Q 891.76 1041.60 913.12 1006.77
  A 0.24 0.24 0.0 0 1 913.57 1006.93
  C 911.72 1020.25 909.48 1037.08 908.85 1051.41
  Q 907.66 1078.03 908.50 1100.72
  Z"
/>
<path fill="#ffd508" d="
  M 864.96 1100.42
  Q 865.75 1077.84 864.51 1051.36
  C 863.86 1037.10 861.59 1020.36 859.73 1007.10
  A 0.24 0.24 0.0 0 1 860.17 1006.94
  Q 881.50 1041.56 871.18 1081.34
  Q 868.74 1090.73 865.37 1100.50
  A 0.21 0.21 0.0 0 1 864.96 1100.42
  Z"
/>
<path fill="#ffffff" d="
  M 559.10 1038.20
  A 0.27 0.27 0.0 0 1 559.50 1038.51
  Q 546.79 1074.19 536.28 1111.27
  Q 535.19 1115.12 534.62 1119.62
  A 2.52 2.52 0.0 0 1 533.73 1121.23
  Q 530.86 1123.62 527.90 1125.65
  Q 516.39 1133.56 504.36 1142.37
  Q 477.32 1162.16 457.51 1189.27
  A 0.44 0.44 0.0 0 1 456.83 1189.30
  Q 451.76 1183.58 443.75 1184.19
  Q 435.00 1184.86 431.01 1184.92
  C 415.76 1185.13 401.28 1175.92 405.48 1158.48
  C 408.53 1145.81 412.10 1136.60 410.69 1125.30
  A 0.85 0.83 72.2 0 1 411.10 1124.48
  Q 426.32 1115.48 429.80 1113.55
  Q 485.30 1082.69 541.83 1049.06
  Q 550.32 1044.01 559.10 1038.20
  Z"
/>
<path fill="#ffffff" d="
  M 1315.44 1188.91
  Q 1315.08 1188.46 1308.00 1179.49
  C 1290.40 1157.19 1266.85 1139.90 1242.26 1123.64
  Q 1241.01 1122.81 1239.09 1121.02
  A 2.04 2.03 -73.2 0 1 1238.46 1119.84
  C 1237.98 1116.91 1237.55 1114.33 1236.72 1111.38
  Q 1226.41 1074.60 1213.74 1038.38
  A 0.23 0.23 0.0 0 1 1214.08 1038.12
  Q 1238.44 1053.70 1264.52 1068.72
  Q 1314.64 1097.59 1362.54 1124.34
  A 0.78 0.78 0.0 0 1 1362.94 1125.10
  Q 1362.14 1133.44 1363.88 1141.71
  C 1367.30 1158.07 1373.95 1173.01 1357.54 1181.30
  C 1348.01 1186.11 1339.70 1184.74 1329.02 1184.18
  Q 1321.13 1183.77 1316.11 1188.94
  A 0.45 0.45 0.0 0 1 1315.44 1188.91
  Z"
/>
<path fill="#ff3e05" d="
  M 334.10 1160.16
  Q 332.06 1157.05 330.50 1155.30
  Q 315.70 1138.56 310.18 1131.36
  C 305.60 1125.38 300.26 1117.07 303.93 1109.16
  Q 306.12 1104.45 311.13 1098.34
  Q 321.31 1085.95 338.56 1064.53
  Q 340.45 1062.18 341.75 1061.53
  Q 357.43 1053.63 370.19 1047.95
  A 2.07 2.06 52.8 0 1 372.35 1048.25
  Q 386.25 1059.76 397.32 1073.47
  C 401.27 1078.35 405.48 1085.93 403.00 1092.10
  Q 401.91 1094.82 397.72 1101.23
  Q 393.03 1108.40 384.19 1119.22
  Q 373.30 1132.55 361.47 1145.10
  A 12.43 12.36 6.5 0 1 358.69 1147.30
  L 335.74 1160.55
  A 1.23 1.22 -31.4 0 1 334.10 1160.16
  Z"
/>
<path fill="#ff3e05" d="
  M 1439.31 1159.90
  A 1.23 1.22 31.1 0 1 1437.68 1160.30
  L 1414.69 1147.19
  A 12.41 12.34 -6.8 0 1 1411.91 1145.01
  Q 1400.03 1132.55 1389.08 1119.30
  Q 1380.20 1108.54 1375.48 1101.41
  Q 1371.26 1095.03 1370.16 1092.32
  C 1367.65 1086.18 1371.81 1078.59 1375.73 1073.69
  Q 1386.70 1059.95 1400.52 1048.38
  A 2.07 2.06 -53.1 0 1 1402.67 1048.07
  Q 1415.44 1053.67 1431.14 1061.47
  Q 1432.44 1062.11 1434.34 1064.45
  Q 1451.68 1085.74 1461.91 1098.06
  Q 1466.94 1104.13 1469.16 1108.82
  C 1472.86 1116.70 1467.58 1125.02 1463.04 1131.02
  Q 1457.56 1138.23 1442.88 1155.03
  Q 1441.33 1156.78 1439.31 1159.90
  Z"
/>
<path fill="#ffffff" d="
  M 682.56 1058.15
  A 0.13 0.13 0.0 0 1 682.76 1058.30
  Q 670.76 1089.20 659.68 1123.16
  Q 654.31 1139.60 642.36 1182.53
  Q 633.23 1215.30 621.83 1259.11
  A 1.29 1.29 0.0 0 1 620.65 1260.07
  C 614.05 1260.38 606.04 1259.72 601.78 1254.41
  Q 597.44 1248.97 595.24 1246.56
  C 588.58 1239.20 577.97 1240.38 569.19 1243.72
  Q 566.16 1244.87 551.66 1250.70
  Q 544.51 1253.58 537.14 1252.80
  A 0.59 0.59 0.0 0 1 536.66 1251.98
  Q 541.47 1240.61 545.39 1231.88
  Q 572.25 1172.00 600.21 1113.54
  A 3.38 3.34 -0.7 0 1 601.77 1111.96
  Q 613.21 1106.37 624.01 1099.76
  Q 655.33 1080.61 682.56 1058.15
  Z"
/>
<path fill="#ffffff" d="
  M 1090.71 1058.16
  Q 1117.90 1080.64 1149.19 1099.82
  Q 1159.98 1106.43 1171.41 1112.03
  A 3.38 3.34 0.8 0 1 1172.96 1113.61
  Q 1200.85 1172.08 1227.63 1231.96
  Q 1231.54 1240.69 1236.34 1252.06
  A 0.59 0.59 0.0 0 1 1235.86 1252.88
  Q 1228.49 1253.65 1221.35 1250.76
  Q 1206.86 1244.92 1203.83 1243.77
  C 1195.06 1240.42 1184.45 1239.23 1177.79 1246.58
  Q 1175.59 1248.99 1171.24 1254.42
  C 1166.98 1259.72 1158.97 1260.37 1152.38 1260.06
  A 1.29 1.29 0.0 0 1 1151.20 1259.10
  Q 1139.85 1215.29 1130.76 1182.53
  Q 1118.86 1139.61 1113.51 1123.17
  Q 1102.47 1089.21 1090.51 1058.31
  A 0.13 0.13 0.0 0 1 1090.71 1058.16
  Z"
/>
<path fill="#ffffff" d="
  M 1182.12 1116.52
  C 1194.98 1121.78 1207.73 1125.46 1221.25 1126.32
  Q 1227.18 1126.70 1232.88 1125.59
  A 1.90 1.88 -34.1 0 1 1234.27 1125.85
  Q 1260.26 1142.31 1281.80 1160.65
  Q 1297.15 1173.71 1311.31 1194.86
  A 8.02 7.81 19.5 0 1 1312.25 1196.76
  C 1314.29 1202.89 1313.68 1212.65 1308.10 1217.04
  C 1304.05 1220.21 1297.98 1220.75 1293.01 1220.40
  C 1284.53 1219.80 1277.62 1219.25 1269.99 1221.23
  Q 1263.25 1222.98 1259.91 1229.93
  C 1256.00 1238.09 1251.96 1246.01 1243.73 1250.93
  A 0.45 0.44 -27.1 0 1 1243.09 1250.73
  L 1181.84 1116.80
  A 0.22 0.21 -0.8 0 1 1182.12 1116.52
  Z"
/>
<path fill="#ffffff" d="
  M 591.10 1117.12
  Q 591.01 1118.43 590.35 1119.82
  Q 559.89 1183.76 530.32 1250.89
  A 0.73 0.73 0.0 0 1 529.29 1251.23
  Q 521.58 1246.78 517.81 1239.18
  Q 511.93 1227.30 511.75 1226.98
  C 508.35 1220.94 502.93 1220.22 496.38 1219.86
  Q 490.41 1219.52 481.84 1220.37
  C 472.07 1221.33 462.74 1219.66 460.47 1208.39
  Q 459.35 1202.78 460.45 1197.74
  Q 460.85 1195.88 463.78 1191.78
  Q 476.68 1173.64 490.81 1161.31
  C 505.43 1148.57 521.14 1137.43 537.44 1126.15
  A 2.35 2.29 -59.6 0 1 538.93 1125.74
  Q 540.66 1125.85 545.50 1126.30
  Q 551.40 1126.85 560.51 1125.51
  Q 575.96 1123.24 590.59 1116.76
  A 0.37 0.36 80.2 0 1 591.10 1117.12
  Z"
/>
<path fill="#ffd508" d="
  M 870.51 1148.91
  C 870.10 1156.01 866.46 1163.48 862.06 1168.89
  A 0.41 0.41 0.0 0 1 861.34 1168.62
  Q 861.44 1161.58 862.20 1148.42
  Q 862.96 1135.27 863.68 1128.26
  A 0.41 0.41 0.0 0 1 864.43 1128.08
  C 868.17 1133.96 870.92 1141.80 870.51 1148.91
  Z"
/>
<path fill="#ffd508" d="
  M 909.96 1128.37
  L 912.48 1168.62
  A 0.69 0.69 0.0 0 1 911.58 1169.33
  C 910.59 1169.03 909.36 1167.98 908.84 1167.15
  Q 896.62 1147.70 909.32 1128.20
  A 0.35 0.35 0.0 0 1 909.96 1128.37
  Z"
/>
<path fill="#ffd508" d="
  M 1426.92 1217.27
  A 3.02 3.02 0.0 0 1 1423.77 1216.58
  C 1408.34 1201.41 1395.65 1181.30 1390.37 1160.56
  C 1389.59 1157.49 1389.30 1154.43 1391.28 1151.93
  C 1393.49 1149.13 1399.04 1148.73 1402.02 1149.28
  C 1406.00 1150.01 1411.40 1152.51 1415.57 1154.94
  Q 1424.11 1159.91 1436.84 1167.30
  A 6.13 6.10 89.0 0 1 1438.90 1169.30
  Q 1443.24 1176.20 1445.60 1181.62
  C 1447.31 1185.54 1448.13 1188.77 1445.53 1192.44
  Q 1431.71 1211.95 1428.87 1215.62
  Q 1427.86 1216.93 1426.92 1217.27
  Z"
/>
<path fill="#ffd508" d="
  M 346.27 1217.17
  Q 345.33 1216.83 344.32 1215.52
  Q 341.49 1211.86 327.71 1192.39
  C 325.12 1188.73 325.94 1185.51 327.65 1181.59
  Q 330.00 1176.19 334.34 1169.31
  A 6.12 6.09 -89.0 0 1 336.39 1167.31
  Q 349.09 1159.94 357.62 1154.99
  C 361.78 1152.56 367.17 1150.07 371.14 1149.35
  C 374.11 1148.80 379.65 1149.20 381.85 1151.99
  C 383.83 1154.49 383.54 1157.54 382.76 1160.60
  C 377.48 1181.29 364.81 1201.35 349.41 1216.48
  A 3.02 3.01 -57.3 0 1 346.27 1217.17
  Z"
/>
<path fill="#ffffff" d="
  M 861.66 1209.01
  L 860.63 1181.64
  A 0.82 0.81 8.5 0 1 861.72 1180.84
  Q 870.35 1183.86 870.11 1191.21
  C 869.95 1195.98 865.30 1204.32 862.48 1209.21
  A 0.44 0.44 0.0 0 1 861.66 1209.01
  Z"
/>
<path fill="#ffffff" d="
  M 911.34 1208.73
  A 0.43 0.43 0.0 0 1 910.53 1208.91
  C 907.84 1204.05 903.41 1195.78 903.33 1191.08
  Q 903.22 1183.85 911.75 1181.03
  A 0.81 0.80 -7.6 0 1 912.81 1181.83
  L 911.34 1208.73
  Z"
/>
<path fill="#ff3e05" d="
  M 346.16 1267.87
  Q 348.43 1261.90 349.18 1260.45
  C 360.55 1238.65 369.07 1222.18 376.23 1206.65
  A 5.35 4.87 77.8 0 1 376.70 1205.84
  Q 377.80 1204.28 378.65 1202.43
  Q 396.90 1198.11 416.09 1199.83
  Q 418.26 1200.03 422.32 1201.17
  Q 426.59 1202.37 426.58 1207.58
  Q 426.57 1212.94 425.12 1219.63
  C 420.01 1243.24 413.88 1264.49 402.15 1285.04
  A 0.93 0.93 0.0 0 1 401.07 1285.46
  C 385.76 1280.76 369.87 1277.25 354.36 1273.20
  Q 348.65 1271.71 346.16 1267.87
  Z"
/>
<path fill="#ff3e05" d="
  M 1395.84 1202.99
  Q 1397.23 1205.55 1399.17 1210.31
  Q 1402.46 1218.37 1416.65 1246.36
  Q 1422.95 1258.79 1425.63 1264.93
  Q 1425.90 1265.56 1425.97 1266.74
  Q 1426.05 1268.11 1426.74 1268.37
  Q 1424.56 1271.17 1422.30 1272.08
  Q 1416.02 1274.60 1405.56 1277.05
  Q 1389.52 1280.79 1371.84 1285.65
  A 0.86 0.85 66.5 0 1 1370.87 1285.26
  C 1358.83 1264.47 1352.39 1242.48 1347.64 1219.15
  Q 1346.33 1212.72 1346.38 1207.78
  Q 1346.43 1202.68 1351.48 1201.25
  Q 1355.88 1200.01 1361.50 1199.70
  Q 1379.34 1198.72 1395.84 1202.99
  Z"
/>
<path fill="#ffd508" d="
  M 378.65 1202.43
  Q 377.80 1204.28 376.70 1205.84
  A 5.35 4.87 77.8 0 0 376.23 1206.65
  C 369.07 1222.18 360.55 1238.65 349.18 1260.45
  Q 348.43 1261.90 346.16 1267.87
  Q 343.66 1263.06 343.64 1257.99
  Q 343.59 1243.49 348.48 1229.71
  Q 349.92 1225.63 352.34 1222.84
  Q 360.34 1213.59 364.38 1208.73
  A 8.08 8.06 -79.9 0 1 367.86 1206.30
  L 378.65 1202.43
  Z"
/>
<path fill="#ffd508" d="
  M 1426.74 1268.37
  Q 1426.05 1268.11 1425.97 1266.74
  Q 1425.90 1265.56 1425.63 1264.93
  Q 1422.95 1258.79 1416.65 1246.36
  Q 1402.46 1218.37 1399.17 1210.31
  Q 1397.23 1205.55 1395.84 1202.99
  Q 1400.20 1204.74 1403.97 1206.03
  C 1408.58 1207.62 1410.36 1210.66 1413.17 1214.23
  C 1416.23 1218.09 1420.02 1221.87 1422.32 1225.42
  Q 1424.48 1228.75 1426.02 1234.02
  C 1429.11 1244.62 1432.33 1258.74 1426.74 1268.37
  Z"
/>
<path fill="#ffffff" d="
  M 908.80 1221.15
  Q 909.08 1221.30 908.16 1225.25
  A 0.55 0.54 14.9 0 1 907.47 1225.65
  Q 907.23 1225.58 906.61 1225.24
  Q 905.99 1224.91 905.80 1224.75
  A 0.55 0.54 41.5 0 1 905.75 1223.95
  Q 908.53 1221.01 908.80 1221.15
  Z"
/>
<path fill="#ffffff" d="
  M 865.59 1222.48
  A 0.29 0.29 0.0 0 1 865.86 1222.18
  L 866.05 1222.17
  A 1.47 1.44 87.1 0 1 867.56 1223.56
  L 867.57 1223.80
  A 1.47 1.44 87.1 0 1 866.21 1225.34
  L 866.02 1225.35
  A 0.29 0.29 0.0 0 1 865.72 1225.08
  L 865.59 1222.48
  Z"
/>
<path fill="#ff3e05" d="
  M 429.05 1360.52
  Q 429.59 1356.46 432.00 1341.01
  Q 437.08 1308.57 440.79 1261.16
  Q 459.09 1253.63 478.27 1248.41
  Q 483.25 1247.06 487.99 1247.07
  C 491.95 1247.08 495.24 1253.07 496.63 1256.80
  Q 502.54 1272.67 504.63 1280.13
  Q 507.08 1288.91 509.32 1295.64
  A 1.77 1.73 -42.2 0 1 509.24 1296.96
  L 488.54 1340.76
  A 1.64 1.63 8.9 0 1 487.29 1341.67
  Q 474.68 1343.40 461.92 1348.48
  Q 445.96 1354.84 429.05 1360.52
  Z"
/>
<path fill="#ff3e05" d="
  M 1332.55 1261.55
  Q 1336.19 1310.95 1343.32 1360.01
  Q 1324.10 1353.61 1306.70 1346.78
  Q 1300.76 1344.45 1284.50 1340.86
  A 1.15 1.12 83.2 0 1 1283.72 1340.23
  L 1264.00 1297.09
  A 4.01 3.97 44.4 0 1 1263.95 1293.88
  Q 1265.35 1290.52 1266.20 1287.74
  Q 1273.38 1264.22 1277.18 1255.45
  C 1280.42 1247.99 1282.94 1245.61 1291.57 1247.87
  Q 1312.75 1253.43 1332.55 1261.55
  Z"
/>
<path fill="#ff3e05" d="
  M 523.16 1408.90
  Q 520.45 1355.20 515.52 1301.28
  A 2.93 2.80 50.4 0 1 515.59 1300.30
  Q 516.03 1298.49 515.39 1297.89
  Q 517.41 1293.25 518.51 1292.02
  Q 531.71 1277.24 544.83 1265.59
  Q 550.60 1260.47 555.51 1257.28
  C 559.95 1254.40 562.87 1252.85 568.15 1254.16
  Q 572.05 1255.13 576.22 1258.31
  C 589.68 1268.56 599.84 1284.19 610.22 1297.06
  A 2.09 2.09 0.0 0 1 610.61 1298.92
  Q 601.32 1332.68 591.54 1364.31
  Q 590.46 1367.80 589.45 1369.75
  A 4.36 4.35 -3.7 0 1 588.05 1371.34
  C 585.03 1373.37 581.84 1375.30 578.97 1377.54
  Q 561.79 1391.00 548.06 1401.30
  Q 539.52 1407.71 530.74 1411.03
  Q 526.77 1412.53 523.16 1408.90
  Z"
/>
<path fill="#ff3e05" d="
  M 1258.60 1299.46
  Q 1255.16 1325.01 1253.73 1347.25
  Q 1250.85 1392.05 1249.67 1408.75
  Q 1246.54 1412.48 1241.74 1410.76
  C 1234.49 1408.17 1227.31 1402.82 1221.33 1398.18
  Q 1199.12 1380.94 1197.36 1379.65
  Q 1190.65 1374.74 1184.46 1371.46
  A 3.67 3.67 0.0 0 1 1182.66 1369.24
  L 1162.22 1299.04
  A 1.55 1.54 55.7 0 1 1162.47 1297.69
  Q 1175.60 1280.41 1181.69 1272.93
  Q 1187.26 1266.10 1193.51 1260.52
  C 1198.38 1256.17 1205.00 1252.30 1211.49 1254.34
  Q 1214.76 1255.37 1219.21 1258.71
  Q 1228.83 1265.92 1233.63 1270.63
  Q 1250.19 1286.89 1254.05 1291.21
  Q 1257.25 1294.80 1258.60 1299.46
  Z"
/>
<path fill="#ffd508" d="
  M 440.79 1261.16
  Q 437.08 1308.57 432.00 1341.01
  Q 429.59 1356.46 429.05 1360.52
  L 426.28 1361.26
  A 1.93 1.92 69.8 0 1 424.06 1360.23
  Q 421.72 1355.30 420.40 1350.07
  C 415.34 1330.05 411.25 1310.69 406.35 1291.55
  A 1.11 1.10 53.3 0 1 406.47 1290.72
  Q 408.85 1286.56 415.21 1275.95
  C 416.33 1274.08 417.54 1272.86 419.61 1271.76
  Q 430.03 1266.21 440.79 1261.16
  Z"
/>
<path fill="#ffd508" d="
  M 1332.55 1261.55
  Q 1342.61 1266.47 1352.10 1271.41
  C 1355.04 1272.95 1356.50 1273.93 1358.18 1276.66
  Q 1361.33 1281.78 1366.71 1290.58
  A 1.83 1.81 36.1 0 1 1366.93 1291.92
  Q 1360.58 1318.94 1352.01 1351.50
  Q 1350.97 1355.45 1348.50 1359.87
  A 2.00 1.99 -67.4 0 1 1346.23 1360.81
  L 1343.32 1360.01
  Q 1336.19 1310.95 1332.55 1261.55
  Z"
/>
<path fill="#ff3e05" d="
  M 627.51 1407.86
  Q 626.41 1394.80 625.03 1385.00
  Q 620.69 1354.17 614.58 1316.82
  Q 614.45 1316.06 614.40 1313.95
  Q 614.34 1311.73 613.21 1311.57
  L 616.74 1299.05
  A 14.01 13.87 70.6 0 1 618.72 1294.87
  C 621.72 1290.57 637.34 1272.17 643.94 1277.89
  Q 650.94 1283.97 654.22 1290.83
  Q 658.25 1299.25 659.40 1301.35
  C 662.30 1306.65 665.32 1306.39 670.85 1304.87
  C 680.13 1302.32 688.41 1299.94 696.21 1307.54
  A 2.18 2.17 -61.5 0 1 696.81 1309.58
  Q 695.39 1315.92 693.48 1322.24
  C 687.18 1343.07 682.80 1356.79 675.10 1373.33
  A 1.17 1.16 -84.8 0 1 674.35 1373.96
  Q 659.76 1377.94 648.71 1388.75
  Q 641.92 1395.41 635.63 1402.12
  Q 632.06 1405.92 627.51 1407.86
  Z"
/>
<path fill="#ff3e05" d="
  M 1159.60 1311.95
  Q 1158.92 1313.65 1158.72 1315.50
  Q 1158.39 1318.52 1158.38 1318.62
  Q 1151.03 1362.77 1144.66 1407.29
  Q 1141.46 1405.75 1139.76 1403.99
  Q 1133.29 1397.27 1124.83 1388.95
  Q 1113.62 1377.92 1098.62 1373.82
  A 1.60 1.60 0.0 0 1 1097.59 1372.94
  C 1088.33 1352.76 1081.81 1330.81 1076.16 1309.65
  A 1.31 1.31 0.0 0 1 1076.54 1308.34
  C 1083.09 1302.39 1090.21 1301.57 1098.42 1303.89
  Q 1099.31 1304.14 1106.26 1305.68
  Q 1111.36 1306.81 1113.71 1301.69
  C 1116.75 1295.09 1125.41 1270.92 1136.83 1278.44
  Q 1146.73 1284.96 1154.67 1295.81
  A 8.69 8.59 -70.8 0 1 1156.06 1298.72
  L 1159.60 1311.95
  Z"
/>
<path fill="#ff3e05" d="
  M 763.23 1283.61
  Q 750.69 1304.12 732.63 1329.13
  Q 717.40 1350.22 704.12 1364.33
  C 700.90 1367.75 697.44 1370.87 693.92 1373.16
  C 691.19 1374.93 685.56 1374.01 682.39 1373.88
  A 0.59 0.58 -77.3 0 1 681.88 1373.07
  Q 696.90 1336.18 706.34 1297.07
  Q 708.95 1299.47 711.04 1301.77
  Q 714.55 1305.62 715.83 1306.32
  C 721.68 1309.50 729.13 1303.56 733.77 1299.77
  Q 740.37 1294.38 746.28 1290.28
  C 750.05 1287.67 757.73 1283.67 763.23 1283.61
  Z"
/>
<path fill="#ff3e05" d="
  M 1066.38 1296.74
  C 1070.71 1312.70 1075.12 1329.94 1080.10 1344.24
  Q 1084.95 1358.20 1090.94 1372.98
  A 0.54 0.54 0.0 0 1 1090.50 1373.72
  Q 1085.66 1374.26 1081.81 1374.35
  Q 1080.24 1374.39 1077.90 1372.34
  Q 1070.74 1366.04 1066.39 1361.13
  C 1045.94 1338.08 1027.87 1312.77 1011.36 1285.88
  Q 1011.01 1285.31 1010.52 1283.78
  C 1016.86 1283.83 1024.78 1288.31 1029.44 1292.09
  Q 1038.20 1299.20 1045.58 1303.99
  C 1049.90 1306.79 1055.58 1309.65 1059.70 1304.45
  Q 1063.66 1299.43 1066.38 1296.74
  Z"
/>
<path fill="#ffd508" d="
  M 515.39 1297.89
  Q 516.03 1298.49 515.59 1300.30
  A 2.93 2.80 50.4 0 0 515.52 1301.28
  Q 520.45 1355.20 523.16 1408.90
  Q 521.60 1406.38 519.45 1403.04
  Q 516.74 1398.85 512.72 1389.57
  Q 503.27 1367.78 493.33 1346.37
  A 1.92 1.89 -45.2 0 1 493.34 1344.76
  L 515.39 1297.89
  Z"
/>
<path fill="#ffd508" d="
  M 1258.60 1299.46
  L 1279.60 1345.19
  A 1.74 1.72 -45.7 0 1 1279.61 1346.60
  Q 1269.05 1370.70 1257.91 1394.68
  Q 1254.14 1402.82 1249.67 1408.75
  Q 1250.85 1392.05 1253.73 1347.25
  Q 1255.16 1325.01 1258.60 1299.46
  Z"
/>
<path fill="#ffd508" d="
  M 627.51 1407.86
  Q 626.43 1408.45 626.06 1408.18
  Q 624.57 1407.11 623.59 1405.36
  Q 618.99 1397.21 613.91 1387.85
  C 609.94 1380.54 605.10 1373.72 597.02 1370.54
  A 0.78 0.77 18.8 0 1 596.56 1369.61
  L 613.21 1311.57
  Q 614.34 1311.73 614.40 1313.95
  Q 614.45 1316.06 614.58 1316.82
  Q 620.69 1354.17 625.03 1385.00
  Q 626.41 1394.80 627.51 1407.86
  Z"
/>
<path fill="#ffd508" d="
  M 1159.60 1311.95
  L 1176.95 1370.39
  A 0.24 0.24 0.0 0 1 1176.81 1370.67
  C 1169.84 1373.50 1165.21 1378.88 1161.26 1385.26
  Q 1157.42 1391.43 1149.68 1404.98
  Q 1148.68 1406.72 1147.26 1407.71
  Q 1146.19 1408.45 1144.66 1407.29
  Q 1151.03 1362.77 1158.38 1318.62
  Q 1158.39 1318.52 1158.72 1315.50
  Q 1158.92 1313.65 1159.60 1311.95
  Z"
/>
</svg>
