<?xml version="1.0" encoding="UTF-8" standalone="no"?>
<!DOCTYPE svg PUBLIC "-//W3C//DTD SVG 1.1//EN" "http://www.w3.org/Graphics/SVG/1.1/DTD/svg11.dtd">
<svg xmlns="http://www.w3.org/2000/svg" version="1.1" viewBox="0.00 0.00 1773.00 1773.00" width="6139.72" height="6139.72">
<path fill="#ceeb40" d="
  M 1773.00 0.00
  L 1773.00 1773.00
  L 0.00 1773.00
  L 0.00 0.00
  L 1773.00 0.00
  Z
  M 747.78 1229.48
  Q 745.67 1247.15 744.38 1255.93
  C 740.54 1282.09 733.16 1308.33 721.54 1332.17
  C 711.64 1352.47 699.32 1371.75 686.13 1389.88
  C 683.65 1393.29 681.51 1398.35 684.05 1402.00
  C 687.23 1406.57 693.31 1407.64 697.41 1403.60
  Q 699.50 1401.54 700.55 1400.03
  Q 715.41 1378.50 729.53 1353.69
  C 735.86 1342.56 741.39 1330.39 745.94 1320.20
  C 757.66 1293.98 766.11 1266.29 768.16 1237.74
  Q 769.30 1221.86 769.91 1205.25
  A 4.17 4.14 -24.9 0 1 770.81 1202.82
  Q 789.56 1179.16 806.11 1152.87
  Q 825.04 1122.79 840.61 1082.68
  Q 840.63 1082.62 840.73 1082.13
  Q 840.79 1081.83 841.03 1081.68
  A 0.21 0.21 0.0 0 1 841.35 1081.82
  C 844.43 1099.46 845.92 1116.58 844.43 1134.74
  Q 842.82 1154.40 841.95 1167.75
  Q 840.67 1187.58 844.70 1209.78
  Q 850.74 1242.97 865.55 1273.48
  Q 870.11 1282.87 877.01 1288.17
  C 885.11 1294.37 894.53 1291.47 900.67 1283.91
  C 908.08 1274.79 911.61 1265.84 916.49 1252.96
  C 924.63 1231.45 929.53 1209.64 931.03 1186.94
  C 932.18 1169.45 929.72 1149.70 928.44 1131.27
  Q 927.69 1120.39 927.98 1114.99
  Q 928.84 1098.56 931.64 1082.10
  A 0.29 0.29 0.0 0 1 932.20 1082.04
  C 941.79 1107.34 954.39 1133.47 969.69 1157.29
  Q 985.05 1181.19 1002.05 1202.01
  A 4.00 3.98 -65.6 0 1 1002.95 1204.42
  Q 1003.31 1214.76 1004.05 1230.74
  Q 1005.07 1252.57 1011.26 1274.99
  C 1019.74 1305.69 1032.45 1335.71 1049.29 1363.62
  Q 1061.36 1383.61 1070.66 1397.12
  Q 1074.58 1402.80 1076.65 1404.24
  C 1082.14 1408.04 1090.32 1404.36 1089.83 1397.32
  Q 1089.52 1392.90 1086.65 1389.09
  Q 1071.60 1369.08 1057.31 1343.44
  C 1041.66 1315.36 1032.65 1284.45 1028.29 1252.25
  Q 1026.31 1237.69 1025.29 1229.41
  A 0.18 0.18 0.0 0 1 1025.60 1229.27
  Q 1043.13 1248.57 1065.81 1267.01
  C 1075.62 1274.99 1096.06 1290.04 1110.64 1303.38
  Q 1121.04 1312.90 1134.18 1325.85
  Q 1136.41 1328.04 1148.13 1340.57
  Q 1181.98 1376.76 1230.79 1392.72
  Q 1241.60 1396.25 1252.19 1398.13
  Q 1272.29 1401.70 1290.20 1391.63
  Q 1292.65 1390.26 1303.07 1384.08
  Q 1313.70 1377.77 1325.16 1374.46
  Q 1337.81 1370.81 1338.39 1370.63
  Q 1354.95 1365.52 1366.73 1351.20
  Q 1367.56 1350.19 1381.52 1332.79
  Q 1391.67 1320.15 1407.39 1312.13
  C 1421.18 1305.10 1432.28 1299.13 1441.92 1288.18
  C 1453.12 1275.44 1456.91 1258.87 1462.09 1243.59
  Q 1467.68 1227.09 1478.05 1213.30
  C 1484.21 1205.11 1492.66 1195.42 1499.06 1185.32
  Q 1507.22 1172.45 1510.29 1157.03
  C 1513.86 1139.08 1516.73 1121.41 1524.25 1104.69
  C 1532.80 1085.66 1539.56 1065.96 1538.08 1045.04
  C 1536.80 1026.93 1530.33 1011.18 1522.49 994.50
  C 1517.02 982.85 1512.69 971.21 1509.42 961.58
  Q 1504.43 946.88 1496.10 935.71
  C 1487.68 924.42 1477.62 914.60 1465.14 906.44
  C 1444.18 892.72 1422.13 881.92 1398.56 871.76
  A 0.33 0.33 0.0 0 1 1398.71 871.13
  Q 1428.61 872.50 1457.94 870.11
  C 1485.82 867.83 1513.87 862.06 1538.10 849.60
  Q 1554.41 841.21 1564.25 831.00
  Q 1582.55 811.99 1591.57 785.84
  C 1598.58 765.52 1603.04 743.45 1608.71 722.76
  C 1614.28 702.42 1619.02 683.45 1619.10 664.73
  C 1619.22 638.55 1618.86 627.80 1620.87 607.06
  Q 1625.62 557.95 1635.83 510.53
  Q 1640.30 489.74 1643.95 468.85
  Q 1651.27 426.93 1645.44 386.66
  Q 1641.80 361.46 1634.38 334.15
  Q 1632.09 325.75 1628.55 316.14
  C 1623.77 303.21 1618.77 291.71 1610.72 281.35
  C 1600.45 268.16 1587.92 260.71 1571.91 257.12
  Q 1546.55 251.44 1519.29 254.87
  C 1494.37 258.02 1470.31 263.97 1446.01 271.54
  Q 1431.77 275.98 1416.75 282.19
  Q 1394.35 291.46 1388.08 294.35
  Q 1366.74 304.17 1334.61 321.38
  Q 1301.55 339.09 1268.30 361.80
  Q 1210.90 400.99 1161.06 446.07
  Q 1124.17 479.43 1099.45 506.20
  Q 1076.95 530.56 1065.62 544.11
  Q 1039.58 575.26 1017.02 607.28
  Q 975.27 666.53 946.35 732.47
  A 0.40 0.40 0.0 0 1 945.59 732.40
  C 942.35 719.23 932.56 708.92 918.94 705.76
  Q 914.87 704.82 910.84 705.27
  A 0.38 0.38 0.0 0 1 910.43 704.80
  C 918.36 675.56 930.52 647.58 944.73 620.72
  C 968.48 575.80 998.13 533.98 1025.02 488.56
  Q 1036.82 468.64 1042.48 458.49
  Q 1047.01 450.39 1055.56 437.85
  Q 1069.11 417.96 1081.69 396.45
  C 1086.46 388.31 1112.28 343.50 1097.83 337.88
  C 1090.28 334.95 1079.35 353.10 1076.67 358.70
  Q 1071.58 369.33 1067.64 379.13
  Q 1054.87 410.92 1048.91 424.67
  Q 1042.46 439.54 1036.84 449.86
  C 1025.56 470.56 1013.14 491.65 1000.13 512.33
  C 988.50 530.81 965.12 566.56 951.93 589.38
  Q 939.13 611.52 929.33 631.06
  Q 914.51 660.57 904.22 693.63
  A 0.43 0.42 26.2 0 1 903.56 693.85
  L 902.58 693.16
  A 1.45 1.44 22.7 0 1 901.99 691.73
  L 907.15 662.28
  A 4.57 4.57 0.0 0 0 904.26 657.21
  L 904.09 657.15
  A 3.67 3.66 18.8 0 0 899.23 659.53
  Q 892.37 682.96 891.43 706.36
  C 891.35 708.40 891.08 711.45 890.43 712.95
  Q 887.50 719.70 886.64 721.91
  A 0.50 0.50 0.0 0 1 885.75 721.99
  Q 882.06 715.82 881.68 708.48
  Q 880.52 686.71 875.44 665.29
  C 874.89 662.98 874.60 660.14 873.12 658.39
  C 870.54 655.36 866.48 656.82 866.12 660.27
  Q 865.81 663.19 866.25 665.28
  Q 869.41 680.46 870.50 693.30
  A 0.55 0.54 -56.7 0 1 869.44 693.52
  Q 855.24 650.95 834.29 612.73
  Q 820.78 588.09 812.53 574.71
  Q 805.98 564.10 776.81 518.17
  Q 755.86 485.18 737.15 451.59
  C 731.01 440.57 725.41 428.10 720.64 416.86
  Q 718.15 410.99 704.66 377.33
  Q 699.46 364.35 694.57 355.37
  C 691.76 350.20 682.15 334.95 674.71 338.29
  C 664.13 343.04 677.81 372.11 681.58 379.20
  Q 692.27 399.30 706.28 420.97
  C 713.38 431.95 721.21 442.53 727.83 453.94
  Q 745.47 484.32 748.02 488.72
  C 763.03 514.59 797.40 565.61 819.26 604.31
  Q 828.13 620.02 839.13 642.91
  Q 851.16 667.93 859.50 693.11
  C 860.87 697.24 860.99 701.22 861.96 705.35
  A 0.49 0.48 -6.4 0 1 861.48 705.95
  C 844.27 705.65 831.37 715.78 827.30 732.37
  A 0.36 0.35 -50.0 0 1 826.63 732.43
  C 784.36 634.79 718.60 548.58 641.69 473.57
  C 599.72 432.64 553.33 394.76 505.01 361.98
  Q 456.34 328.96 402.60 302.51
  C 384.28 293.49 365.32 285.32 348.77 279.06
  C 320.02 268.19 289.16 260.11 256.79 255.18
  Q 251.14 254.32 243.93 254.03
  Q 231.17 253.52 231.00 253.52
  C 210.20 253.49 183.12 258.40 168.43 274.43
  Q 158.04 285.76 151.38 299.88
  C 142.53 318.61 136.79 338.36 132.74 358.47
  Q 128.12 381.44 126.39 397.13
  Q 124.47 414.58 125.34 435.34
  C 126.37 459.83 131.41 483.52 137.53 511.45
  Q 146.62 552.87 152.05 603.36
  Q 153.82 619.83 153.89 631.30
  C 154.02 653.94 152.89 678.27 158.46 699.27
  Q 165.88 727.25 175.22 764.29
  Q 178.75 778.31 182.85 789.39
  C 189.99 808.71 203.09 828.06 220.08 840.39
  Q 233.31 849.98 246.12 854.84
  Q 284.87 869.55 327.46 871.12
  Q 350.55 871.97 375.34 870.86
  A 0.31 0.31 0.0 0 1 375.48 871.46
  Q 351.64 881.94 328.69 894.07
  C 301.38 908.50 277.40 927.27 265.58 956.10
  Q 264.24 959.39 259.50 972.48
  C 252.42 992.06 240.99 1011.40 236.66 1032.16
  C 232.39 1052.61 235.52 1072.97 244.14 1093.19
  C 250.55 1108.24 255.19 1118.66 257.57 1130.98
  Q 261.33 1150.49 262.50 1156.25
  C 264.92 1168.12 269.30 1178.70 276.20 1188.57
  C 284.67 1200.66 295.52 1212.85 300.39 1220.63
  C 307.50 1232.00 310.96 1242.37 315.14 1256.16
  Q 318.37 1266.80 321.99 1274.05
  Q 330.93 1291.99 349.42 1303.08
  Q 357.21 1307.74 363.47 1310.94
  Q 372.72 1315.66 377.32 1319.16
  C 387.88 1327.19 394.96 1336.66 403.27 1347.47
  C 409.56 1355.66 417.78 1363.22 427.03 1367.49
  C 433.74 1370.59 438.69 1371.87 448.00 1374.59
  C 460.58 1378.28 468.34 1383.26 481.11 1390.86
  Q 489.97 1396.13 501.95 1398.27
  C 513.85 1400.39 528.55 1397.07 540.74 1393.25
  Q 586.30 1378.96 619.78 1345.53
  C 629.42 1335.91 643.61 1320.95 657.03 1308.09
  C 671.16 1294.54 686.94 1283.10 702.18 1271.17
  C 719.10 1257.91 734.44 1244.95 747.35 1229.30
  A 0.24 0.24 0.0 0 1 747.78 1229.48
  Z"
/>
<path fill="#ffffff" d="
  M 212.14 264.32
  Q 188.86 280.64 172.63 305.18
  A 1.99 1.99 0.0 0 1 170.98 306.08
  L 158.68 306.13
  A 0.26 0.26 0.0 0 1 158.44 305.76
  Q 164.14 293.25 171.86 283.55
  C 181.53 271.38 196.80 266.22 211.99 263.94
  A 0.21 0.21 0.0 0 1 212.14 264.32
  Z"
/>
<path fill="#ffffff" d="
  M 1560.95 264.11
  C 1576.17 266.33 1591.49 271.44 1601.23 283.59
  Q 1609.00 293.27 1614.76 305.78
  A 0.26 0.26 0.0 0 1 1614.52 306.15
  L 1602.20 306.15
  A 1.99 1.99 0.0 0 1 1600.54 305.26
  Q 1584.19 280.74 1560.80 264.49
  A 0.21 0.21 0.0 0 1 1560.95 264.11
  Z"
/>
<path fill="#3f72db" d="
  M 1551.49 309.05
  L 1525.87 311.85
  A 1.11 1.09 64.7 0 1 1524.95 311.51
  Q 1514.35 300.38 1503.24 289.55
  Q 1499.16 285.58 1496.72 281.76
  A 1.43 1.43 0.0 0 1 1497.28 279.71
  Q 1498.71 279.00 1501.11 279.18
  Q 1512.99 280.04 1524.05 286.52
  Q 1539.54 295.60 1551.56 308.89
  A 0.10 0.10 0.0 0 1 1551.49 309.05
  Z"
/>
<path fill="#3f72db" d="
  M 221.35 308.99
  A 0.10 0.10 0.0 0 1 221.28 308.83
  Q 233.27 295.61 248.70 286.58
  Q 259.73 280.14 271.56 279.29
  Q 273.95 279.12 275.37 279.83
  A 1.42 1.42 0.0 0 1 275.93 281.87
  Q 273.49 285.67 269.43 289.62
  Q 258.35 300.39 247.78 311.47
  A 1.11 1.09 -64.7 0 1 246.87 311.81
  L 221.35 308.99
  Z"
/>
<path fill="#ffffff" d="
  M 1463.73 321.64
  A 0.20 0.20 0.0 0 1 1463.66 322.00
  Q 1428.34 329.73 1394.25 341.04
  A 1.67 1.65 46.6 0 1 1393.08 341.00
  Q 1387.00 338.50 1381.75 334.20
  Q 1374.05 327.89 1376.38 317.60
  Q 1377.91 310.86 1383.42 307.19
  C 1388.79 303.61 1394.00 301.65 1401.88 298.03
  Q 1415.66 291.69 1430.33 286.34
  A 0.36 0.36 0.0 0 1 1430.81 286.75
  Q 1429.57 292.57 1433.10 297.07
  Q 1437.21 302.31 1445.76 308.85
  Q 1446.52 309.43 1463.73 321.64
  Z"
/>
<path fill="#ffffff" d="
  M 343.27 287.03
  A 0.34 0.33 -78.6 0 1 343.72 286.73
  Q 363.78 293.93 383.78 303.98
  C 387.96 306.08 391.71 307.85 393.83 311.06
  Q 397.47 316.56 396.61 323.68
  C 395.53 332.54 388.43 336.90 381.04 340.46
  A 3.75 3.74 -48.6 0 1 378.23 340.64
  Q 344.47 329.54 310.08 322.04
  A 0.38 0.38 0.0 0 1 309.94 321.36
  C 321.01 313.38 329.15 307.98 337.33 300.27
  Q 342.94 295.00 343.27 287.03
  Z"
/>
<path fill="#ffffff" d="
  M 166.35 315.15
  A 0.33 0.32 -75.0 0 1 166.63 315.64
  Q 161.14 325.03 156.44 336.51
  C 153.09 344.68 147.54 364.72 141.03 377.76
  Q 139.38 381.06 137.43 383.75
  A 0.24 0.24 0.0 0 1 137.00 383.57
  Q 140.29 366.87 142.58 355.61
  Q 146.75 335.10 154.28 315.72
  A 0.89 0.89 0.0 0 1 155.11 315.15
  L 166.35 315.15
  Z"
/>
<path fill="#ffffff" d="
  M 1606.88 315.07
  L 1618.12 315.08
  A 0.89 0.89 0.0 0 1 1618.95 315.65
  Q 1626.46 335.04 1630.61 355.56
  Q 1632.89 366.83 1636.17 383.54
  A 0.24 0.24 0.0 0 1 1635.74 383.72
  Q 1633.79 381.03 1632.14 377.72
  C 1625.64 364.67 1620.11 344.62 1616.77 336.44
  Q 1612.08 324.95 1606.60 315.56
  A 0.33 0.32 75.1 0 1 1606.88 315.07
  Z"
/>
<path fill="#3f72db" d="
  M 170.23 395.69
  C 173.25 382.00 177.41 369.32 184.32 356.83
  Q 195.88 335.96 212.02 318.22
  A 1.89 1.88 -68.3 0 1 213.43 317.61
  Q 226.55 317.66 239.53 319.71
  A 0.51 0.50 -66.8 0 1 239.85 320.52
  Q 231.19 331.88 223.23 342.88
  C 211.11 359.66 203.09 374.70 196.93 393.20
  A 1.59 1.57 7.1 0 1 195.53 394.28
  L 170.47 395.97
  A 0.23 0.23 0.0 0 1 170.23 395.69
  Z"
/>
<path fill="#3f72db" d="
  M 1603.01 395.85
  A 0.24 0.23 -3.7 0 1 1602.76 396.13
  L 1577.60 394.45
  A 1.50 1.49 83.1 0 1 1576.28 393.41
  Q 1568.03 367.20 1551.78 345.23
  Q 1540.27 329.68 1533.19 320.63
  A 0.57 0.57 0.0 0 1 1533.55 319.72
  Q 1545.58 317.84 1558.80 317.55
  A 2.55 2.53 -21.9 0 1 1560.74 318.37
  C 1580.74 340.01 1597.26 366.73 1603.01 395.85
  Z"
/>
<path fill="#3f72db" d="
  M 234.24 393.71
  Q 244.42 377.79 258.49 363.97
  C 269.93 352.74 284.72 340.67 298.79 329.96
  A 2.71 2.70 -59.2 0 1 300.85 329.44
  C 323.51 333.08 345.97 339.67 367.90 346.62
  A 0.35 0.35 0.0 0 1 367.93 347.28
  Q 349.30 354.98 331.39 365.78
  C 315.34 375.46 302.07 384.72 289.45 397.63
  A 1.82 1.82 0.0 0 1 287.94 398.16
  Q 260.41 394.85 234.41 394.02
  A 0.21 0.20 17.5 0 1 234.24 393.71
  Z"
/>
<path fill="#ffffff" d="
  M 1538.95 393.77
  A 0.21 0.20 -17.6 0 1 1538.78 394.08
  Q 1512.75 394.93 1485.19 398.27
  A 1.82 1.82 0.0 0 1 1483.67 397.74
  C 1471.03 384.83 1457.73 375.57 1441.65 365.89
  Q 1423.71 355.09 1405.05 347.40
  A 0.35 0.35 0.0 0 1 1405.08 346.74
  C 1427.03 339.76 1449.52 333.14 1472.20 329.48
  A 2.71 2.70 59.1 0 1 1474.26 330.00
  C 1488.36 340.71 1503.18 352.78 1514.64 364.01
  Q 1528.74 377.84 1538.95 393.77
  Z"
/>
<path fill="#3f72db" d="
  M 193.97 402.92
  C 189.56 417.82 187.29 433.05 187.32 448.62
  C 187.34 460.19 189.36 472.99 191.67 484.90
  A 0.49 0.49 0.0 0 1 191.24 485.49
  L 172.60 487.53
  A 0.75 0.75 0.0 0 1 171.79 486.95
  C 167.80 469.32 164.75 449.59 165.40 431.81
  Q 165.88 418.88 168.11 405.68
  A 0.59 0.58 2.0 0 1 168.62 405.21
  L 193.60 402.48
  A 0.35 0.35 0.0 0 1 193.97 402.92
  Z"
/>
<path fill="#3f72db" d="
  M 1492.26 406.65
  A 0.34 0.34 0.0 0 1 1492.48 406.10
  Q 1517.16 403.22 1543.44 402.59
  A 1.61 1.60 -12.4 0 1 1544.94 403.54
  C 1554.17 424.57 1560.18 446.33 1563.25 469.06
  A 0.51 0.50 86.5 0 1 1562.75 469.63
  L 1526.37 469.63
  A 0.74 0.74 0.0 0 1 1525.65 469.05
  C 1520.31 445.72 1506.94 424.24 1492.26 406.65
  Z"
/>
<path fill="#3f72db" d="
  M 1579.08 402.98
  A 0.35 0.35 0.0 0 1 1579.44 402.54
  L 1604.35 405.19
  A 0.59 0.58 -2.1 0 1 1604.86 405.66
  Q 1607.13 418.81 1607.64 431.70
  C 1608.34 449.43 1605.36 469.10 1601.43 486.69
  A 0.75 0.75 0.0 0 1 1600.62 487.27
  L 1582.03 485.29
  A 0.49 0.49 0.0 0 1 1581.60 484.71
  C 1583.87 472.83 1585.85 460.06 1585.84 448.52
  C 1585.82 433.00 1583.51 417.82 1579.08 402.98
  Z"
/>
<path fill="#3f72db" d="
  M 280.35 406.20
  A 0.42 0.42 0.0 0 1 280.62 406.89
  C 262.60 428.09 249.08 453.87 244.27 481.36
  A 0.67 0.67 0.0 0 1 243.66 481.91
  L 208.91 484.25
  A 0.79 0.79 0.0 0 1 208.07 483.39
  Q 211.27 446.84 224.69 412.19
  Q 226.96 406.33 228.44 403.40
  A 1.30 1.28 -75.7 0 1 229.62 402.69
  Q 255.36 403.34 280.35 406.20
  Z"
/>
<path fill="#ff393b" d="
  M 822.35 818.40
  A 0.37 0.37 0.0 0 1 821.65 818.46
  C 815.58 805.38 812.57 799.32 808.34 788.77
  Q 802.84 775.07 794.62 754.37
  C 780.31 718.31 763.35 682.88 742.26 647.24
  Q 728.79 624.45 717.15 608.37
  Q 703.41 589.39 687.99 569.76
  Q 668.54 544.99 643.01 518.49
  Q 595.21 468.88 542.09 428.67
  Q 541.00 427.85 533.61 422.14
  A 1.87 1.86 36.1 0 1 533.21 419.61
  C 537.32 413.62 547.08 411.59 554.35 411.07
  Q 556.70 410.90 557.93 411.84
  Q 566.68 418.48 576.53 426.72
  C 633.94 474.77 686.00 528.14 730.91 587.60
  Q 774.48 645.31 807.31 711.43
  C 813.58 724.04 819.64 737.90 825.69 754.06
  Q 831.83 770.42 834.74 777.53
  Q 836.27 781.28 837.32 785.00
  A 1.12 1.09 -36.4 0 1 837.17 785.92
  Q 827.06 800.98 822.35 818.40
  Z"
/>
<path fill="#ff393b" d="
  M 951.57 817.87
  A 0.47 0.47 0.0 0 1 950.70 817.78
  Q 945.72 800.01 934.97 785.18
  A 0.78 0.76 -52.6 0 1 934.88 784.44
  C 940.46 770.66 943.52 763.54 948.80 750.00
  Q 957.87 726.69 969.44 703.95
  Q 995.61 652.49 1027.90 607.38
  C 1039.85 590.68 1055.51 569.61 1071.85 550.52
  Q 1088.50 531.07 1098.73 519.73
  C 1106.42 511.22 1119.16 497.95 1128.56 488.90
  C 1143.68 474.34 1152.26 465.61 1166.26 453.18
  Q 1192.56 429.86 1200.31 423.56
  Q 1203.06 421.32 1213.20 413.44
  Q 1214.96 412.08 1216.24 411.62
  A 2.48 2.39 -51.0 0 1 1217.28 411.49
  C 1224.26 412.16 1235.02 413.63 1238.79 418.52
  Q 1240.89 421.25 1237.95 423.47
  Q 1206.02 447.46 1175.91 474.16
  Q 1153.01 494.46 1134.98 513.26
  Q 1115.32 533.77 1097.01 555.27
  Q 1087.31 566.66 1069.82 589.51
  C 1038.10 630.97 1011.64 677.17 991.19 724.41
  Q 982.35 744.83 967.24 782.70
  C 962.38 794.88 957.39 806.39 951.57 817.87
  Z"
/>
<path fill="#ff393b" d="
  M 600.14 501.23
  C 596.26 499.67 592.35 497.57 588.53 496.44
  Q 578.74 493.53 571.55 492.96
  Q 564.07 492.35 552.04 492.36
  Q 545.95 492.36 537.71 489.26
  Q 518.06 481.85 504.88 478.15
  C 479.32 470.97 452.62 471.76 428.89 483.41
  Q 400.59 497.32 387.34 525.62
  Q 381.24 538.67 380.17 551.39
  Q 379.17 563.22 378.96 566.79
  Q 378.49 574.60 370.75 576.79
  Q 343.12 584.59 324.83 606.82
  Q 299.87 637.14 298.73 674.67
  C 297.77 706.05 310.19 737.12 331.56 760.31
  A 0.05 0.05 0.0 0 1 331.51 760.39
  C 319.00 756.22 305.50 750.69 295.07 743.28
  Q 279.06 731.93 269.17 714.62
  C 247.48 676.65 258.48 633.32 285.84 601.81
  C 300.96 584.41 318.55 570.51 340.12 563.13
  Q 343.74 561.89 350.99 559.47
  C 360.90 556.16 362.66 548.83 362.42 538.48
  Q 362.26 531.70 362.73 526.26
  C 364.23 508.88 372.75 491.69 384.06 478.37
  C 404.79 453.95 436.25 439.16 468.57 443.11
  Q 489.49 445.67 497.46 446.56
  C 510.86 448.07 525.49 445.77 531.04 431.86
  A 0.44 0.43 -60.9 0 1 531.70 431.67
  Q 553.87 448.04 574.55 465.95
  Q 576.57 467.70 577.16 468.60
  Q 578.68 470.95 600.63 500.60
  A 0.41 0.41 0.0 0 1 600.14 501.23
  Z"
/>
<path fill="#ff393b" d="
  M 1171.43 501.45
  A 0.41 0.41 0.0 0 1 1171.38 500.91
  L 1195.61 468.69
  A 8.88 8.52 -2.9 0 1 1196.88 467.34
  Q 1214.17 452.59 1219.54 448.54
  Q 1231.83 439.25 1240.92 431.98
  A 0.77 0.77 0.0 0 1 1242.13 432.33
  C 1248.07 448.87 1268.89 447.73 1282.64 445.88
  Q 1295.90 444.10 1303.25 443.19
  C 1342.23 438.38 1377.82 458.75 1398.32 491.27
  C 1404.38 500.88 1408.29 511.77 1409.90 523.36
  Q 1410.46 527.38 1410.31 537.27
  Q 1410.18 546.46 1411.43 549.60
  Q 1414.37 556.99 1423.04 559.75
  C 1436.55 564.04 1448.75 568.68 1460.60 577.10
  C 1501.41 606.12 1530.76 658.62 1507.05 708.60
  Q 1493.35 737.47 1464.15 751.40
  Q 1454.20 756.14 1442.42 760.14
  A 0.39 0.39 0.0 0 1 1442.02 759.50
  Q 1448.62 752.81 1453.45 745.42
  C 1467.06 724.57 1474.74 700.80 1474.49 676.52
  Q 1474.16 645.66 1457.02 618.46
  C 1446.32 601.47 1430.23 586.76 1411.33 579.94
  Q 1401.37 576.35 1399.56 575.65
  Q 1394.37 573.65 1394.10 567.54
  Q 1393.65 557.25 1393.12 550.96
  C 1392.30 541.43 1388.75 529.99 1383.71 521.02
  C 1365.38 488.36 1330.95 471.53 1294.10 473.86
  C 1273.51 475.16 1255.93 481.97 1235.28 489.30
  C 1229.07 491.51 1223.76 492.32 1216.80 492.41
  Q 1204.24 492.57 1201.67 492.87
  Q 1187.02 494.56 1172.68 501.47
  Q 1171.86 501.86 1171.43 501.45
  Z"
/>
<path fill="#ffffff" d="
  M 1638.35 442.78
  Q 1636.35 464.58 1630.70 490.15
  A 0.22 0.22 0.0 0 1 1630.46 490.33
  L 1624.30 489.92
  A 0.20 0.19 10.5 0 1 1624.12 489.67
  L 1637.65 442.64
  A 0.36 0.36 0.0 0 1 1638.35 442.78
  Z
  M 1629.3184 483.6626
  A 0.91 0.53 -102.8 0 0 1629.0032 484.6674
  A 0.91 0.53 -102.8 0 0 1629.7216 485.4374
  A 0.91 0.53 -102.8 0 0 1630.0368 484.4326
  A 0.91 0.53 -102.8 0 0 1629.3184 483.6626
  Z"
/>
<path fill="#ffffff" d="
  M 134.73 443.16
  A 0.36 0.35 -56.1 0 1 135.42 443.02
  L 148.97 489.76
  A 0.20 0.19 -10.6 0 1 148.79 490.01
  L 142.66 490.43
  A 0.22 0.22 0.0 0 1 142.43 490.25
  Q 136.76 464.84 134.73 443.16
  Z
  M 145.47 484.43
  L 143.81 482.10
  A 0.23 0.23 0.0 0 0 143.49 482.05
  L 143.37 482.13
  A 2.03 1.65 -35.5 0 0 142.68 484.65
  L 142.69 484.66
  A 2.03 1.65 -35.5 0 0 145.30 484.83
  L 145.41 484.75
  A 0.23 0.23 0.0 0 0 145.47 484.43
  Z"
/>
<path fill="#3f72db" d="
  M 1528.74 481.42
  L 1526.79 474.13
  A 0.53 0.53 0.0 0 1 1527.30 473.46
  L 1563.35 473.46
  A 0.53 0.53 0.0 0 1 1563.88 473.95
  L 1564.54 483.57
  A 0.53 0.53 0.0 0 1 1563.97 484.14
  L 1529.22 481.82
  A 0.53 0.53 0.0 0 1 1528.74 481.42
  Z"
/>
<path fill="#3f72db" d="
  M 145.47 484.43
  A 0.23 0.23 0.0 0 1 145.41 484.75
  L 145.30 484.83
  A 2.03 1.65 -35.5 0 1 142.69 484.66
  L 142.68 484.65
  A 2.03 1.65 -35.5 0 1 143.37 482.13
  L 143.49 482.05
  A 0.23 0.23 0.0 0 1 143.81 482.10
  L 145.47 484.43
  Z"
/>
<path fill="#ffffff" d="
  M 504.02 644.14
  Q 520.61 641.35 529.52 637.57
  C 558.64 625.20 571.45 594.93 564.36 564.25
  A 0.94 0.93 60.0 0 1 564.58 563.41
  Q 566.74 560.99 570.17 558.66
  Q 580.31 551.77 591.39 547.90
  C 599.52 545.06 607.22 544.98 611.89 553.43
  C 618.87 566.07 620.67 581.13 619.73 596.05
  C 617.91 624.72 602.83 648.25 576.34 660.04
  C 572.40 661.80 566.61 663.04 563.01 664.47
  C 557.99 666.46 557.90 674.27 559.42 678.45
  Q 563.64 690.06 565.67 696.89
  C 571.41 716.16 569.64 736.05 559.58 753.63
  C 547.13 775.38 525.06 785.50 502.54 792.79
  C 480.07 800.06 455.96 801.56 432.26 801.21
  C 420.35 801.03 409.60 799.08 398.00 794.49
  Q 362.01 780.24 336.27 751.74
  C 310.69 723.42 299.75 682.18 312.61 645.65
  C 321.68 619.88 341.27 595.25 367.76 586.72
  C 376.66 583.86 383.91 581.71 386.52 572.75
  C 387.76 568.48 388.17 564.13 388.34 558.68
  Q 389.27 529.10 410.18 507.65
  Q 427.16 490.23 450.32 484.85
  C 469.00 480.50 489.94 482.26 507.80 487.79
  Q 516.48 490.48 531.21 496.34
  C 539.40 499.60 547.36 501.22 557.45 501.27
  Q 561.31 501.29 572.13 501.74
  A 0.20 0.20 0.0 0 1 572.24 502.10
  Q 554.98 514.40 542.15 531.49
  A 0.50 0.49 -50.9 0 1 541.44 531.57
  Q 516.97 510.50 483.72 511.22
  C 433.58 512.31 408.04 560.06 430.89 603.76
  A 0.32 0.32 0.0 0 1 430.61 604.23
  C 415.84 604.40 401.36 606.89 388.67 613.60
  C 348.59 634.77 334.08 681.80 356.04 721.98
  Q 369.10 745.86 392.27 758.94
  C 425.08 777.46 475.75 772.25 499.69 740.43
  C 520.68 712.53 522.05 674.55 503.70 644.83
  A 0.46 0.45 -20.4 0 1 504.02 644.14
  Z"
/>
<path fill="#ffffff" d="
  M 1269.37 644.80
  C 1251.02 674.51 1252.39 712.48 1273.37 740.38
  C 1297.30 772.19 1347.96 777.41 1380.76 758.89
  Q 1403.92 745.82 1416.98 721.95
  C 1438.94 681.78 1424.44 634.76 1384.37 613.59
  C 1371.68 606.88 1357.21 604.39 1342.44 604.22
  A 0.32 0.32 0.0 0 1 1342.16 603.75
  C 1365.01 560.07 1339.48 512.33 1289.36 511.23
  Q 1256.12 510.51 1231.65 531.57
  A 0.50 0.49 50.9 0 1 1230.94 531.49
  Q 1218.12 514.41 1200.86 502.11
  A 0.20 0.20 0.0 0 1 1200.97 501.75
  Q 1211.79 501.30 1215.65 501.28
  C 1225.73 501.23 1233.69 499.61 1241.88 496.35
  Q 1256.61 490.50 1265.29 487.81
  C 1283.14 482.28 1304.08 480.52 1322.75 484.87
  Q 1345.90 490.25 1362.88 507.67
  Q 1383.78 529.12 1384.71 558.69
  C 1384.88 564.14 1385.28 568.49 1386.52 572.76
  C 1389.13 581.71 1396.38 583.86 1405.28 586.72
  C 1431.76 595.25 1451.34 619.88 1460.41 645.64
  C 1473.26 682.16 1462.32 723.39 1436.74 751.70
  Q 1411.01 780.19 1375.03 794.43
  C 1363.43 799.02 1352.68 800.97 1340.78 801.15
  C 1317.08 801.50 1292.98 799.99 1270.52 792.72
  C 1248.00 785.43 1225.94 775.31 1213.49 753.57
  C 1203.44 735.99 1201.67 716.11 1207.41 696.84
  Q 1209.44 690.02 1213.66 678.41
  C 1215.18 674.23 1215.09 666.42 1210.07 664.43
  C 1206.47 663.00 1200.69 661.76 1196.75 660.00
  C 1170.27 648.21 1155.19 624.69 1153.38 596.03
  C 1152.44 581.11 1154.24 566.06 1161.22 553.42
  C 1165.89 544.97 1173.58 545.05 1181.71 547.89
  Q 1192.79 551.76 1202.93 558.65
  Q 1206.35 560.98 1208.51 563.40
  A 0.94 0.93 -60.0 0 1 1208.73 564.24
  C 1201.64 594.91 1214.45 625.17 1243.56 637.54
  Q 1252.46 641.32 1269.05 644.11
  A 0.46 0.45 20.4 0 1 1269.37 644.80
  Z"
/>
<path fill="#3f72db" d="
  M 1551.73 570.27
  A 0.32 0.32 0.0 0 1 1551.13 570.36
  Q 1546.95 561.67 1544.54 556.94
  C 1538.46 545.00 1534.84 532.24 1533.71 520.50
  Q 1531.72 499.97 1530.60 490.67
  A 0.44 0.43 -1.6 0 1 1531.06 490.19
  L 1564.69 492.44
  A 0.70 0.69 0.0 0 1 1565.34 493.08
  L 1566.47 509.86
  A 9.97 9.91 -37.5 0 1 1565.95 513.74
  Q 1556.47 540.98 1551.73 570.27
  Z"
/>
<path fill="#3f72db" d="
  M 221.55 569.95
  Q 216.79 540.90 207.34 513.89
  A 9.89 9.83 37.4 0 1 206.81 510.04
  L 207.90 493.39
  A 0.69 0.68 -0.1 0 1 208.55 492.75
  L 241.91 490.46
  A 0.43 0.43 0.0 0 1 242.37 490.94
  Q 241.27 500.16 239.34 520.54
  C 238.24 532.19 234.67 544.85 228.66 556.71
  Q 226.27 561.41 222.14 570.04
  A 0.32 0.31 53.3 0 1 221.55 569.95
  Z"
/>
<path fill="#3f72db" d="
  M 1599.41 496.16
  Q 1592.51 523.51 1587.81 543.89
  Q 1583.70 561.72 1582.93 570.21
  Q 1581.71 583.65 1581.95 597.11
  A 0.78 0.77 89.6 0 1 1581.18 597.90
  L 1563.67 597.90
  A 0.51 0.50 78.8 0 1 1563.20 597.58
  L 1557.66 583.28
  A 2.87 2.86 40.1 0 1 1557.52 581.66
  Q 1563.91 549.30 1572.70 517.66
  C 1574.70 510.42 1578.31 502.01 1580.21 494.19
  A 0.80 0.79 -79.6 0 1 1581.07 493.59
  L 1599.00 495.57
  A 0.48 0.48 0.0 0 1 1599.41 496.16
  Z"
/>
<path fill="#3f72db" d="
  M 192.92 494.52
  C 193.43 496.48 194.08 499.94 195.11 502.52
  Q 198.74 511.59 202.02 523.48
  Q 209.19 549.42 215.07 579.22
  C 215.48 581.30 215.62 582.54 214.80 584.51
  Q 212.18 590.77 210.28 597.16
  A 0.82 0.80 -81.1 0 1 209.51 597.73
  L 192.78 597.73
  A 1.06 1.06 0.0 0 1 191.72 596.65
  Q 191.95 583.34 190.66 569.45
  Q 189.85 560.67 185.54 542.99
  Q 177.25 508.94 174.06 496.37
  A 0.57 0.56 -10.2 0 1 174.55 495.67
  L 192.13 493.97
  A 0.74 0.74 0.0 0 1 192.92 494.52
  Z"
/>
<path fill="#ffffff" d="
  M 158.31 580.57
  A 0.15 0.15 0.0 0 1 158.01 580.56
  C 155.10 553.56 149.85 526.91 144.31 499.80
  A 0.27 0.26 81.2 0 1 144.54 499.48
  L 150.81 498.79
  A 0.44 0.43 77.7 0 1 151.27 499.09
  C 156.94 517.61 163.04 535.47 161.85 553.27
  Q 160.95 566.58 158.31 580.57
  Z
  M 150.54 517.28
  Q 150.79 517.04 150.75 516.80
  A 0.26 0.25 52.8 0 0 150.27 516.73
  Q 150.14 517.01 150.13 517.09
  A 0.24 0.24 0.0 0 0 150.54 517.28
  Z
  M 150.80 520.52
  Q 150.93 520.37 150.94 520.16
  A 0.49 0.32 82.6 0 0 150.46 519.59
  Q 150.19 519.79 150.29 520.39
  A 0.29 0.29 0.0 0 0 150.80 520.52
  Z"
/>
<path fill="#ffffff" d="
  M 1615.00 579.63
  Q 1612.39 565.79 1611.49 552.62
  C 1610.32 535.01 1616.35 517.34 1621.96 499.01
  A 0.43 0.43 0.0 0 1 1622.41 498.72
  L 1628.62 499.40
  A 0.26 0.26 0.0 0 1 1628.84 499.71
  C 1623.36 526.54 1618.17 552.90 1615.30 579.62
  A 0.15 0.15 0.0 0 1 1615.00 579.63
  Z
  M 1623.29 516.73
  A 0.47 0.47 0.0 0 0 1622.82 516.26
  A 0.47 0.47 0.0 0 0 1622.35 516.73
  A 0.47 0.47 0.0 0 0 1622.82 517.20
  A 0.47 0.47 0.0 0 0 1623.29 516.73
  Z"
/>
<path fill="#ff393b" d="
  M 1159.41 501.28
  A 0.29 0.29 0.0 0 1 1159.81 501.28
  L 1159.90 501.37
  A 0.16 0.15 48.2 0 1 1159.89 501.61
  Q 1159.25 502.14 1150.39 513.69
  Q 1129.10 541.45 1123.37 575.57
  Q 1115.64 621.58 1141.78 659.22
  Q 1149.89 670.90 1160.66 678.57
  Q 1163.81 680.81 1167.66 683.34
  A 0.43 0.43 0.0 0 1 1167.64 684.08
  L 1140.60 699.70
  A 0.43 0.41 50.9 0 1 1140.11 699.64
  Q 1135.20 695.13 1127.17 688.84
  C 1104.38 670.99 1089.44 648.22 1089.35 618.51
  C 1089.31 604.85 1091.85 592.37 1095.22 574.98
  Q 1095.97 571.09 1097.05 568.82
  A 3.83 3.65 79.6 0 1 1097.60 567.98
  C 1113.67 549.22 1123.30 538.91 1142.38 518.39
  Q 1150.76 509.37 1159.41 501.28
  Z"
/>
<path fill="#ff393b" d="
  M 613.73 501.73
  Q 624.15 511.35 628.74 516.14
  C 647.84 536.03 659.80 548.94 675.03 567.49
  Q 676.48 569.26 676.97 571.53
  C 680.71 588.78 683.22 601.08 683.77 616.76
  C 684.56 639.10 675.80 658.23 661.09 674.86
  C 653.43 683.52 640.78 692.47 633.05 699.57
  A 0.68 0.68 0.0 0 1 632.26 699.66
  L 605.90 684.44
  A 0.59 0.59 0.0 0 1 605.88 683.43
  C 639.62 662.40 655.01 621.52 650.71 583.05
  Q 647.55 554.78 634.29 531.42
  Q 626.83 518.28 613.20 502.20
  A 0.08 0.06 -52.0 0 1 613.20 502.13
  L 613.40 501.78
  A 0.22 0.21 35.8 0 1 613.73 501.73
  Z"
/>
<circle fill="#3f72db" cx="1622.82" cy="516.73" r="0.47"/>
<path fill="#ffffff" d="
  M 524.21 579.72
  C 525.06 596.28 511.49 608.64 496.01 610.26
  C 478.74 612.06 465.15 599.79 464.28 582.80
  C 463.40 565.81 475.67 552.21 493.03 552.23
  C 508.59 552.25 523.36 563.16 524.21 579.72
  Z"
/>
<ellipse fill="#ffffff" cx="0.00" cy="0.00" transform="translate(1279.08,581.31) rotate(-172.0)" rx="29.88" ry="29.25"/>
<path fill="#ffffff" d="
  M 164.18 678.67
  C 162.84 666.59 162.72 655.23 162.79 640.80
  C 162.87 625.74 161.94 611.58 160.31 596.49
  A 0.29 0.29 0.0 0 1 160.78 596.24
  C 166.86 601.49 169.92 611.94 171.27 620.28
  Q 174.14 638.10 169.14 657.65
  Q 166.19 669.20 164.40 678.68
  A 0.11 0.11 0.0 0 1 164.18 678.67
  Z"
/>
<path fill="#ffffff" d="
  M 1608.86 679.06
  A 0.11 0.11 0.0 0 1 1608.64 679.07
  Q 1606.90 669.57 1604.01 658.00
  Q 1599.12 638.41 1602.09 620.60
  C 1603.48 612.26 1606.60 601.83 1612.71 596.61
  A 0.29 0.29 0.0 0 1 1613.18 596.86
  C 1611.47 611.95 1610.46 626.11 1610.46 641.18
  C 1610.45 655.62 1610.26 666.98 1608.86 679.06
  Z"
/>
<path fill="#3f72db" d="
  M 280.71 820.18
  Q 262.65 823.24 245.07 828.39
  A 1.50 1.49 61.7 0 1 243.51 827.91
  C 237.06 820.30 231.38 812.50 226.65 803.75
  Q 217.00 785.88 210.95 764.87
  Q 208.90 757.75 203.33 731.63
  Q 200.86 720.02 196.24 698.26
  C 193.59 685.75 191.48 671.77 190.69 658.39
  Q 190.38 653.05 190.72 640.61
  Q 191.11 626.19 191.68 606.39
  A 0.41 0.40 -88.5 0 1 192.08 606.00
  L 206.91 606.00
  A 0.87 0.87 0.0 0 1 207.75 607.10
  C 203.83 621.25 201.49 634.62 202.56 648.99
  Q 205.12 683.63 225.88 710.34
  Q 236.31 723.76 241.13 730.87
  Q 249.76 743.61 253.43 759.83
  A 0.55 0.54 -8.1 0 1 252.93 760.49
  L 239.14 761.42
  A 3.65 3.64 84.9 0 0 235.77 765.46
  L 235.82 765.89
  A 3.79 3.79 0.0 0 0 239.70 769.36
  L 254.83 768.92
  A 0.94 0.93 83.1 0 1 255.78 769.67
  C 259.35 787.35 264.28 802.94 276.74 816.12
  C 277.96 817.42 279.46 818.40 280.88 819.55
  A 0.36 0.36 0.0 0 1 280.71 820.18
  Z"
/>
<path fill="#3f72db" d="
  M 1566.46 606.34
  L 1581.61 606.12
  A 0.48 0.48 0.0 0 1 1582.09 606.58
  Q 1583.15 632.91 1583.24 635.50
  C 1583.92 655.09 1582.01 671.89 1578.02 692.42
  Q 1572.41 721.26 1563.51 759.07
  Q 1561.83 766.21 1558.20 777.25
  Q 1551.32 798.15 1538.29 817.54
  Q 1534.59 823.05 1530.09 828.11
  A 1.04 1.03 28.5 0 1 1529.03 828.42
  Q 1511.21 823.46 1492.28 820.20
  A 0.42 0.42 0.0 0 1 1492.12 819.43
  C 1508.03 808.65 1513.53 786.97 1517.67 769.37
  A 0.39 0.39 0.0 0 1 1518.05 769.07
  L 1533.52 769.07
  A 3.76 3.75 -88.1 0 0 1537.26 765.56
  L 1537.29 765.19
  A 3.74 3.74 0.0 0 0 1533.81 761.21
  L 1520.10 760.29
  A 0.45 0.45 0.0 0 1 1519.69 759.74
  Q 1524.07 741.04 1535.06 726.29
  C 1540.66 718.78 1551.81 705.17 1558.34 693.13
  C 1570.43 670.82 1574.34 641.49 1568.29 617.10
  Q 1565.82 607.17 1565.82 607.07
  A 0.66 0.65 86.4 0 1 1566.46 606.34
  Z"
/>
<path fill="#3f72db" d="
  M 978.22 809.13
  A 0.08 0.08 0.0 0 1 978.11 809.03
  C 1001.06 768.81 1021.08 725.12 1034.22 680.65
  C 1038.17 667.27 1041.56 655.61 1044.08 642.23
  A 4.49 4.45 -22.9 0 1 1044.77 640.55
  L 1058.86 619.50
  A 0.38 0.38 0.0 0 1 1059.55 619.74
  C 1057.54 645.39 1062.73 672.12 1076.32 693.98
  C 1083.65 705.77 1090.41 714.10 1099.27 723.31
  A 0.53 0.53 0.0 0 1 1099.17 724.13
  C 1088.19 730.85 1069.00 743.23 1055.45 752.59
  Q 1015.52 780.18 978.22 809.13
  Z"
/>
<path fill="#3f72db" d="
  M 794.59 808.81
  Q 757.38 779.88 717.55 752.31
  C 704.03 742.95 684.88 730.58 673.93 723.86
  A 0.53 0.52 -52.3 0 1 673.83 723.04
  C 682.68 713.86 689.44 705.55 696.76 693.78
  C 710.35 671.97 715.55 645.29 713.56 619.69
  A 0.38 0.38 0.0 0 1 714.25 619.45
  L 728.30 640.47
  A 4.48 4.44 23.0 0 1 728.99 642.15
  C 731.49 655.51 734.87 667.15 738.80 680.51
  C 751.88 724.91 771.83 768.54 794.70 808.71
  A 0.08 0.07 -86.7 0 1 794.59 808.81
  Z"
/>
<path fill="#ffffff" d="
  M 453.94 719.67
  C 435.77 734.55 409.02 733.36 396.55 711.63
  C 386.50 694.11 392.19 671.24 404.56 656.04
  C 415.41 642.71 430.73 636.82 447.57 640.72
  C 457.32 642.98 465.62 655.66 469.15 664.63
  C 477.07 684.75 470.57 706.05 453.94 719.67
  Z"
/>
<path fill="#ffffff" d="
  M 1319.14 719.56
  C 1302.54 705.95 1296.06 684.68 1303.98 664.59
  C 1307.51 655.63 1315.81 642.97 1325.54 640.72
  C 1342.36 636.84 1357.66 642.73 1368.49 656.05
  C 1380.83 671.23 1386.50 694.08 1376.46 711.57
  C 1363.99 733.26 1337.27 734.44 1319.14 719.56
  Z"
/>
<path fill="#ff393b" d="
  M 574.57 775.46
  A 0.28 0.28 0.0 0 1 574.23 775.03
  C 590.73 755.23 599.94 730.59 597.33 704.58
  Q 596.47 696.08 595.56 690.69
  A 0.97 0.97 0.0 0 1 596.96 689.67
  Q 613.00 697.90 629.24 708.27
  A 0.51 0.51 0.0 0 1 629.46 708.77
  Q 625.11 736.05 604.65 754.70
  Q 590.99 767.16 574.57 775.46
  Z"
/>
<path fill="#ff393b" d="
  M 1197.80 775.05
  Q 1181.48 766.53 1167.88 754.37
  Q 1154.77 742.65 1149.42 728.68
  C 1147.03 722.43 1145.46 714.35 1143.72 708.73
  A 0.60 0.60 0.0 0 1 1143.97 708.04
  Q 1157.78 699.23 1174.70 690.20
  Q 1175.73 689.65 1176.39 689.65
  A 1.20 1.20 0.0 0 1 1177.56 691.08
  Q 1175.13 703.43 1175.14 715.49
  C 1175.15 736.39 1184.37 758.35 1198.07 774.70
  A 0.23 0.22 83.3 0 1 1197.80 775.05
  Z"
/>
<path fill="#ffffff" d="
  M 863.27 726.10
  C 852.90 724.14 844.34 729.49 842.74 739.86
  Q 841.59 747.32 847.78 753.46
  A 0.96 0.96 0.0 0 1 848.05 754.35
  Q 846.76 760.02 841.74 760.45
  A 2.48 2.47 75.5 0 1 839.27 758.99
  Q 837.39 754.76 835.94 749.81
  C 833.14 740.27 835.38 730.85 841.37 723.08
  Q 848.84 713.38 861.52 714.78
  A 2.11 2.10 -88.9 0 1 863.39 716.73
  L 863.98 725.47
  A 0.60 0.60 0.0 0 1 863.27 726.10
  Z"
/>
<path fill="#ffffff" d="
  M 911.43 724.58
  Q 911.39 720.26 911.17 718.57
  Q 910.89 716.36 913.09 714.90
  A 1.61 1.57 27.2 0 1 913.93 714.64
  Q 926.58 714.52 933.19 725.53
  C 939.34 735.78 939.13 745.95 936.41 757.42
  C 934.97 763.50 927.94 760.54 927.50 755.63
  Q 927.42 754.78 928.90 752.01
  Q 934.63 741.33 927.31 731.65
  Q 921.91 724.51 912.00 725.11
  A 0.54 0.53 87.5 0 1 911.43 724.58
  Z"
/>
<path fill="#ffffff" d="
  M 902.79 715.47
  Q 900.20 733.82 908.16 749.08
  Q 911.95 756.36 920.54 760.82
  Q 921.58 761.36 923.92 765.63
  A 1.47 1.38 1.9 0 0 924.46 766.17
  L 927.05 767.67
  A 0.71 0.71 0.0 0 1 926.90 768.96
  C 922.05 770.43 917.92 770.21 913.13 768.12
  Q 899.93 762.37 895.67 747.57
  C 892.46 736.44 894.45 723.91 902.13 715.17
  A 0.38 0.38 0.0 0 1 902.79 715.47
  Z"
/>
<path fill="#ffffff" d="
  M 872.34 717.87
  A 0.19 0.19 0.0 0 1 872.68 717.73
  C 878.68 726.49 879.68 735.24 876.43 745.27
  Q 875.24 748.94 872.74 755.50
  C 869.78 763.26 859.49 767.14 853.00 769.54
  A 0.40 0.40 0.0 0 1 852.54 768.92
  Q 853.58 767.53 853.66 766.63
  A 6.44 6.43 -26.1 0 1 854.71 763.58
  Q 857.41 759.50 860.30 756.78
  C 868.84 748.77 872.91 737.35 872.78 725.70
  A 1.12 1.10 -33.2 0 1 872.88 725.24
  L 873.49 723.90
  A 0.82 0.79 51.8 0 0 873.54 723.42
  L 872.34 717.87
  Z"
/>
<path fill="#ffffff" d="
  M 1561.46 820.33
  Q 1561.78 819.21 1563.00 816.94
  C 1564.56 814.05 1565.88 810.01 1566.58 806.81
  Q 1569.26 794.62 1572.86 778.84
  Q 1580.42 745.73 1600.36 718.61
  A 0.18 0.18 0.0 0 1 1600.68 718.75
  Q 1599.18 724.78 1593.29 748.56
  C 1586.91 774.31 1579.02 800.38 1561.85 820.54
  A 0.23 0.23 0.0 0 1 1561.46 820.33
  Z"
/>
<path fill="#ffffff" d="
  M 211.30 819.71
  A 0.22 0.22 0.0 0 1 210.91 819.92
  C 193.94 799.93 186.17 774.11 179.89 748.61
  Q 174.09 725.05 172.62 719.08
  A 0.18 0.17 20.6 0 1 172.93 718.94
  Q 192.64 745.82 200.07 778.62
  Q 203.62 794.24 206.25 806.32
  C 206.94 809.49 208.24 813.49 209.78 816.35
  Q 210.99 818.60 211.30 819.71
  Z"
/>
<path fill="#3f72db" d="
  M 779.25 815.25
  C 765.60 811.01 751.52 807.74 736.70 805.49
  Q 689.51 798.33 642.50 797.22
  Q 619.56 796.68 596.22 796.75
  A 0.15 0.15 0.0 0 1 596.08 796.54
  Q 596.16 796.36 596.40 796.22
  Q 617.30 784.08 632.91 764.39
  C 636.77 759.54 641.87 751.12 646.59 746.68
  Q 653.32 740.36 661.63 734.77
  A 1.74 1.73 -45.7 0 1 663.52 734.74
  C 680.21 745.28 696.43 756.70 711.78 766.97
  Q 743.70 788.34 779.52 814.72
  A 0.30 0.30 0.0 0 1 779.25 815.25
  Z"
/>
<path fill="#3f72db" d="
  M 994.42 814.88
  A 0.30 0.30 0.0 0 1 994.16 814.36
  Q 1029.84 788.21 1061.63 767.03
  C 1076.92 756.85 1093.08 745.53 1109.70 735.09
  A 1.73 1.72 45.8 0 1 1111.58 735.12
  Q 1119.83 740.70 1126.51 747.00
  C 1131.19 751.43 1136.24 759.81 1140.07 764.65
  Q 1155.55 784.26 1176.31 796.38
  Q 1176.54 796.52 1176.62 796.70
  A 0.15 0.15 0.0 0 1 1176.48 796.91
  Q 1153.27 796.79 1130.46 797.27
  Q 1083.71 798.27 1036.76 805.28
  C 1022.02 807.48 1008.01 810.70 994.42 814.88
  Z"
/>
<path fill="#ffffff" d="
  M 846.45 773.24
  Q 846.12 773.44 844.00 773.66
  C 842.49 773.83 841.79 772.09 841.74 771.20
  A 0.30 0.30 0.0 0 1 842.24 770.96
  Q 844.02 772.52 846.32 772.68
  A 0.30 0.30 0.0 0 1 846.45 773.24
  Z"
/>
<path fill="#ffffff" d="
  M 926.39 772.59
  Q 928.49 772.73 930.30 771.54
  A 0.27 0.27 0.0 0 1 930.72 771.82
  C 930.56 772.62 929.71 774.10 928.37 773.76
  Q 926.48 773.30 926.21 773.08
  A 0.28 0.27 66.2 0 1 926.39 772.59
  Z"
/>
<path fill="#ffffff" d="
  M 839.29 874.73
  Q 833.75 861.75 830.06 850.95
  Q 828.29 845.78 827.57 839.90
  Q 827.07 835.76 828.53 828.68
  C 831.83 812.66 838.87 795.67 850.64 783.15
  Q 852.31 781.37 854.21 780.08
  A 0.44 0.44 0.0 0 1 854.87 780.57
  C 852.24 789.17 850.49 794.40 848.99 800.94
  Q 843.30 825.64 840.48 853.26
  Q 839.41 863.73 839.70 874.65
  A 0.21 0.21 0.0 0 1 839.29 874.73
  Z"
/>
<path fill="#ffffff" d="
  M 932.51 880.89
  Q 932.47 879.77 932.86 877.30
  Q 932.98 876.54 932.96 873.69
  C 932.75 842.57 928.47 810.77 918.39 781.29
  A 0.42 0.42 0.0 0 1 919.05 780.82
  C 929.83 789.56 935.24 800.21 940.38 813.66
  Q 943.56 821.98 945.35 830.64
  C 947.32 840.14 944.94 847.80 941.50 858.42
  Q 938.85 866.63 932.96 880.97
  A 0.23 0.23 0.0 0 1 932.51 880.89
  Z"
/>
<path fill="#ff393b" d="
  M 728.14 813.92
  C 706.51 820.29 715.13 844.03 722.59 857.20
  A 0.17 0.17 0.0 0 1 722.35 857.43
  Q 712.48 851.51 702.99 847.52
  C 676.71 836.49 650.26 827.40 622.50 827.83
  Q 616.86 827.91 604.26 828.81
  C 561.04 831.89 516.48 837.12 472.32 843.14
  Q 442.60 847.18 415.09 856.60
  Q 403.45 860.58 397.10 862.67
  A 2.64 2.61 -41.4 0 1 395.21 862.56
  C 392.71 861.41 391.01 860.86 387.81 860.09
  C 366.08 854.86 347.02 841.98 341.06 819.74
  A 0.71 0.70 78.7 0 1 341.65 818.85
  Q 391.84 812.59 437.50 810.01
  Q 478.96 807.68 549.51 805.60
  C 574.35 804.88 603.32 805.32 622.50 805.51
  Q 672.18 806.00 722.92 812.63
  Q 726.47 813.09 728.13 813.50
  A 0.22 0.22 0.0 0 1 728.14 813.92
  Z"
/>
<path fill="#ff393b" d="
  M 1044.64 813.84
  A 0.28 0.28 0.0 0 1 1044.69 813.29
  C 1071.41 809.59 1100.83 806.74 1127.58 806.18
  C 1180.85 805.04 1233.28 805.11 1285.91 807.61
  C 1310.53 808.78 1330.06 809.26 1351.02 810.77
  Q 1391.30 813.69 1431.26 818.90
  A 0.89 0.89 0.0 0 1 1432.01 820.02
  C 1425.21 845.60 1401.66 857.09 1377.78 862.62
  A 4.39 4.36 47.7 0 1 1375.39 862.50
  C 1359.07 856.99 1344.44 851.76 1328.08 847.34
  Q 1281.23 834.68 1233.22 828.10
  C 1216.76 825.84 1199.90 824.98 1184.11 824.79
  Q 1160.58 824.50 1134.22 828.42
  C 1110.81 831.91 1087.77 839.45 1066.07 849.32
  Q 1058.55 852.74 1050.56 857.83
  A 0.39 0.39 0.0 0 1 1050.02 857.29
  C 1055.23 849.26 1059.67 838.08 1058.49 829.10
  Q 1057.00 817.76 1044.64 813.84
  Z"
/>
<path fill="#3f72db" d="
  M 366.90 862.10
  Q 326.67 864.11 289.85 857.89
  C 278.53 855.98 268.02 852.78 258.91 846.06
  Q 253.85 842.32 248.16 836.81
  A 0.56 0.55 -30.2 0 1 248.41 835.88
  C 275.44 828.76 302.73 824.44 331.73 820.50
  A 0.61 0.61 0.0 0 1 332.41 820.98
  C 335.85 837.44 347.48 851.04 361.95 859.04
  Q 362.49 859.34 366.97 861.80
  A 0.16 0.16 0.0 0 1 366.90 862.10
  Z"
/>
<path fill="#3f72db" d="
  M 1524.72 836.16
  Q 1520.53 840.53 1515.22 845.22
  C 1505.43 853.85 1492.43 856.66 1479.52 858.58
  Q 1443.86 863.89 1406.63 862.12
  A 0.31 0.31 0.0 0 1 1406.51 861.53
  C 1422.94 853.54 1436.61 839.18 1440.56 820.94
  A 0.58 0.57 9.7 0 1 1441.20 820.49
  C 1468.37 824.28 1496.94 829.20 1524.55 835.60
  A 0.34 0.34 0.0 0 1 1524.72 836.16
  Z"
/>
<path fill="#ffffff" d="
  M 812.67 911.79
  Q 800.65 905.26 790.31 896.43
  C 777.94 885.86 773.13 873.83 764.99 857.25
  C 757.50 842.00 744.66 829.78 728.51 824.07
  A 0.63 0.62 46.6 0 1 728.54 822.88
  C 737.75 820.21 745.29 821.35 754.82 825.38
  C 777.52 834.99 798.52 850.05 812.82 870.39
  A 3.18 3.17 29.5 0 1 813.40 872.48
  Q 811.91 892.33 813.16 911.47
  A 0.34 0.33 -77.7 0 1 812.67 911.79
  Z"
/>
<path fill="#ffffff" d="
  M 959.96 912.82
  A 0.19 0.19 0.0 0 1 959.66 912.65
  Q 961.10 891.65 959.77 872.07
  A 2.22 2.21 58.6 0 1 960.08 870.77
  Q 965.17 862.32 973.50 854.23
  Q 989.45 838.73 1009.31 829.22
  C 1020.43 823.90 1032.04 819.02 1043.90 822.53
  A 0.83 0.83 0.0 0 1 1044.39 823.72
  Q 1043.73 824.88 1042.39 825.40
  C 1036.91 827.49 1029.48 830.81 1024.36 835.64
  Q 1015.77 843.74 1010.64 852.08
  Q 1007.47 857.24 1001.35 870.88
  Q 991.39 893.05 971.14 905.62
  Q 963.12 910.59 959.96 912.82
  Z"
/>
<path fill="#ffffff" d="
  M 1148.00 940.88
  A 0.36 0.36 0.0 0 1 1147.54 941.22
  Q 1128.75 935.33 1111.60 931.85
  A 0.40 0.40 0.0 0 1 1111.32 931.28
  Q 1117.13 919.65 1119.25 908.49
  Q 1121.80 895.08 1122.39 892.65
  C 1126.62 875.19 1134.21 859.00 1147.20 846.38
  Q 1154.56 839.23 1159.68 836.60
  C 1170.50 831.04 1184.84 834.98 1195.87 837.45
  C 1217.46 842.28 1236.03 850.04 1255.04 860.48
  Q 1269.41 868.36 1284.92 877.34
  Q 1294.41 882.82 1300.99 887.55
  C 1323.92 904.03 1333.70 931.71 1330.41 959.22
  C 1329.45 967.22 1327.07 973.98 1323.99 982.48
  C 1319.64 994.46 1326.51 1000.52 1331.75 1010.95
  C 1339.73 1026.83 1342.84 1045.42 1338.07 1062.77
  A 0.37 0.36 41.5 0 1 1337.38 1062.81
  C 1325.50 1034.54 1300.04 1020.34 1272.08 1010.90
  A 4.37 4.34 -7.6 0 1 1269.87 1009.22
  C 1265.62 1002.96 1259.55 996.99 1254.77 992.14
  A 0.52 0.52 0.0 0 1 1254.97 991.29
  C 1276.86 983.78 1292.17 970.35 1296.41 947.90
  C 1300.32 927.20 1292.93 904.41 1279.06 888.43
  Q 1262.28 869.12 1236.65 863.90
  C 1198.25 856.07 1158.43 884.86 1150.19 922.88
  Q 1148.11 932.51 1148.00 940.88
  Z"
/>
<path fill="#ff393b" d="
  M 1222.45 835.67
  A 0.19 0.19 0.0 0 1 1222.57 835.32
  Q 1248.76 839.06 1275.37 843.90
  Q 1292.07 846.94 1308.21 851.31
  C 1311.42 852.18 1312.43 852.53 1314.56 855.10
  Q 1320.59 862.36 1328.37 872.38
  C 1346.43 895.66 1356.10 926.48 1359.09 955.87
  A 0.32 0.32 0.0 0 1 1358.66 956.20
  L 1340.03 949.00
  A 0.81 0.80 10.7 0 1 1339.51 948.25
  Q 1339.61 909.33 1310.53 883.70
  Q 1305.24 879.04 1293.93 872.58
  Q 1267.23 857.33 1257.83 851.91
  Q 1243.05 843.38 1225.23 837.04
  Q 1224.03 836.61 1222.45 835.67
  Z"
/>
<path fill="#ffffff" d="
  M 625.45 941.39
  A 0.26 0.26 0.0 0 1 625.13 941.14
  C 625.08 914.77 612.74 891.21 591.23 876.48
  C 577.62 867.15 560.12 861.22 543.30 862.96
  C 524.72 864.89 507.59 872.93 495.15 887.10
  C 479.77 904.63 472.25 928.37 477.33 950.79
  Q 482.28 972.66 503.39 984.78
  Q 510.90 989.09 517.71 991.29
  A 0.42 0.42 0.0 0 1 517.87 991.99
  Q 509.14 1000.33 503.15 1008.93
  A 5.67 5.63 7.8 0 1 500.32 1011.06
  Q 492.24 1013.81 485.74 1016.51
  C 463.28 1025.82 444.87 1040.78 435.39 1063.08
  A 0.34 0.34 0.0 0 1 434.75 1063.02
  Q 428.69 1035.33 441.98 1009.92
  C 446.20 1001.85 452.29 994.14 449.53 984.48
  C 448.16 979.68 445.33 972.73 444.13 967.35
  Q 440.12 949.47 444.15 930.34
  Q 449.71 903.95 470.64 888.38
  C 483.40 878.89 497.15 872.06 511.36 863.86
  Q 533.28 851.20 558.34 841.78
  A 17.34 17.25 31.6 0 1 562.59 840.78
  Q 585.04 838.38 604.53 836.83
  C 608.53 836.51 612.55 835.94 616.45 838.82
  C 634.06 851.77 644.21 869.28 649.88 890.21
  Q 650.37 892.00 653.42 907.39
  Q 655.76 919.19 661.83 931.31
  A 0.29 0.29 0.0 0 1 661.65 931.72
  L 625.45 941.39
  Z"
/>
<path fill="#ff393b" d="
  M 525.90 845.36
  A 0.10 0.10 0.0 0 1 525.93 845.54
  Q 517.90 850.02 476.45 874.15
  Q 434.22 898.73 433.58 948.34
  A 0.98 0.97 -10.4 0 1 432.96 949.23
  L 414.18 956.52
  A 0.24 0.24 0.0 0 1 413.85 956.27
  Q 417.21 922.45 431.85 892.69
  C 438.60 878.98 447.61 867.43 457.53 856.51
  Q 459.78 854.03 461.78 853.52
  Q 464.00 852.96 468.12 852.37
  Q 489.37 849.34 524.29 845.35
  Q 525.28 845.23 525.90 845.36
  Z"
/>
<path fill="#ffffff" d="
  M 717.89 994.66
  Q 719.55 962.43 707.35 934.17
  C 702.45 922.83 698.89 915.14 696.57 904.05
  C 692.25 883.37 686.02 864.60 674.54 846.67
  A 0.26 0.25 -7.8 0 1 674.82 846.29
  Q 688.06 850.43 700.60 856.10
  C 713.60 861.97 725.08 869.64 736.48 878.68
  Q 740.00 881.46 740.92 883.27
  Q 755.04 910.90 777.71 931.67
  A 0.28 0.28 0.0 0 1 777.76 932.03
  C 767.93 946.42 757.71 957.62 743.13 970.94
  Q 729.45 983.45 718.46 994.90
  A 0.33 0.33 0.0 0 1 717.89 994.66
  Z"
/>
<path fill="#ffffff" d="
  M 1054.70 994.95
  Q 1043.70 983.51 1029.99 971.03
  C 1015.39 957.73 1005.15 946.54 995.30 932.17
  A 0.28 0.28 0.0 0 1 995.35 931.81
  Q 1017.99 911.00 1032.06 883.35
  Q 1032.98 881.54 1036.50 878.75
  C 1047.88 869.69 1059.35 862.01 1072.34 856.11
  Q 1084.87 850.42 1098.10 846.26
  A 0.26 0.25 7.8 0 1 1098.39 846.64
  C 1086.93 864.59 1080.73 883.37 1076.45 904.06
  C 1074.15 915.15 1070.60 922.85 1065.72 934.20
  Q 1053.56 962.48 1055.27 994.70
  A 0.33 0.33 0.0 0 1 1054.70 994.95
  Z"
/>
<path fill="#3f72db" d="
  M 1328.30 857.26
  A 0.25 0.25 0.0 0 1 1328.57 856.87
  Q 1334.86 859.05 1338.70 860.06
  C 1361.75 866.14 1381.71 873.90 1402.48 883.37
  A 2.99 2.98 -86.6 0 1 1404.09 885.19
  Q 1405.73 890.45 1405.88 895.51
  C 1406.30 909.34 1406.50 921.85 1409.74 934.59
  C 1412.98 947.31 1420.15 959.29 1428.62 968.88
  Q 1435.84 977.05 1439.04 980.69
  Q 1441.74 983.77 1447.85 993.65
  C 1459.95 1013.21 1461.97 1036.22 1459.22 1058.78
  Q 1456.63 1080.09 1451.92 1098.44
  Q 1446.52 1119.51 1435.78 1140.54
  C 1427.91 1155.93 1416.70 1173.42 1404.84 1188.23
  Q 1396.13 1199.11 1390.65 1206.26
  A 0.76 0.76 0.0 0 1 1389.57 1206.40
  L 1373.30 1193.50
  A 0.53 0.53 0.0 0 1 1373.22 1192.76
  Q 1392.80 1168.99 1406.31 1139.64
  C 1415.63 1119.41 1422.02 1096.28 1424.21 1075.49
  C 1427.33 1045.95 1424.06 1011.72 1403.26 988.46
  C 1393.85 977.95 1381.55 968.49 1368.80 961.62
  A 2.16 2.16 0.0 0 1 1367.66 959.84
  C 1365.41 921.71 1352.68 886.83 1328.30 857.26
  Z"
/>
<path fill="#3f72db" d="
  M 444.37 857.13
  A 0.29 0.29 0.0 0 1 444.66 857.60
  Q 408.45 902.05 405.17 960.35
  A 1.85 1.84 77.4 0 1 404.22 961.86
  Q 385.95 971.90 371.66 986.68
  C 358.82 999.95 351.48 1018.11 349.28 1036.53
  C 344.79 1074.11 352.73 1109.62 369.13 1144.40
  Q 381.43 1170.48 399.83 1192.53
  A 0.45 0.45 0.0 0 1 399.77 1193.16
  L 383.67 1206.37
  A 0.77 0.76 -39.0 0 1 382.59 1206.26
  Q 371.47 1192.10 357.66 1173.36
  Q 336.38 1144.50 325.02 1111.18
  C 318.10 1090.88 314.57 1069.95 313.09 1048.50
  C 311.85 1030.66 314.59 1012.56 323.35 996.84
  Q 330.16 984.62 336.95 977.43
  Q 346.84 966.95 353.37 956.86
  Q 365.53 938.09 366.31 915.16
  Q 366.46 910.83 367.45 892.75
  Q 367.51 891.72 369.12 885.89
  C 369.97 882.80 372.80 882.33 375.20 881.23
  Q 409.21 865.59 444.37 857.13
  Z"
/>
<path fill="#ffffff" d="
  M 868.64 1256.37
  L 868.34 1256.37
  A 0.30 0.28 76.8 0 1 868.08 1256.20
  Q 861.44 1240.53 857.06 1224.22
  Q 851.46 1203.41 850.92 1183.26
  C 850.43 1164.86 852.74 1145.05 853.84 1126.55
  C 854.96 1107.74 852.55 1089.54 848.23 1071.00
  Q 841.60 1042.53 836.71 1019.80
  Q 829.36 985.66 824.94 946.01
  Q 821.97 919.43 821.41 898.09
  C 821.07 885.16 821.92 873.00 822.88 859.78
  A 0.28 0.28 0.0 0 1 823.42 859.71
  C 827.11 870.50 831.53 879.55 834.33 889.68
  C 839.09 906.91 842.25 920.61 847.51 934.96
  A 2.84 2.84 0.0 0 1 847.57 936.70
  C 840.54 960.92 839.67 986.75 842.60 1011.70
  Q 845.01 1032.24 856.38 1048.91
  C 859.90 1054.07 864.82 1060.11 867.29 1066.95
  C 869.88 1074.14 870.02 1083.46 868.83 1090.04
  Q 865.12 1110.48 864.16 1116.66
  Q 861.45 1133.94 865.91 1150.83
  C 869.97 1166.18 872.65 1179.69 871.33 1194.78
  C 870.99 1198.71 869.89 1201.78 867.99 1205.85
  Q 864.68 1212.92 864.19 1216.99
  C 862.54 1230.94 865.04 1242.47 869.02 1255.86
  A 0.40 0.40 0.0 0 1 868.64 1256.37
  Z"
/>
<path fill="#ffffff" d="
  M 950.15 860.24
  A 0.24 0.24 0.0 0 1 950.62 860.32
  Q 951.64 883.53 951.72 889.50
  Q 951.92 904.64 950.10 925.22
  Q 946.07 970.94 937.68 1013.97
  Q 935.07 1027.35 924.64 1071.64
  Q 917.11 1103.68 919.86 1136.17
  Q 921.32 1153.29 922.09 1172.37
  C 923.25 1200.75 916.42 1228.14 906.79 1255.03
  Q 906.41 1256.10 905.58 1257.06
  A 0.18 0.18 0.0 0 1 905.26 1256.91
  C 908.08 1239.91 911.64 1223.81 913.72 1205.01
  Q 915.05 1193.01 908.44 1182.14
  C 906.96 1179.71 904.48 1177.48 903.01 1175.25
  C 900.84 1171.95 901.80 1167.49 902.99 1163.74
  C 908.04 1147.81 912.28 1133.31 908.49 1116.75
  C 904.16 1097.88 897.50 1076.30 909.51 1059.24
  Q 910.16 1058.31 917.00 1049.02
  C 932.23 1028.28 933.26 998.42 931.84 973.69
  Q 930.72 954.34 925.60 936.54
  A 2.49 2.42 -45.5 0 1 925.61 935.15
  Q 937.29 897.28 940.51 887.26
  Q 945.35 872.19 950.15 860.24
  Z"
/>
<path fill="#3f72db" d="
  M 355.44 890.59
  Q 345.46 903.44 339.87 918.83
  Q 337.30 925.91 331.82 942.35
  Q 329.85 948.26 325.00 959.01
  Q 320.95 967.97 316.79 975.02
  C 310.04 986.46 304.42 994.63 299.46 1004.61
  C 287.36 1028.98 287.50 1055.68 296.06 1080.95
  Q 309.61 1120.99 331.22 1157.51
  Q 360.11 1206.31 396.28 1248.70
  C 417.99 1274.15 443.39 1295.77 470.91 1311.61
  Q 510.88 1334.61 554.60 1348.92
  Q 565.60 1352.52 575.97 1354.85
  A 0.41 0.41 0.0 0 1 576.21 1355.49
  L 563.42 1373.54
  A 2.89 2.89 0.0 0 1 560.80 1374.75
  Q 540.70 1372.93 521.86 1364.88
  Q 507.33 1358.67 499.12 1354.38
  Q 479.23 1343.99 466.98 1337.50
  C 451.92 1329.54 437.98 1321.42 424.83 1311.17
  Q 417.11 1305.16 404.66 1294.36
  C 391.88 1283.26 378.92 1269.54 367.38 1256.62
  Q 354.66 1242.38 349.02 1234.49
  Q 344.18 1227.73 338.73 1217.19
  Q 329.39 1199.14 323.75 1188.63
  Q 315.76 1173.76 302.25 1155.52
  C 298.01 1149.80 294.02 1143.97 289.91 1137.78
  A 7.39 7.33 25.7 0 1 288.74 1134.48
  Q 288.71 1134.24 288.23 1126.49
  C 286.66 1101.19 269.55 1078.48 266.53 1052.33
  C 265.12 1040.17 267.39 1027.25 271.67 1015.18
  Q 272.94 1011.59 276.25 1006.71
  Q 287.26 990.48 291.83 972.85
  Q 294.97 960.74 296.89 953.14
  C 300.87 937.35 308.86 924.04 318.64 911.14
  Q 320.31 908.94 321.49 908.24
  Q 338.96 897.91 355.01 890.06
  A 0.35 0.35 0.0 0 1 355.44 890.59
  Z"
/>
<path fill="#3f72db" d="
  M 1196.77 1354.98
  A 0.24 0.24 0.0 0 1 1196.91 1354.61
  Q 1211.63 1351.34 1227.44 1345.73
  C 1250.10 1337.68 1271.98 1328.27 1294.23 1316.25
  Q 1338.41 1292.36 1371.40 1254.69
  Q 1393.55 1229.38 1409.55 1206.82
  C 1421.25 1190.30 1434.53 1170.60 1444.69 1152.58
  Q 1462.82 1120.42 1474.99 1087.75
  Q 1477.92 1079.90 1480.76 1066.84
  C 1485.28 1046.03 1483.38 1023.24 1473.39 1004.12
  Q 1468.31 994.39 1461.26 983.25
  Q 1448.62 963.26 1440.59 939.69
  Q 1434.26 921.12 1433.44 918.81
  Q 1427.90 903.18 1417.92 890.62
  A 0.33 0.33 0.0 0 1 1418.30 890.11
  Q 1419.75 890.68 1422.36 892.01
  Q 1435.09 898.49 1448.83 906.41
  C 1451.75 908.09 1453.77 909.39 1455.88 912.45
  Q 1464.97 925.64 1470.34 936.66
  C 1475.89 948.04 1477.59 959.30 1481.27 973.48
  Q 1484.29 985.08 1489.72 995.29
  Q 1491.88 999.35 1498.54 1009.70
  C 1502.59 1016.00 1504.50 1025.17 1505.79 1032.99
  C 1508.63 1050.15 1505.41 1065.60 1498.38 1081.95
  C 1490.52 1100.22 1484.14 1116.03 1484.62 1135.39
  A 3.18 3.14 57.3 0 1 1484.33 1136.76
  Q 1482.81 1140.02 1480.11 1143.62
  Q 1465.94 1162.49 1458.76 1173.25
  C 1450.22 1186.06 1444.27 1199.02 1437.20 1212.99
  C 1431.68 1223.90 1424.88 1234.49 1416.64 1244.34
  C 1396.05 1268.95 1373.39 1291.84 1347.81 1311.56
  Q 1330.78 1324.70 1308.37 1336.38
  Q 1270.06 1356.35 1262.93 1359.70
  Q 1248.38 1366.53 1235.57 1370.28
  C 1228.00 1372.50 1219.69 1373.64 1211.12 1374.52
  A 1.02 1.01 -20.4 0 1 1210.19 1374.10
  L 1196.77 1354.98
  Z"
/>
<path fill="#ffffff" d="
  M 587.47 954.60
  A 1.15 1.15 0.0 0 1 586.76 955.65
  Q 571.71 961.97 556.95 969.76
  A 0.98 0.97 51.9 0 1 555.84 969.62
  Q 550.13 964.41 542.06 960.43
  C 537.29 958.08 530.02 955.54 525.54 951.40
  Q 511.22 938.18 518.07 918.85
  Q 521.95 907.90 532.98 904.48
  C 540.90 902.02 551.11 905.47 558.48 908.99
  C 571.99 915.44 584.96 926.29 586.77 942.04
  Q 587.54 948.82 587.47 954.60
  Z"
/>
<path fill="#ffffff" d="
  M 1185.43 954.27
  Q 1185.40 948.49 1186.21 941.72
  C 1188.12 925.99 1201.16 915.24 1214.70 908.88
  C 1222.09 905.41 1232.32 902.03 1240.21 904.54
  Q 1251.21 908.03 1255.02 919.00
  Q 1261.74 938.36 1247.34 951.48
  C 1242.84 955.59 1235.55 958.08 1230.77 960.39
  Q 1222.68 964.32 1216.94 969.49
  A 0.98 0.97 -51.5 0 1 1215.83 969.62
  Q 1201.13 961.74 1186.13 955.32
  A 1.15 1.15 0.0 0 1 1185.43 954.27
  Z"
/>
<path fill="#ffffff" d="
  M 298.47 925.40
  Q 289.76 941.67 286.54 956.77
  Q 283.88 969.21 281.42 976.89
  C 275.43 995.56 262.34 1012.02 247.95 1025.21
  A 0.29 0.29 0.0 0 1 247.48 1024.89
  C 251.31 1014.67 253.53 1009.11 258.00 999.07
  Q 265.15 983.01 266.72 978.40
  Q 271.89 963.22 274.98 956.56
  Q 283.02 939.24 298.13 925.14
  A 0.22 0.22 0.0 0 1 298.47 925.40
  Z"
/>
<path fill="#ffffff" d="
  M 1475.00 925.45
  Q 1489.92 939.37 1497.85 956.48
  Q 1500.90 963.06 1506.01 978.05
  Q 1507.56 982.61 1514.62 998.47
  C 1519.03 1008.39 1521.22 1013.88 1525.00 1023.97
  A 0.29 0.29 0.0 0 1 1524.54 1024.29
  C 1510.33 1011.26 1497.40 995.00 1491.49 976.56
  Q 1489.06 968.97 1486.44 956.69
  Q 1483.26 941.77 1474.66 925.70
  A 0.21 0.21 0.0 0 1 1475.00 925.45
  Z"
/>
<path fill="#ffffff" d="
  M 657.00 1046.12
  C 659.50 1032.64 659.47 1018.79 656.17 1005.07
  Q 650.67 982.22 636.03 963.45
  Q 631.73 957.95 626.08 951.12
  A 0.52 0.52 0.0 0 1 626.33 950.29
  Q 645.15 944.43 665.67 940.04
  A 0.39 0.39 0.0 0 1 666.08 940.20
  Q 674.46 952.38 680.18 966.32
  C 686.97 982.84 686.36 996.72 687.50 1019.66
  C 687.57 1021.05 687.99 1022.17 688.18 1023.36
  A 1.05 1.03 -26.0 0 1 687.84 1024.32
  Q 673.72 1036.92 657.21 1046.27
  A 0.14 0.14 0.0 0 1 657.00 1046.12
  Z"
/>
<path fill="#ffffff" d="
  M 1115.91 1046.04
  A 0.14 0.14 0.0 0 1 1115.70 1046.19
  Q 1099.21 1036.79 1085.12 1024.15
  A 1.05 1.03 26.2 0 1 1084.79 1023.19
  C 1084.98 1022.00 1085.40 1020.88 1085.48 1019.49
  C 1086.68 996.55 1086.11 982.67 1092.95 966.17
  Q 1098.71 952.24 1107.13 940.08
  A 0.39 0.39 0.0 0 1 1107.54 939.92
  Q 1128.05 944.37 1146.86 950.29
  A 0.52 0.52 0.0 0 1 1147.11 951.12
  Q 1141.43 957.93 1137.12 963.42
  Q 1122.42 982.15 1116.85 1004.99
  C 1113.51 1018.70 1113.44 1032.56 1115.91 1046.04
  Z"
/>
<path fill="#ffffff" d="
  M 919.95 949.25
  Q 920.45 951.08 920.77 953.00
  C 923.27 968.01 923.74 983.24 923.32 998.69
  A 0.32 0.32 0.0 0 1 922.79 998.92
  C 911.64 989.25 899.07 1012.03 891.71 1015.76
  C 880.06 1021.66 869.08 1007.59 860.45 1002.37
  Q 855.67 999.47 850.86 1000.97
  A 0.40 0.39 -10.8 0 1 850.35 1000.63
  Q 848.11 974.47 853.17 949.12
  A 0.27 0.27 0.0 0 1 853.68 949.07
  C 858.78 960.87 865.03 974.68 875.38 982.34
  Q 887.38 991.22 898.90 981.36
  C 908.83 972.86 914.06 961.55 919.55 949.22
  A 0.21 0.21 0.0 0 1 919.95 949.25
  Z"
/>
<path fill="#ffffff" d="
  M 976.32 951.26
  Q 976.37 951.25 976.58 951.33
  A 0.07 0.05 5.2 0 1 976.62 951.36
  Q 990.59 965.20 998.88 974.38
  C 1026.59 1005.07 1041.89 1039.38 1060.91 1080.92
  C 1068.87 1098.31 1078.19 1114.40 1089.83 1132.61
  Q 1106.64 1158.92 1113.22 1170.04
  Q 1129.50 1197.53 1139.90 1224.37
  Q 1145.20 1238.04 1150.19 1253.11
  Q 1153.52 1263.17 1155.11 1270.71
  C 1156.33 1276.53 1157.78 1286.20 1151.33 1288.56
  C 1145.80 1290.58 1137.48 1285.12 1133.15 1281.08
  C 1122.38 1271.03 1116.00 1258.88 1109.85 1245.17
  Q 1100.69 1224.74 1095.63 1211.37
  C 1087.26 1189.26 1080.10 1170.23 1069.25 1149.45
  C 1057.07 1126.14 1042.40 1102.61 1029.89 1080.88
  Q 1010.77 1047.70 997.22 1012.62
  C 989.53 992.72 984.10 971.93 975.97 951.89
  A 0.47 0.46 74.1 0 1 976.32 951.26
  Z"
/>
<path fill="#ffffff" d="
  M 796.59 951.49
  A 0.47 0.46 -74.1 0 1 796.94 952.12
  C 788.82 972.16 783.39 992.94 775.71 1012.84
  Q 762.17 1047.91 743.06 1081.08
  C 730.55 1102.81 715.89 1126.34 703.72 1149.64
  C 692.88 1170.42 685.72 1189.44 677.36 1211.55
  Q 672.30 1224.92 663.15 1245.34
  C 657.00 1259.05 650.63 1271.20 639.86 1281.25
  C 635.53 1285.29 627.22 1290.75 621.69 1288.73
  C 615.24 1286.37 616.69 1276.70 617.90 1270.88
  Q 619.49 1263.35 622.82 1253.29
  Q 627.81 1238.22 633.10 1224.55
  Q 643.50 1197.72 659.77 1170.23
  Q 666.34 1159.12 683.14 1132.81
  C 694.78 1114.60 704.09 1098.52 712.05 1081.13
  C 731.05 1039.60 746.34 1005.29 774.04 974.61
  Q 782.33 965.43 796.29 951.59
  A 0.07 0.05 -5.2 0 1 796.33 951.56
  Q 796.54 951.48 796.59 951.49
  Z"
/>
<path fill="#ff393b" d="
  M 510.64 1191.67
  C 507.26 1189.97 503.22 1187.40 498.82 1185.48
  Q 491.14 1182.11 480.90 1177.34
  C 459.24 1167.24 442.66 1153.03 429.34 1133.02
  Q 414.41 1110.60 408.63 1081.43
  C 404.00 1058.05 405.78 1034.82 414.43 1013.40
  C 417.63 1005.49 421.24 998.59 419.31 992.25
  C 416.69 983.66 413.82 976.16 413.33 967.18
  A 1.29 1.27 78.2 0 1 414.15 965.91
  L 433.46 958.41
  A 0.59 0.59 0.0 0 1 434.26 958.92
  Q 434.97 968.78 437.95 977.73
  C 440.26 984.67 444.02 990.44 439.34 997.51
  Q 422.53 1022.81 424.25 1052.40
  Q 425.06 1066.34 430.82 1078.09
  A 4.82 4.80 33.8 0 1 431.29 1080.45
  C 430.23 1098.83 436.74 1121.28 449.24 1134.92
  Q 463.11 1150.07 482.51 1153.46
  C 489.09 1154.62 494.72 1154.42 503.01 1154.60
  A 1.05 1.04 90.0 0 1 504.03 1155.63
  Q 504.33 1174.17 510.98 1191.36
  A 0.25 0.25 0.0 0 1 510.64 1191.67
  Z"
/>
<path fill="#ff393b" d="
  M 1262.33 1192.08
  A 0.25 0.25 0.0 0 1 1261.99 1191.77
  Q 1268.65 1174.53 1268.93 1155.95
  A 1.05 1.04 90.0 0 1 1269.95 1154.92
  C 1278.26 1154.73 1283.90 1154.93 1290.50 1153.76
  Q 1309.94 1150.35 1323.83 1135.16
  C 1336.34 1121.48 1342.85 1098.98 1341.78 1080.56
  A 4.83 4.81 -33.8 0 1 1342.25 1078.19
  Q 1348.01 1066.41 1348.81 1052.44
  Q 1350.51 1022.79 1333.65 997.45
  C 1328.95 990.36 1332.72 984.58 1335.03 977.62
  Q 1338.01 968.65 1338.71 958.77
  A 0.59 0.59 0.0 0 1 1339.51 958.26
  L 1358.87 965.76
  A 1.29 1.28 -78.2 0 1 1359.69 967.03
  C 1359.21 976.03 1356.34 983.55 1353.72 992.16
  C 1351.79 998.51 1355.41 1005.43 1358.63 1013.35
  C 1367.31 1034.81 1369.11 1058.09 1364.49 1081.52
  Q 1358.71 1110.76 1343.77 1133.24
  C 1330.43 1153.30 1313.83 1167.56 1292.13 1177.69
  Q 1281.87 1182.48 1274.18 1185.86
  C 1269.77 1187.79 1265.72 1190.37 1262.33 1192.08
  Z"
/>
<path fill="#ffffff" d="
  M 1184.20 964.17
  A 0.16 0.16 0.0 0 1 1184.42 964.07
  Q 1197.90 969.79 1210.14 976.67
  A 0.20 0.20 0.0 0 1 1210.21 976.97
  Q 1198.24 993.56 1190.63 1005.61
  Q 1179.68 1022.93 1178.60 1041.09
  C 1178.24 1047.27 1179.64 1053.77 1185.55 1056.58
  C 1194.79 1060.99 1206.15 1048.50 1210.65 1041.65
  C 1215.63 1034.05 1221.05 1024.25 1227.82 1017.31
  C 1233.88 1011.11 1242.35 1009.47 1249.39 1014.58
  C 1257.23 1020.26 1255.97 1031.78 1251.78 1039.82
  C 1241.05 1060.41 1210.69 1064.49 1190.23 1063.33
  Q 1166.70 1062.01 1143.99 1055.83
  A 0.81 0.81 0.0 0 1 1143.40 1055.08
  Q 1142.71 1037.93 1147.69 1024.91
  Q 1153.29 1010.25 1163.33 997.06
  C 1170.36 987.82 1180.04 976.51 1184.20 964.17
  Z"
/>
<path fill="#ffffff" d="
  M 587.92 965.03
  Q 591.75 974.21 598.58 982.78
  C 615.79 1004.35 631.34 1026.26 629.45 1055.22
  A 1.00 1.00 0.0 0 1 628.70 1056.12
  Q 612.15 1060.50 596.59 1062.25
  Q 579.82 1064.14 568.88 1063.35
  C 548.83 1061.92 523.08 1054.54 518.20 1032.33
  C 516.16 1023.04 519.74 1013.62 529.77 1011.76
  C 535.26 1010.74 540.46 1012.89 544.35 1016.83
  C 552.23 1024.80 557.31 1035.15 563.27 1043.71
  Q 569.38 1052.48 578.25 1056.48
  C 586.14 1060.04 592.92 1054.69 593.82 1046.74
  C 595.54 1031.67 589.45 1016.63 581.29 1003.95
  Q 572.05 989.60 562.86 977.12
  A 0.51 0.50 -32.6 0 1 563.03 976.38
  Q 574.35 970.06 587.53 964.87
  A 0.30 0.30 0.0 0 1 587.92 965.03
  Z"
/>
<path fill="#3f72db" d="
  M 1367.64 971.71
  A 0.40 0.39 17.7 0 1 1368.23 971.41
  Q 1376.79 976.45 1384.75 982.73
  Q 1406.98 1000.28 1413.14 1028.37
  C 1418.80 1054.20 1416.83 1078.43 1409.55 1104.31
  Q 1403.22 1126.84 1393.18 1146.69
  Q 1382.32 1168.16 1366.12 1186.88
  A 0.64 0.63 -50.6 0 1 1365.24 1186.97
  L 1333.21 1161.57
  A 0.96 0.96 0.0 0 1 1333.14 1160.12
  C 1343.58 1150.24 1351.34 1138.51 1358.34 1125.37
  Q 1380.74 1083.30 1373.95 1035.75
  C 1372.27 1024.03 1368.35 1014.06 1363.73 1002.88
  C 1362.06 998.85 1361.31 996.01 1363.00 991.71
  Q 1366.52 982.78 1367.64 971.71
  Z"
/>
<path fill="#3f72db" d="
  M 613.95 1215.70
  A 0.39 0.39 0.0 0 1 614.56 1216.18
  Q 614.34 1216.57 601.12 1241.38
  C 588.69 1264.73 570.06 1291.23 539.33 1284.88
  C 526.74 1282.27 515.77 1274.84 505.70 1266.61
  C 496.52 1259.09 485.12 1249.41 473.43 1242.67
  C 462.37 1236.30 452.84 1229.80 443.12 1222.37
  C 422.84 1206.86 405.96 1188.22 391.72 1166.55
  C 374.53 1140.40 364.05 1112.23 358.70 1081.87
  Q 354.07 1055.63 359.52 1029.56
  Q 365.55 1000.74 387.50 983.36
  Q 396.62 976.13 404.65 971.52
  A 0.47 0.47 0.0 0 1 405.35 971.89
  Q 406.30 983.45 410.94 994.16
  A 5.06 5.04 -49.2 0 1 411.18 997.51
  C 409.73 1002.89 406.46 1009.83 404.98 1013.89
  Q 394.58 1042.42 398.19 1072.61
  Q 402.32 1107.25 421.13 1136.88
  Q 440.04 1166.68 471.87 1182.91
  Q 481.95 1188.05 489.90 1191.43
  Q 497.76 1194.77 502.36 1197.63
  Q 510.81 1202.89 514.98 1205.38
  Q 516.63 1206.37 517.78 1208.27
  C 525.62 1221.21 535.94 1231.48 550.05 1236.87
  Q 572.90 1245.60 593.40 1232.94
  Q 601.07 1228.21 605.72 1223.68
  Q 613.44 1216.16 613.95 1215.70
  Z"
/>
<path fill="#ffffff" d="
  M 953.47 976.53
  Q 964.25 994.24 970.59 1014.62
  Q 973.82 1024.95 977.63 1041.04
  Q 989.92 1092.79 996.85 1141.00
  C 999.08 1156.48 1000.39 1170.06 1002.13 1186.85
  A 0.24 0.23 22.8 0 1 1001.71 1187.02
  C 977.59 1156.53 958.04 1122.16 943.62 1086.69
  Q 939.68 1077.02 935.48 1065.79
  A 2.97 2.87 -49.7 0 1 935.36 1064.10
  Q 941.92 1036.06 946.92 1012.09
  Q 949.13 1001.42 952.85 976.66
  A 0.34 0.34 0.0 0 1 953.47 976.53
  Z"
/>
<path fill="#ffffff" d="
  M 820.03 976.77
  Q 823.78 1001.56 826.01 1012.24
  Q 831.04 1036.23 837.63 1064.30
  A 2.97 2.88 49.7 0 1 837.52 1065.99
  Q 833.32 1077.24 829.39 1086.93
  C 814.99 1122.45 795.45 1156.89 771.33 1187.44
  A 0.24 0.24 0.0 0 1 770.91 1187.27
  C 772.63 1170.46 773.93 1156.86 776.15 1141.36
  Q 783.04 1093.08 795.29 1041.25
  Q 799.09 1025.14 802.31 1014.79
  Q 808.63 994.38 819.41 976.64
  A 0.34 0.34 0.0 0 1 820.03 976.77
  Z"
/>
<path fill="#ffffff" d="
  M 701.96 1024.33
  A 0.15 0.15 0.0 0 1 702.11 1024.55
  C 689.31 1047.16 681.01 1070.90 672.20 1096.63
  Q 663.47 1122.12 649.27 1144.01
  Q 635.65 1165.01 629.70 1174.11
  C 618.49 1191.26 609.89 1209.60 593.62 1222.30
  C 579.39 1233.41 561.84 1234.56 546.20 1225.38
  Q 534.25 1218.36 527.68 1207.32
  Q 514.48 1185.15 512.53 1155.51
  A 0.66 0.66 0.0 0 1 513.18 1154.81
  C 527.14 1154.60 550.03 1157.72 556.53 1172.13
  Q 557.59 1174.49 557.64 1179.77
  C 557.69 1187.00 558.55 1196.10 564.36 1201.30
  C 584.70 1219.47 609.06 1182.37 617.07 1168.08
  C 621.77 1159.71 626.41 1149.29 630.22 1140.95
  C 639.52 1120.58 645.95 1098.25 646.55 1076.25
  Q 646.74 1069.51 645.48 1063.25
  A 0.88 0.88 0.0 0 1 645.88 1062.33
  C 657.04 1055.41 669.04 1050.16 680.84 1041.09
  Q 690.10 1033.97 701.20 1024.72
  Q 701.60 1024.38 701.96 1024.33
  Z"
/>
<path fill="#ffffff" d="
  M 1071.43 1024.69
  Q 1071.79 1024.74 1072.19 1025.08
  Q 1083.26 1034.32 1092.50 1041.44
  C 1104.27 1050.50 1116.25 1055.75 1127.39 1062.67
  A 0.88 0.88 0.0 0 1 1127.78 1063.59
  Q 1126.52 1069.84 1126.71 1076.57
  C 1127.29 1098.53 1133.69 1120.83 1142.96 1141.17
  C 1146.75 1149.50 1151.38 1159.90 1156.06 1168.26
  C 1164.05 1182.54 1188.34 1219.59 1208.66 1201.47
  C 1214.46 1196.28 1215.33 1187.20 1215.38 1179.98
  Q 1215.44 1174.71 1216.50 1172.36
  C 1223.00 1157.98 1245.85 1154.88 1259.79 1155.10
  A 0.66 0.66 0.0 0 1 1260.43 1155.80
  Q 1258.46 1185.39 1245.27 1207.51
  Q 1238.70 1218.53 1226.77 1225.52
  C 1211.14 1234.68 1193.63 1233.51 1179.43 1222.41
  C 1163.20 1209.72 1154.63 1191.40 1143.45 1174.27
  Q 1137.52 1165.18 1123.94 1144.21
  Q 1109.78 1122.35 1101.08 1096.89
  C 1092.31 1071.20 1084.04 1047.49 1071.28 1024.91
  A 0.15 0.15 0.0 0 1 1071.43 1024.69
  Z"
/>
<path fill="#ffffff" d="
  M 1513.94 1025.64
  C 1519.56 1030.35 1521.91 1032.97 1527.41 1036.22
  A 2.54 2.53 11.7 0 1 1528.63 1038.07
  Q 1531.56 1060.03 1523.83 1081.38
  C 1520.72 1089.96 1513.59 1105.42 1509.80 1118.16
  C 1506.69 1128.61 1505.35 1137.88 1502.81 1150.03
  Q 1501.79 1154.94 1500.46 1158.96
  A 0.29 0.29 0.0 0 1 1499.91 1158.97
  Q 1494.94 1146.26 1493.22 1134.28
  C 1492.22 1127.30 1494.67 1120.48 1497.26 1111.35
  Q 1499.02 1105.14 1502.08 1097.26
  C 1507.56 1083.15 1511.71 1073.62 1514.11 1061.10
  Q 1517.48 1043.49 1513.46 1025.93
  A 0.30 0.30 0.0 0 1 1513.94 1025.64
  Z"
/>
<path fill="#ffffff" d="
  M 273.12 1158.93
  A 0.31 0.31 0.0 0 1 272.53 1158.91
  C 269.20 1146.52 266.58 1129.12 264.18 1121.11
  C 260.26 1108.02 254.60 1094.37 250.31 1083.91
  Q 241.69 1062.87 243.97 1039.78
  A 2.87 2.84 -12.5 0 1 245.38 1037.59
  C 250.51 1034.59 254.67 1030.23 259.16 1025.93
  A 0.22 0.21 -16.7 0 1 259.52 1026.12
  Q 253.95 1053.55 264.12 1079.91
  C 268.73 1091.88 274.56 1105.10 278.09 1119.62
  Q 280.09 1127.80 279.71 1132.81
  C 279.03 1141.90 276.63 1148.83 273.12 1158.93
  Z"
/>
<path fill="#ffffff" d="
  M 547.92 1091.98
  A 0.20 0.19 28.1 0 1 548.02 1092.30
  L 526.63 1116.68
  A 0.65 0.65 0.0 0 1 525.97 1116.87
  C 517.68 1114.53 509.96 1113.52 501.50 1113.97
  C 496.65 1114.22 492.06 1114.90 488.17 1114.17
  C 476.95 1112.08 470.12 1104.26 467.66 1093.28
  C 463.68 1075.50 473.81 1060.42 490.01 1053.68
  A 0.78 0.77 -22.8 0 1 491.02 1054.08
  C 495.92 1065.09 502.62 1074.22 513.45 1080.34
  C 523.86 1086.23 535.81 1089.21 547.92 1091.98
  Z"
/>
<path fill="#ffffff" d="
  M 1224.99 1092.08
  C 1237.12 1089.35 1249.10 1086.41 1259.54 1080.56
  C 1270.41 1074.47 1277.15 1065.35 1282.09 1054.35
  A 0.79 0.77 23.1 0 1 1283.11 1053.95
  C 1299.30 1060.76 1309.39 1075.89 1305.34 1093.68
  C 1302.83 1104.66 1295.97 1112.47 1284.73 1114.52
  C 1280.83 1115.23 1276.24 1114.54 1271.38 1114.27
  C 1262.91 1113.79 1255.18 1114.77 1246.87 1117.08
  A 0.65 0.65 0.0 0 1 1246.21 1116.89
  L 1224.89 1092.40
  A 0.20 0.19 -27.9 0 1 1224.99 1092.08
  Z"
/>
<path fill="#ffffff" d="
  M 766.40 1083.39
  A 0.22 0.22 0.0 0 1 766.80 1083.56
  Q 763.17 1102.49 760.67 1123.44
  Q 754.98 1171.05 749.26 1213.34
  A 2.13 2.07 69.2 0 1 748.80 1214.40
  Q 727.60 1239.82 701.60 1260.35
  Q 683.27 1274.81 673.55 1282.55
  Q 661.00 1292.53 652.83 1300.30
  A 0.27 0.26 -45.8 0 1 652.47 1300.31
  L 652.46 1300.30
  A 0.30 0.30 0.0 0 1 652.42 1299.90
  Q 658.73 1291.80 661.21 1288.21
  Q 681.92 1258.20 693.83 1224.60
  Q 703.34 1197.78 712.61 1175.84
  C 724.48 1147.75 742.09 1121.17 758.74 1095.77
  C 761.69 1091.28 763.93 1086.89 766.40 1083.39
  Z"
/>
<path fill="#ffffff" d="
  M 1006.40 1083.61
  A 0.23 0.23 0.0 0 1 1006.82 1083.45
  C 1017.38 1100.69 1029.65 1118.95 1041.35 1138.34
  C 1053.21 1158.00 1063.13 1180.27 1070.30 1199.96
  Q 1083.34 1235.78 1085.75 1241.73
  C 1089.01 1249.78 1092.11 1256.67 1096.86 1264.56
  Q 1108.12 1283.27 1120.64 1299.92
  A 0.16 0.16 0.0 0 1 1120.41 1300.14
  Q 1111.09 1291.67 1099.40 1282.34
  Q 1075.08 1262.95 1073.16 1261.44
  C 1054.23 1246.55 1039.34 1232.18 1024.22 1214.43
  A 2.17 2.11 22.1 0 1 1023.74 1213.34
  C 1023.22 1209.33 1022.84 1204.70 1022.36 1201.22
  Q 1016.42 1157.94 1012.33 1123.15
  Q 1009.96 1102.98 1006.40 1083.61
  Z"
/>
<path fill="#ffffff" d="
  M 1173.23 1177.83
  A 0.23 0.23 0.0 0 1 1172.82 1177.95
  Q 1162.44 1163.82 1155.14 1147.11
  C 1149.11 1133.30 1150.57 1115.19 1154.36 1100.78
  A 1.54 1.53 -81.9 0 1 1155.88 1099.63
  Q 1184.77 1100.35 1213.20 1094.61
  A 1.49 1.49 0.0 0 1 1214.50 1094.97
  Q 1226.90 1106.32 1236.73 1119.14
  A 0.42 0.42 0.0 0 1 1236.51 1119.80
  C 1223.10 1123.55 1211.73 1126.31 1200.61 1129.87
  C 1185.05 1134.84 1176.66 1148.48 1174.41 1164.22
  Q 1173.68 1169.28 1173.23 1177.83
  Z"
/>
<path fill="#ffffff" d="
  M 600.19 1178.29
  A 0.28 0.28 0.0 0 1 599.68 1178.14
  C 599.14 1160.34 595.40 1140.10 577.52 1131.77
  Q 572.68 1129.52 564.66 1127.39
  Q 546.02 1122.44 536.01 1119.62
  A 0.34 0.33 -63.6 0 1 535.84 1119.10
  Q 545.97 1105.63 558.63 1094.98
  A 0.85 0.84 30.5 0 1 559.34 1094.80
  Q 587.90 1100.56 617.11 1099.77
  A 1.13 1.12 -12.3 0 1 618.15 1100.43
  Q 618.92 1102.17 619.37 1104.14
  Q 622.27 1116.75 621.61 1130.36
  C 621.36 1135.52 620.67 1140.59 618.55 1145.54
  Q 610.85 1163.50 600.19 1178.29
  Z"
/>
<path fill="#3f72db" d="
  M 1158.37 1215.18
  A 0.26 0.25 -73.9 0 1 1158.80 1214.94
  Q 1163.14 1219.55 1167.49 1223.76
  C 1180.64 1236.51 1198.43 1243.91 1217.17 1238.92
  C 1233.81 1234.50 1246.31 1223.21 1255.39 1208.19
  A 7.76 7.76 0.0 0 1 1258.06 1205.52
  C 1264.86 1201.41 1271.79 1196.65 1278.33 1193.66
  Q 1288.99 1188.81 1290.96 1187.96
  Q 1310.08 1179.68 1325.42 1166.58
  A 1.06 1.05 44.1 0 1 1326.76 1166.56
  L 1359.92 1192.85
  A 0.96 0.96 0.0 0 1 1360.04 1194.24
  C 1342.11 1214.84 1319.68 1231.61 1296.18 1244.93
  Q 1290.87 1247.93 1281.95 1255.22
  C 1269.46 1265.43 1258.89 1274.68 1246.81 1280.56
  C 1235.02 1286.28 1220.74 1287.93 1208.61 1282.39
  C 1192.72 1275.14 1181.45 1258.42 1173.08 1242.92
  Q 1166.94 1231.53 1159.25 1217.48
  Q 1158.68 1216.44 1158.37 1215.18
  Z"
/>
<path fill="#ffffff" d="
  M 1496.06 1169.88
  A 0.30 0.30 0.0 0 1 1496.49 1170.26
  C 1489.78 1186.24 1477.66 1197.26 1467.99 1211.74
  Q 1458.75 1225.56 1453.49 1242.02
  Q 1449.09 1255.82 1444.33 1267.25
  Q 1443.46 1269.34 1442.18 1271.30
  A 0.28 0.28 0.0 0 1 1441.67 1271.15
  C 1441.28 1257.34 1441.00 1244.89 1444.45 1232.37
  Q 1450.40 1210.75 1465.76 1194.29
  Q 1479.25 1179.83 1496.06 1169.88
  Z"
/>
<path fill="#ffffff" d="
  M 276.99 1170.19
  Q 293.77 1180.08 307.25 1194.48
  Q 322.60 1210.87 328.57 1232.43
  C 332.03 1244.91 331.78 1257.33 331.41 1271.10
  A 0.28 0.28 0.0 0 1 330.90 1271.25
  Q 329.62 1269.30 328.75 1267.22
  Q 323.98 1255.82 319.57 1242.07
  Q 314.30 1225.66 305.06 1211.89
  C 295.39 1197.46 283.28 1186.49 276.56 1170.57
  A 0.30 0.30 0.0 0 1 276.99 1170.19
  Z"
/>
<path fill="#3f72db" d="
  M 1270.88 1307.19
  Q 1272.33 1303.54 1274.24 1298.81
  Q 1279.71 1285.28 1278.17 1271.19
  A 1.20 1.16 61.8 0 1 1278.41 1270.34
  Q 1281.08 1266.97 1284.40 1264.15
  C 1291.14 1258.44 1296.64 1254.86 1305.66 1249.61
  Q 1339.82 1229.74 1366.33 1200.37
  A 1.00 1.00 0.0 0 1 1367.69 1200.26
  L 1383.89 1213.10
  A 0.65 0.65 0.0 0 1 1384.00 1214.01
  C 1367.91 1234.47 1352.33 1252.94 1333.58 1270.56
  Q 1306.57 1295.93 1271.10 1307.43
  A 0.18 0.18 0.0 0 1 1270.88 1307.19
  Z"
/>
<path fill="#3f72db" d="
  M 502.14 1306.90
  A 0.18 0.18 0.0 0 1 501.92 1307.14
  Q 466.46 1295.70 439.43 1270.38
  C 420.66 1252.80 405.07 1234.36 388.96 1213.94
  A 0.65 0.65 0.0 0 1 389.07 1213.03
  L 405.24 1200.18
  A 1.00 1.00 0.0 0 1 406.60 1200.28
  Q 433.13 1229.60 467.30 1249.40
  C 476.32 1254.64 481.82 1258.21 488.56 1263.90
  Q 491.89 1266.72 494.56 1270.08
  A 1.20 1.15 -61.9 0 1 494.80 1270.93
  Q 493.28 1285.01 498.77 1298.53
  Q 500.68 1303.25 502.14 1306.90
  Z"
/>
<path fill="#ff393b" d="
  M 625.29 1297.72
  A 0.33 0.33 0.0 0 1 625.56 1298.28
  Q 613.23 1310.45 597.44 1327.81
  C 594.58 1330.95 592.23 1334.19 589.24 1338.02
  A 0.42 0.41 -46.6 0 1 588.60 1338.04
  Q 584.21 1332.94 577.49 1329.25
  C 565.84 1322.83 555.02 1319.13 541.31 1315.71
  Q 529.63 1312.80 514.98 1309.80
  A 1.99 1.98 78.8 0 1 513.70 1308.94
  Q 503.85 1294.19 503.38 1277.09
  A 0.41 0.41 0.0 0 1 504.03 1276.74
  C 511.37 1281.91 518.10 1286.50 526.50 1290.01
  C 538.68 1295.11 551.86 1295.66 564.21 1291.75
  C 582.21 1286.06 596.14 1268.23 604.89 1252.40
  Q 615.09 1233.95 627.35 1211.18
  A 0.53 0.52 -56.7 0 1 628.14 1211.01
  L 628.16 1211.03
  A 0.83 0.83 0.0 0 1 628.42 1211.98
  Q 619.04 1235.67 612.20 1258.19
  Q 609.84 1265.93 608.74 1272.99
  C 606.96 1284.36 610.11 1299.47 625.29 1297.72
  Z"
/>
<path fill="#ff393b" d="
  M 1269.34 1276.76
  A 0.41 0.41 0.0 0 1 1269.97 1277.12
  Q 1269.09 1294.60 1259.32 1309.10
  A 3.28 3.28 0.0 0 1 1257.20 1310.49
  C 1239.59 1313.75 1221.72 1317.28 1206.15 1323.90
  C 1198.11 1327.31 1190.40 1331.38 1184.70 1337.60
  A 0.59 0.59 0.0 0 1 1183.82 1337.58
  Q 1166.93 1317.20 1147.12 1298.04
  A 0.25 0.25 0.0 0 1 1147.32 1297.61
  C 1167.04 1299.89 1166.17 1277.35 1162.72 1265.02
  Q 1157.16 1245.16 1154.99 1239.51
  Q 1147.58 1220.22 1146.05 1215.98
  Q 1145.34 1214.00 1144.88 1211.86
  A 0.59 0.59 0.0 0 1 1145.96 1211.43
  Q 1151.06 1219.92 1160.14 1237.49
  Q 1161.06 1239.28 1166.62 1249.23
  C 1173.42 1261.37 1180.15 1271.40 1190.42 1280.55
  Q 1197.08 1286.49 1203.43 1289.52
  C 1223.51 1299.10 1246.78 1293.42 1264.16 1280.35
  Q 1266.08 1278.90 1269.34 1276.76
  Z"
/>
<path fill="#ffffff" d="
  M 426.33 1356.77
  C 415.66 1349.80 409.57 1341.58 401.86 1331.43
  Q 389.07 1314.59 373.54 1306.45
  C 361.27 1300.02 352.41 1295.87 343.24 1288.46
  A 0.30 0.29 69.1 0 1 343.47 1287.94
  Q 353.41 1289.57 360.18 1290.84
  C 371.39 1292.93 385.58 1297.41 394.24 1304.98
  C 406.95 1316.09 416.81 1330.25 422.73 1346.24
  Q 425.22 1352.96 426.72 1356.44
  A 0.27 0.27 0.0 0 1 426.33 1356.77
  Z"
/>
<path fill="#ffffff" d="
  M 1429.04 1288.73
  C 1419.91 1296.60 1406.27 1302.76 1398.75 1306.99
  Q 1386.09 1314.12 1376.62 1324.87
  Q 1371.97 1330.16 1364.13 1340.63
  Q 1356.76 1350.47 1346.68 1356.98
  A 0.26 0.26 0.0 0 1 1346.30 1356.67
  Q 1348.35 1351.04 1350.27 1345.76
  Q 1357.37 1326.24 1371.73 1311.23
  C 1382.14 1300.36 1396.79 1293.50 1410.93 1290.92
  Q 1417.22 1289.77 1428.85 1288.30
  A 0.25 0.24 -69.0 0 1 1429.04 1288.73
  Z"
/>
<path fill="#3f72db" d="
  M 1194.17 1366.31
  A 0.32 0.32 0.0 0 1 1193.72 1366.75
  Q 1174.95 1354.35 1159.31 1339.52
  C 1154.29 1334.75 1149.48 1328.91 1145.06 1322.44
  Q 1135.20 1308.01 1123.66 1290.14
  A 0.59 0.59 0.0 0 1 1124.13 1289.23
  Q 1125.75 1289.17 1126.84 1290.17
  Q 1131.43 1294.39 1152.24 1315.25
  C 1159.43 1322.46 1165.30 1329.42 1173.21 1338.28
  Q 1184.90 1351.38 1194.17 1366.31
  Z"
/>
<path fill="#3f72db" d="
  M 579.37 1366.54
  A 0.40 0.40 0.0 0 1 578.96 1365.93
  C 588.27 1351.01 599.28 1339.00 610.97 1325.65
  C 621.14 1314.05 628.87 1306.92 643.68 1292.18
  Q 645.60 1290.27 647.34 1289.34
  A 1.26 1.26 0.0 0 1 648.99 1291.14
  Q 631.13 1318.28 630.70 1318.96
  Q 620.07 1335.55 603.88 1348.63
  Q 592.77 1357.62 580.50 1366.00
  Q 579.84 1366.45 579.37 1366.54
  Z"
/>
<path fill="#ffffff" d="
  M 432.55 1360.12
  C 433.79 1358.14 436.08 1356.53 438.41 1355.64
  C 467.46 1344.53 490.16 1370.35 506.90 1389.87
  A 0.26 0.26 0.0 0 1 506.68 1390.30
  C 494.94 1388.96 485.77 1383.59 475.80 1377.62
  C 467.28 1372.52 458.17 1368.20 450.61 1366.12
  Q 439.93 1363.19 432.82 1360.86
  A 0.50 0.50 0.0 0 1 432.55 1360.12
  Z"
/>
<path fill="#ffffff" d="
  M 1339.88 1360.16
  A 0.50 0.49 65.4 0 1 1339.61 1360.90
  Q 1332.55 1363.22 1321.94 1366.14
  C 1314.43 1368.21 1305.38 1372.51 1296.91 1377.59
  C 1287.01 1383.53 1277.90 1388.87 1266.24 1390.21
  A 0.26 0.26 0.0 0 1 1266.02 1389.79
  C 1282.64 1370.37 1305.17 1344.70 1334.05 1355.71
  C 1336.37 1356.60 1338.65 1358.19 1339.88 1360.16
  Z"
/>
</svg>
